<?xml version="1.0" standalone="no"?>
<!DOCTYPE svg PUBLIC "-//W3C//DTD SVG 20010904//EN"
 "http://www.w3.org/TR/2001/REC-SVG-20010904/DTD/svg10.dtd">
<svg version="1.0" xmlns="http://www.w3.org/2000/svg"
 width="443.000000pt" height="443.000000pt" viewBox="0 0 443.000000 443.000000"
 preserveAspectRatio="xMidYMid meet">
<metadata>
Created by potrace 1.16, written by Peter Selinger 2001-2019
</metadata>
<g transform="translate(0.000000,443.000000) scale(0.100000,-0.100000)"
fill="#000000" stroke="none">
<path d="M593 4298 c-38 -41 -185 -251 -260 -372 -74 -120 -146 -265 -174
-351 -85 -258 73 -553 339 -635 81 -25 225 -27 303 -4 134 40 266 149 322 268
89 187 70 343 -74 602 -96 172 -302 476 -347 512 -30 23 -76 14 -109 -20z
m202 -382 c93 -142 176 -299 205 -386 17 -50 21 -79 17 -125 -6 -59 -36 -147
-54 -158 -5 -3 -15 15 -22 41 -15 59 -85 175 -173 287 -64 81 -70 85 -107 85
-49 0 -63 -12 -151 -130 -77 -104 -150 -237 -151 -279 -1 -43 -57 82 -65 146
-13 108 63 275 259 570 l100 151 33 -43 c18 -23 67 -95 109 -159z m-81 -539
c96 -144 103 -185 45 -252 -57 -64 -144 -67 -202 -7 -43 44 -50 86 -26 141 15
36 118 201 125 201 1 0 27 -38 58 -83z"/>
<path d="M159 4231 c-26 -27 -30 -37 -25 -64 18 -94 156 -85 156 10 0 40 -27
71 -67 79 -27 5 -37 1 -64 -25z"/>
<path d="M1065 4248 c-51 -27 -60 -84 -20 -123 62 -63 161 6 129 90 -7 17 -54
45 -76 45 -7 0 -22 -6 -33 -12z"/>
<path d="M1857 4012 c-26 -28 -22 -97 5 -116 31 -22 84 -20 108 4 24 24 26 77
4 108 -20 29 -93 31 -117 4z"/>
<path d="M2151 4004 c-12 -15 -21 -37 -21 -49 0 -12 9 -34 21 -49 l20 -26 185
0 c171 0 185 1 204 20 26 26 27 90 2 113 -16 15 -46 17 -205 17 l-186 0 -20
-26z"/>
<path d="M2025 3729 c-224 -27 -537 -137 -551 -193 -10 -42 0 -78 28 -99 31
-23 34 -23 178 37 508 210 1090 101 1488 -279 244 -232 391 -521 432 -847 29
-237 -10 -506 -107 -723 -47 -106 -49 -124 -23 -158 23 -29 73 -37 110 -17 21
11 100 194 129 300 44 163 55 249 55 430 0 188 -13 284 -60 445 -160 554 -645
986 -1221 1090 -109 20 -352 27 -458 14z"/>
<path d="M1991 3424 c-380 -64 -728 -321 -906 -670 -213 -416 -173 -935 101
-1315 66 -92 203 -227 295 -292 262 -185 612 -265 936 -212 461 75 852 410
993 852 149 464 22 971 -326 1303 -190 182 -414 294 -666 335 -114 18 -314 18
-427 -1z m492 -174 c199 -54 351 -143 503 -294 153 -153 240 -303 296 -508 20
-72 22 -107 22 -268 0 -161 -2 -196 -22 -268 -31 -114 -88 -244 -147 -333 -62
-95 -229 -262 -324 -324 -305 -200 -700 -233 -1040 -86 -255 109 -475 334
-582 594 -62 150 -73 214 -73 417 0 203 11 267 73 417 134 325 431 579 766
656 110 26 111 26 285 22 129 -3 182 -8 243 -25z"/>
<path d="M2125 3136 c-113 -28 -198 -99 -249 -206 -27 -57 -30 -76 -30 -153 0
-87 0 -88 62 -210 79 -157 80 -162 46 -226 -40 -77 -55 -84 -208 -92 -162 -9
-223 -30 -299 -99 -149 -136 -164 -348 -36 -511 38 -49 110 -93 183 -114 114
-33 256 0 341 78 24 23 71 85 103 137 69 111 104 140 172 140 67 0 103 -29
172 -140 69 -109 97 -141 153 -174 126 -74 275 -72 397 6 58 36 100 87 135
164 21 47 26 72 26 138 0 115 -28 183 -107 262 -83 83 -138 103 -312 113 -153
8 -168 15 -208 92 -34 64 -33 69 46 226 62 122 62 123 62 210 0 77 -3 96 -30
153 -52 111 -144 184 -262 209 -65 13 -92 13 -157 -3z m165 -167 c60 -27 79
-45 106 -104 38 -81 32 -122 -38 -249 -22 -39 -46 -86 -52 -105 l-12 -34 -84
0 -84 0 -12 35 c-6 19 -30 66 -51 104 -69 122 -77 167 -42 244 27 60 45 79
104 106 61 29 106 30 165 3z m18 -693 c34 -34 37 -41 37 -96 0 -56 -3 -62 -38
-97 -35 -35 -41 -38 -97 -38 -56 0 -62 3 -97 38 -35 35 -38 41 -38 97 0 52 4
63 30 90 40 42 61 51 118 46 40 -3 55 -10 85 -40z m-375 -214 c9 -21 27 -52
41 -69 22 -26 24 -32 11 -43 -8 -6 -41 -56 -74 -110 -87 -141 -140 -177 -243
-168 -105 11 -196 119 -184 222 8 68 47 130 104 163 42 25 59 28 172 34 69 3
132 6 141 7 11 1 22 -12 32 -36z m794 24 c182 -11 274 -204 162 -339 -57 -69
-156 -95 -237 -62 -53 23 -77 48 -143 157 -33 53 -66 102 -74 108 -13 11 -11
17 11 43 14 17 32 47 40 68 l15 37 82 -4 c45 -3 110 -6 144 -8z"/>
<path d="M772 2754 c-22 -22 -36 -56 -60 -144 -47 -170 -56 -247 -56 -435 0
-183 14 -281 60 -440 142 -491 558 -907 1049 -1049 159 -46 256 -59 445 -60
181 0 264 11 430 55 105 28 288 107 300 129 20 37 12 87 -17 110 -34 26 -52
24 -158 -23 -288 -129 -633 -151 -940 -62 -444 129 -810 485 -948 920 -84 267
-88 554 -11 810 37 122 40 155 17 183 -10 12 -32 25 -50 28 -27 5 -37 1 -61
-22z"/>
<path d="M3484 1199 c-14 -15 -20 -40 -22 -95 -3 -41 -6 -74 -8 -74 -2 0 -26
14 -52 30 -60 37 -110 40 -139 8 -11 -13 -55 -85 -97 -160 -99 -175 -98 -186
17 -252 26 -15 47 -28 47 -30 0 -2 -25 -18 -55 -35 -65 -37 -90 -70 -81 -107
10 -38 153 -286 178 -306 29 -26 64 -22 125 12 29 17 55 30 57 30 2 0 6 -34 8
-76 5 -114 6 -114 228 -114 222 0 223 0 228 114 2 42 6 76 8 76 2 0 28 -13 57
-30 61 -34 96 -38 125 -12 25 20 168 268 178 306 9 37 -16 70 -83 108 -62 35
-63 31 21 80 49 29 71 66 60 102 -9 31 -144 268 -167 294 -29 32 -79 29 -139
-8 -26 -16 -50 -30 -52 -30 -2 0 -6 34 -8 76 -5 114 -5 114 -233 114 -172 0
-183 -1 -201 -21z m276 -237 c0 -95 2 -111 20 -130 33 -35 78 -29 166 23 41
25 79 45 82 45 4 0 21 -26 39 -58 l31 -58 -84 -48 c-88 -50 -104 -67 -104
-110 0 -44 11 -55 101 -107 l89 -51 -27 -47 c-43 -76 -41 -75 -108 -34 -93 56
-118 64 -154 52 -17 -6 -36 -19 -41 -29 -6 -10 -10 -64 -10 -119 l0 -101 -70
0 -70 0 0 101 c0 55 -4 109 -10 119 -5 10 -24 23 -41 29 -36 12 -61 4 -154
-52 -67 -41 -65 -42 -108 34 l-27 47 89 51 c90 52 101 63 101 107 0 43 -16 60
-104 110 l-84 48 31 58 c18 32 35 58 39 58 3 0 41 -20 82 -45 87 -51 127 -57
163 -23 21 20 23 30 23 130 l0 108 70 0 70 0 0 -108z"/>
<path d="M1860 460 c-26 -26 -27 -90 -2 -113 16 -15 46 -17 205 -17 l186 0 20
26 c12 15 21 37 21 49 0 12 -9 34 -21 49 l-20 26 -185 0 c-171 0 -185 -1 -204
-20z"/>
<path d="M2450 460 c-24 -24 -26 -77 -4 -108 20 -29 93 -31 117 -4 26 28 22
97 -5 116 -31 22 -84 20 -108 -4z"/>
</g>
</svg>
