<?xml version="1.0" standalone="no"?>
<!DOCTYPE svg PUBLIC "-//W3C//DTD SVG 20010904//EN"
 "http://www.w3.org/TR/2001/REC-SVG-20010904/DTD/svg10.dtd">
<svg version="1.0" xmlns="http://www.w3.org/2000/svg"
 width="488.000000pt" height="488.000000pt" viewBox="0 0 488.000000 488.000000"
 preserveAspectRatio="xMidYMid meet">
<metadata>
Created by potrace 1.16, written by Peter Selinger 2001-2019
</metadata>
<g transform="translate(0.000000,488.000000) scale(0.100000,-0.100000)"
fill="#000000" stroke="none">
<path d="M2320 4737 c-25 -7 -62 -22 -82 -33 -42 -21 -1940 -1704 -1993 -1767
-47 -54 -70 -126 -70 -217 0 -111 24 -170 99 -246 81 -82 147 -108 261 -102
89 5 155 29 217 79 l38 30 0 -1026 0 -1025 -272 -1 c-150 -1 -284 -4 -298 -8
-48 -13 -62 -87 -24 -125 14 -14 229 -16 2208 -16 2112 0 2194 1 2209 18 17
19 23 78 9 99 -18 28 -70 33 -338 33 l-274 0 0 1025 c0 564 4 1025 8 1025 5 0
19 -12 33 -26 13 -14 47 -38 74 -52 45 -24 61 -27 155 -27 98 0 109 2 158 30
68 37 127 95 160 160 24 44 27 61 27 150 0 93 -2 105 -33 167 -32 66 -52 85
-1008 937 -699 623 -990 877 -1028 896 -65 32 -169 41 -236 22z m168 -169 c65
-36 1935 -1703 1961 -1748 59 -105 25 -227 -80 -280 -48 -25 -132 -26 -175 -2
-17 9 -411 354 -875 765 -630 558 -853 750 -881 759 -28 8 -48 8 -76 0 -29 -9
-245 -196 -879 -760 -463 -412 -857 -755 -875 -763 -18 -8 -61 -14 -95 -14
-52 0 -68 5 -104 30 -56 40 -89 103 -89 170 0 43 6 61 32 99 19 27 418 388
950 860 504 447 934 829 956 847 74 62 159 75 230 37z m647 -1303 l724 -640 0
-1097 1 -1098 -1460 0 -1460 0 0 1093 0 1094 728 646 c400 356 731 646 736
644 4 -1 334 -291 731 -642z"/>
<path d="M2211 2981 c-22 -22 -25 -38 -42 -186 -6 -55 -12 -102 -14 -104 -2
-2 -37 -18 -78 -35 l-74 -33 -104 83 c-145 116 -141 117 -291 -33 -99 -99
-118 -123 -118 -148 0 -23 21 -57 85 -137 l85 -108 -21 -42 c-12 -23 -27 -58
-34 -77 l-12 -36 -138 -16 c-184 -22 -175 -10 -175 -226 0 -161 0 -164 25
-188 13 -14 30 -25 37 -25 27 -1 250 -29 252 -32 1 -2 16 -36 34 -77 l32 -74
-43 -54 c-116 -148 -127 -165 -127 -195 0 -24 20 -50 112 -144 61 -63 123
-117 136 -121 33 -8 60 7 167 93 l95 76 78 -33 c42 -18 78 -33 79 -34 1 0 8
-60 17 -134 21 -185 10 -176 226 -176 215 0 205 -7 225 166 8 68 15 129 15
135 0 5 36 25 80 43 l81 33 94 -76 c116 -94 134 -103 173 -87 16 7 77 61 136
120 142 144 143 124 -22 334 l-42 54 30 64 c16 35 30 69 30 76 0 13 17 17 169
34 153 17 151 14 151 221 0 221 12 207 -204 231 l-109 12 -33 79 -33 78 84
107 c64 80 85 113 85 136 0 25 -19 49 -118 148 -150 150 -145 149 -292 33
l-105 -84 -57 29 c-32 16 -64 29 -72 29 -21 0 -23 5 -35 115 -25 218 -9 205
-231 205 -155 0 -172 -2 -189 -19z m263 -148 c2 -10 12 -65 21 -123 10 -58 21
-112 26 -122 5 -9 39 -26 76 -38 38 -12 96 -37 131 -56 34 -19 74 -34 88 -34
17 0 59 27 123 79 l98 80 52 -53 52 -52 -76 -95 c-41 -52 -78 -104 -81 -116
-4 -15 6 -45 32 -90 21 -38 47 -99 59 -138 15 -49 28 -73 43 -81 13 -6 76 -17
142 -24 l120 -13 0 -73 c0 -41 -4 -74 -8 -74 -45 0 -252 -34 -267 -44 -11 -8
-29 -39 -39 -71 -9 -31 -35 -93 -56 -137 -47 -96 -47 -95 50 -213 38 -48 70
-90 70 -94 0 -4 -22 -28 -49 -55 l-49 -48 -101 81 c-56 45 -110 81 -119 81
-10 0 -61 -22 -115 -50 -54 -27 -109 -50 -123 -50 -49 0 -70 -36 -83 -146 -20
-168 -12 -154 -91 -154 -79 0 -70 -14 -91 150 -6 52 -18 105 -25 117 -8 13
-35 28 -69 37 -30 9 -90 34 -132 56 -42 22 -84 40 -94 40 -10 0 -64 -36 -120
-81 l-101 -81 -49 48 c-27 27 -49 51 -49 55 0 4 34 49 75 100 88 108 91 122
41 212 -19 34 -42 89 -51 122 -9 33 -24 68 -34 77 -11 12 -52 22 -136 32 -65
9 -123 16 -127 16 -4 0 -8 33 -8 73 l0 74 120 10 c73 7 129 16 143 26 14 9 30
37 41 73 10 33 33 88 51 124 53 103 53 102 -40 219 -41 51 -75 97 -75 100 0 4
22 28 49 55 l49 48 101 -81 c56 -45 110 -81 121 -81 10 0 53 18 94 41 42 22
100 47 129 55 28 7 59 22 68 33 11 13 21 58 28 123 19 161 10 148 91 148 57 0
69 -3 74 -17z"/>
<path d="M2335 2370 c-128 -15 -249 -84 -327 -187 -61 -82 -89 -158 -95 -263
-10 -157 35 -280 140 -384 267 -268 727 -144 822 221 31 117 13 262 -43 367
-63 117 -218 228 -338 241 -27 4 -60 7 -74 9 -14 1 -52 -1 -85 -4z m208 -177
c74 -33 148 -112 177 -191 45 -119 12 -270 -80 -362 -67 -67 -138 -95 -240
-95 -71 0 -94 4 -141 26 -119 56 -190 161 -197 294 -5 101 19 172 85 245 103
115 253 146 396 83z"/>
</g>
</svg>
