<?xml version="1.0" standalone="no"?>
<!DOCTYPE svg PUBLIC "-//W3C//DTD SVG 20010904//EN"
 "http://www.w3.org/TR/2001/REC-SVG-20010904/DTD/svg10.dtd">
<svg version="1.0" xmlns="http://www.w3.org/2000/svg"
 width="308.000000pt" height="308.000000pt" viewBox="0 0 308.000000 308.000000"
 preserveAspectRatio="xMidYMid meet">
<metadata>
Created by potrace 1.16, written by Peter Selinger 2001-2019
</metadata>
<g transform="translate(0.000000,308.000000) scale(0.100000,-0.100000)"
fill="#000000" stroke="none">
<path d="M1386 3050 c-373 -59 -715 -316 -871 -653 -164 -355 -126 -812 95
-1131 60 -86 205 -230 302 -300 38 -26 68 -48 68 -49 0 -1 -9 -25 -20 -53 -43
-114 -45 -289 -4 -410 47 -142 176 -297 301 -362 129 -68 310 -90 453 -56 223
52 412 241 464 464 24 102 21 232 -9 336 -23 78 -24 89 -10 96 50 29 181 137
242 201 203 214 303 475 304 791 0 263 -68 468 -225 677 -162 214 -377 359
-634 426 -77 19 -128 25 -247 28 -82 2 -177 0 -209 -5z m269 -100 c127 -13
234 -44 350 -99 285 -136 490 -389 567 -700 31 -124 31 -350 1 -472 -29 -113
-87 -248 -148 -340 -60 -91 -188 -220 -274 -277 l-65 -43 -55 59 c-93 98 -187
155 -308 186 -80 21 -246 21 -326 0 -121 -31 -242 -105 -319 -195 l-43 -50
-62 40 c-274 177 -453 515 -453 856 0 525 400 973 921 1034 103 12 113 12 214
1z m7 -1781 c95 -20 194 -75 267 -148 301 -300 148 -798 -272 -888 -267 -56
-548 126 -612 398 -42 179 10 356 144 490 129 129 303 183 473 148z"/>
<path d="M1421 2859 c-310 -40 -624 -287 -745 -585 -32 -79 -66 -245 -66 -322
0 -94 -5 -92 244 -92 157 0 217 3 230 13 12 9 20 35 26 84 27 212 174 368 383
403 219 38 443 -112 502 -335 8 -33 15 -74 15 -92 0 -20 8 -41 20 -53 19 -19
33 -20 228 -20 264 0 257 -3 248 119 -22 273 -159 535 -359 687 -77 59 -238
137 -337 163 -137 37 -262 47 -389 30z m79 -242 l0 -144 -57 -13 c-68 -15
-146 -48 -199 -84 l-39 -26 -78 78 c-43 42 -87 89 -97 103 l-19 26 47 34 c125
92 270 148 435 168 4 1 7 -64 7 -142z m260 116 c81 -19 228 -88 297 -139 29
-21 53 -42 53 -45 0 -4 -45 -50 -100 -102 l-100 -96 -44 29 c-59 40 -123 66
-195 81 l-61 12 0 143 0 144 43 -6 c23 -3 71 -13 107 -21z m-678 -534 c-39
-72 -50 -100 -72 -186 l-11 -43 -141 0 -141 0 6 63 c11 112 80 280 159 386
l40 53 100 -99 99 -99 -39 -75z m1193 156 c51 -81 90 -178 110 -277 25 -117
36 -108 -129 -108 l-143 0 -6 44 c-9 62 -43 148 -81 203 l-33 48 101 103 101
102 18 -22 c9 -13 37 -55 62 -93z"/>
<path d="M1702 2137 l-73 -74 -64 1 c-49 1 -70 -4 -91 -20 -45 -33 -67 -70
-71 -121 -10 -120 117 -201 226 -145 56 28 76 64 77 138 l1 64 76 80 c43 44
77 87 77 96 0 33 -20 54 -53 54 -27 0 -45 -12 -105 -73z"/>
<path d="M1189 1653 c-15 -39 -8 -238 9 -255 17 -17 664 -25 705 -9 l27 11 0
128 c0 86 -4 132 -12 140 -9 9 -104 12 -365 12 l-353 0 -11 -27z m641 -118 l0
-45 -270 0 -270 0 0 45 0 45 270 0 270 0 0 -45z"/>
<path d="M1465 993 c-106 -14 -246 -79 -326 -151 -53 -47 -62 -77 -31 -105 28
-25 43 -21 108 29 114 89 211 124 342 124 131 0 213 -32 374 -146 41 -29 71
-26 89 8 17 31 -1 59 -70 112 -136 105 -314 152 -486 129z"/>
<path d="M1433 825 c-149 -40 -274 -150 -220 -192 30 -24 57 -21 99 12 154
117 325 121 477 12 76 -56 121 -54 121 4 0 56 -112 136 -231 164 -79 18 -177
18 -246 0z"/>
<path d="M1498 680 c-87 -15 -188 -85 -188 -130 0 -21 31 -50 54 -50 9 0 39
16 67 35 87 60 168 60 254 1 74 -51 115 -45 115 16 0 53 -81 108 -185 127 -32
6 -61 10 -64 10 -3 -1 -27 -5 -53 -9z"/>
<path d="M1505 516 c-123 -54 -96 -238 38 -253 82 -10 147 46 147 126 0 104
-93 168 -185 127z"/>
<path d="M314 1319 c-12 -4 -24 -15 -28 -24 -3 -10 12 -89 34 -176 22 -87 40
-162 40 -168 0 -5 -49 -11 -110 -13 -119 -3 -130 -8 -129 -58 0 -17 65 -105
214 -290 118 -145 222 -268 231 -273 26 -14 63 1 70 28 5 21 -40 230 -72 338
-5 15 4 17 100 17 93 0 109 3 126 20 24 24 25 38 2 71 -51 75 -426 528 -441
532 -9 2 -26 1 -37 -4z m240 -401 l87 -108 -70 0 c-78 0 -118 -11 -128 -36 -6
-15 5 -82 24 -154 4 -15 -31 21 -85 87 -51 62 -92 115 -92 118 0 3 34 5 76 5
41 0 84 5 95 10 23 13 25 58 4 144 -8 32 -10 55 -6 50 4 -5 47 -57 95 -116z"/>
<path d="M2746 1308 c-54 -49 -436 -533 -436 -554 0 -43 28 -54 142 -54 l106
0 -40 -157 c-45 -179 -46 -213 -6 -227 22 -8 32 -6 49 10 12 10 116 135 230
277 140 173 209 267 209 282 0 42 -34 55 -146 55 l-103 0 40 148 c47 179 49
219 13 232 -33 13 -29 14 -58 -12z m-99 -353 c-27 -111 -22 -118 98 -125 l85
-5 -97 -120 c-53 -66 -94 -113 -91 -105 3 8 13 50 24 93 24 102 17 109 -100
117 l-85 5 91 113 c50 61 92 112 93 112 1 0 -7 -38 -18 -85z"/>
</g>
</svg>
