<?xml version="1.0" standalone="no"?>
<!DOCTYPE svg PUBLIC "-//W3C//DTD SVG 20010904//EN"
 "http://www.w3.org/TR/2001/REC-SVG-20010904/DTD/svg10.dtd">
<svg version="1.0" xmlns="http://www.w3.org/2000/svg"
 width="312.000000pt" height="312.000000pt" viewBox="0 0 312.000000 312.000000"
 preserveAspectRatio="xMidYMid meet">
<metadata>
Created by potrace 1.16, written by Peter Selinger 2001-2019
</metadata>
<g transform="translate(0.000000,312.000000) scale(0.100000,-0.100000)"
fill="#000000" stroke="none">
<path d="M1504 3071 c-21 -9 -74 -66 -74 -81 0 -4 -23 -131 -51 -281 -28 -151
-52 -297 -52 -324 -2 -63 26 -106 83 -129 l40 -16 0 -74 0 -73 -43 -17 c-64
-24 -121 -77 -147 -137 -18 -43 -21 -66 -18 -127 l3 -74 -66 -39 -66 -38 -39
19 c-65 34 -135 27 -224 -21 -167 -91 -407 -234 -433 -258 -41 -37 -53 -93
-30 -139 20 -41 74 -82 109 -82 24 0 565 190 615 216 48 24 71 70 66 130 l-5
51 61 36 c46 27 65 33 79 26 39 -21 40 -37 24 -377 -9 -180 -18 -359 -21 -398
-5 -60 -3 -75 13 -94 14 -18 25 -21 44 -17 14 4 28 14 32 22 3 9 12 150 21
313 8 163 17 336 21 385 l6 87 54 0 54 0 0 -40 c0 -50 57 -1196 65 -1302 l5
-78 -125 0 -125 0 0 36 c0 20 5 123 11 229 12 216 9 235 -42 235 -21 0 -32 -6
-39 -22 -7 -19 -30 -366 -30 -455 l0 -23 -261 0 c-160 0 -268 -4 -280 -10 -22
-12 -26 -59 -7 -78 17 -17 1529 -17 1546 0 14 14 15 47 2 68 -8 13 -52 15
-279 18 l-270 3 -5 62 c-8 84 -66 1267 -66 1343 0 51 4 64 24 83 l24 23 64
-38 65 -38 11 -64 c6 -38 20 -75 35 -95 21 -28 337 -220 505 -307 105 -55 218
35 184 148 -11 34 -42 65 -235 229 -122 104 -235 199 -251 211 -41 31 -111 30
-160 -3 -20 -14 -40 -25 -44 -25 -4 0 -31 15 -61 33 l-54 32 -1 85 c-1 67 -6
94 -23 126 -31 59 -79 103 -140 130 l-53 24 0 68 0 69 51 43 c79 67 79 66 79
415 l0 305 -33 36 c-26 29 -42 37 -77 40 -25 2 -54 0 -66 -5z m74 -376 c3
-302 1 -315 -50 -341 -36 -19 -61 -18 -87 4 l-21 17 53 291 c30 160 57 296 61
303 4 7 15 11 24 9 15 -3 17 -32 20 -283z m-12 -714 c131 -60 136 -239 8 -302
-111 -53 -236 24 -236 146 0 79 42 136 117 163 43 15 65 14 111 -7z m671 -542
c114 -97 217 -186 227 -198 18 -20 18 -23 4 -38 -15 -15 -34 -6 -230 107 -256
148 -264 154 -284 191 -12 25 -13 37 -4 65 13 38 47 67 66 56 7 -4 106 -86
221 -183z m-1222 157 c42 -18 69 -58 61 -90 -5 -21 -39 -35 -293 -125 -269
-96 -288 -101 -300 -85 -11 15 -11 20 -1 30 22 22 471 278 496 283 1 1 18 -5
37 -13z"/>
<path d="M942 2945 c-278 -139 -496 -388 -601 -687 -64 -185 -86 -406 -57
-593 19 -121 34 -155 70 -155 46 0 50 19 32 148 -30 212 -18 366 40 542 58
173 149 316 293 461 86 85 160 138 277 197 97 49 111 63 98 100 -15 42 -48 39
-152 -13z"/>
<path d="M1915 2966 c-24 -36 -7 -59 70 -94 148 -70 291 -182 392 -307 149
-185 228 -376 254 -612 9 -86 8 -126 -6 -234 -21 -165 -21 -189 -4 -200 21
-13 55 -11 67 4 6 7 20 72 31 144 47 306 -22 614 -197 878 -57 85 -204 235
-292 297 -84 60 -251 148 -278 148 -12 0 -29 -11 -37 -24z"/>
<path d="M1104 2430 c-180 -117 -304 -328 -321 -542 -7 -88 2 -108 48 -108 34
0 49 27 49 88 0 61 29 162 66 239 44 89 122 176 214 238 57 39 70 53 70 75 0
61 -43 65 -126 10z"/>
<path d="M1785 2454 c-28 -28 -14 -56 52 -102 174 -121 267 -275 288 -477 8
-81 17 -95 56 -95 43 0 53 35 39 133 -33 229 -143 406 -325 522 -60 39 -86 43
-110 19z"/>
<path d="M710 970 c-28 -28 -26 -38 24 -85 77 -74 278 -183 396 -215 52 -14
80 0 80 39 0 36 -6 40 -110 80 -103 39 -182 82 -275 150 -38 28 -75 51 -82 51
-7 0 -22 -9 -33 -20z"/>
<path d="M2175 935 c-65 -49 -237 -139 -322 -168 -63 -21 -80 -55 -45 -90 l22
-21 70 23 c102 32 237 103 328 170 88 65 101 85 76 112 -28 31 -64 23 -129
-26z"/>
</g>
</svg>
