<?xml version="1.0" standalone="no"?>
<!DOCTYPE svg PUBLIC "-//W3C//DTD SVG 20010904//EN"
 "http://www.w3.org/TR/2001/REC-SVG-20010904/DTD/svg10.dtd">
<svg version="1.0" xmlns="http://www.w3.org/2000/svg"
 width="228.000000pt" height="228.000000pt" viewBox="0 0 228.000000 228.000000"
 preserveAspectRatio="xMidYMid meet">
<metadata>
Created by potrace 1.16, written by Peter Selinger 2001-2019
</metadata>
<g transform="translate(0.000000,228.000000) scale(0.100000,-0.100000)"
fill="#000000" stroke="none">
<path d="M602 2164 c-22 -15 -22 -19 -22 -222 0 -114 4 -212 8 -218 12 -18 49
-34 80 -34 37 0 42 -13 42 -96 0 -49 3 -64 14 -64 8 0 51 36 95 80 l81 80 65
0 c54 0 67 -3 72 -17 3 -10 15 -28 26 -40 19 -21 30 -23 116 -23 l95 0 82 -80
c45 -44 89 -80 97 -80 13 0 17 15 19 78 l3 77 35 3 c50 4 78 21 90 55 14 40
13 345 -1 386 -6 17 -19 36 -29 41 -11 6 -108 10 -220 10 -182 0 -201 2 -207
18 -3 9 -15 27 -26 40 -20 22 -24 22 -257 22 -197 0 -239 -3 -258 -16z m488
-41 c0 -10 -11 -28 -25 -41 -24 -23 -25 -28 -27 -185 l-3 -162 -76 -3 -77 -3
-63 -61 -64 -62 -3 30 c-8 92 -9 94 -57 94 -79 0 -75 -11 -75 204 0 106 3 196
7 199 3 4 109 7 235 7 211 0 228 -1 228 -17z m468 -262 c2 -149 -1 -196 -10
-203 -7 -4 -34 -8 -60 -8 -51 0 -52 -1 -60 -95 l-3 -30 -67 63 -67 62 -94 0
c-59 0 -97 4 -105 12 -13 13 -18 351 -6 382 6 15 33 16 238 14 l231 -3 3 -194z"/>
<path d="M415 1523 c-23 -6 -72 -39 -95 -62 -29 -30 -50 -89 -50 -141 0 -58
17 -101 57 -144 l26 -29 -45 -41 c-89 -81 -83 -42 -83 -556 l0 -455 227 -3
228 -2 6 26 c4 14 3 196 -1 404 -5 275 -4 383 4 399 10 18 21 21 74 21 34 0
68 -4 74 -8 10 -6 13 -106 15 -423 l3 -414 227 -3 227 -2 7 47 c4 27 4 210 1
408 -3 224 -2 367 4 378 13 22 130 25 148 4 7 -10 12 -141 13 -423 l3 -409
219 -3 c153 -2 223 1 232 9 12 9 14 86 14 423 0 483 -1 491 -81 569 -27 26
-49 50 -49 53 0 3 11 20 24 37 30 40 56 102 56 135 0 85 -71 181 -150 202 -94
25 -184 -7 -238 -87 -23 -33 -27 -48 -27 -113 0 -66 3 -80 28 -115 l27 -40
-161 -3 c-89 -1 -164 -1 -166 1 -2 2 9 26 24 52 39 71 38 159 -3 217 -78 111
-213 131 -309 46 -83 -73 -99 -169 -45 -265 l30 -53 -140 0 c-77 0 -140 3
-140 6 0 3 12 26 27 51 60 103 22 231 -86 292 -26 14 -123 23 -156 14z m106
-44 c19 -7 49 -25 66 -42 113 -106 27 -290 -128 -275 -60 6 -101 36 -128 93
-25 53 -26 80 -7 126 19 44 52 75 101 93 50 18 55 18 96 5z m581 -1 c48 -14
105 -75 114 -122 19 -103 -54 -196 -155 -196 -96 0 -161 65 -161 160 0 81 36
130 115 158 40 14 41 14 87 0z m630 -1 c78 -28 123 -93 116 -169 -12 -115
-129 -182 -234 -132 -71 34 -107 115 -83 186 19 58 52 94 102 111 53 19 54 19
99 4z m-794 -429 c4 -69 9 -67 -168 -71 l-125 -2 -3 -418 -2 -418 -83 3 -82 3
-3 118 c-2 106 -4 118 -20 115 -15 -3 -17 -19 -20 -121 l-3 -117 -79 0 -80 0
0 165 0 165 64 0 c58 0 67 3 85 26 19 25 21 40 21 203 0 183 -6 215 -34 192
-14 -11 -16 -42 -16 -192 l0 -179 -59 0 c-44 0 -60 4 -65 16 -11 28 -6 369 5
427 9 42 20 65 44 88 57 56 66 58 355 56 l265 -2 3 -57z m220 46 c18 -12 22
-25 22 -68 0 -58 16 -82 60 -88 l25 -3 0 -205 0 -205 -60 0 -60 0 -3 180 c-1
99 -7 184 -12 189 -6 6 -15 4 -25 -4 -12 -10 -15 -42 -15 -184 0 -152 2 -175
20 -203 18 -30 23 -32 87 -35 l68 -3 0 -160 0 -160 -77 -3 -78 -3 0 108 c0
113 -7 140 -34 130 -13 -5 -16 -25 -16 -122 l0 -115 -80 0 -80 0 2 397 3 397
31 8 c39 10 54 42 54 113 l0 55 73 0 c49 0 80 -5 95 -16z m639 -4 c49 -24 79
-59 93 -111 6 -22 9 -126 8 -246 l-3 -208 -54 -3 c-37 -2 -57 1 -62 10 -5 7
-9 86 -9 175 0 168 -3 193 -26 193 -21 0 -26 -55 -22 -228 4 -196 6 -200 107
-204 l66 -3 3 -163 2 -163 -82 3 -83 3 -3 118 c-2 106 -4 118 -20 115 -15 -3
-17 -19 -20 -121 l-3 -118 -82 3 -82 3 -5 415 -5 415 -134 3 c-79 1 -140 7
-148 14 -7 6 -13 28 -13 48 0 74 -17 70 274 70 241 0 266 -2 303 -20z"/>
</g>
</svg>
