<?xml version="1.0" standalone="no"?>
<!DOCTYPE svg PUBLIC "-//W3C//DTD SVG 20010904//EN"
 "http://www.w3.org/TR/2001/REC-SVG-20010904/DTD/svg10.dtd">
<svg version="1.0" xmlns="http://www.w3.org/2000/svg"
 width="333.000000pt" height="266.000000pt" viewBox="0 0 333.000000 266.000000"
 preserveAspectRatio="xMidYMid meet">
<metadata>
Created by potrace 1.16, written by Peter Selinger 2001-2019
</metadata>
<g transform="translate(0.000000,266.000000) scale(0.100000,-0.100000)"
fill="#000000" stroke="none">
<path d="M530 2629 c-13 -5 -28 -15 -32 -22 -4 -7 -8 -63 -8 -124 l0 -113
-140 0 c-148 0 -185 -8 -194 -44 -3 -11 -6 -95 -6 -186 0 -209 0 -210 106
-210 l74 0 0 -745 0 -745 -74 0 c-106 0 -106 0 -106 -216 0 -154 2 -174 19
-195 l19 -24 1490 0 c1451 0 1490 0 1511 19 20 18 21 29 21 198 0 217 0 218
-110 218 l-70 0 0 745 0 745 70 0 c110 0 110 1 110 215 0 173 0 176 -25 200
-23 24 -28 25 -170 25 l-145 0 0 109 c0 92 -3 112 -19 132 l-19 24 -314 3
c-239 2 -319 -1 -338 -11 -24 -12 -25 -17 -30 -132 l-5 -120 -113 -5 c-104 -5
-115 -7 -133 -29 -24 -30 -24 -56 1 -81 20 -20 33 -20 600 -20 l580 0 0 -90 0
-90 -1400 0 -1400 0 0 90 0 90 578 0 c557 0 580 1 596 19 11 12 16 31 14 52
-4 48 -33 59 -155 59 l-103 0 0 113 c0 82 -4 119 -14 133 -14 18 -30 19 -328
21 -194 1 -322 -2 -338 -8z m2210 -189 l0 -70 -230 0 -230 0 0 70 0 70 230 0
230 0 0 -70z m-1660 -5 l0 -65 -230 0 -230 0 0 65 0 65 230 0 230 0 0 -65z
m1820 -1245 l0 -740 -1220 0 -1220 0 0 740 0 740 1220 0 1220 0 0 -740z m170
-970 l0 -90 -1395 0 -1395 0 0 90 0 90 1395 0 1395 0 0 -90z"/>
<path d="M1687 1796 c-8 -8 -103 -165 -211 -349 -139 -237 -196 -344 -196
-365 0 -52 27 -62 162 -62 l118 0 0 -202 c0 -232 5 -251 61 -256 24 -2 40 3
51 15 35 39 408 688 408 710 0 13 -9 32 -20 43 -18 18 -33 20 -140 20 l-120 0
0 188 c0 185 -8 248 -32 264 -21 13 -65 9 -81 -6z m0 -558 c10 -8 53 -15 114
-18 l98 -5 -102 -174 -102 -174 -3 124 c-3 160 -2 159 -134 159 -54 0 -98 2
-98 5 0 5 91 161 169 290 l36 60 3 -127 c2 -102 6 -129 19 -140z"/>
<path d="M2460 1355 c-7 -8 -15 -35 -18 -60 -5 -45 -5 -45 -43 -45 -46 0 -79
-27 -79 -65 0 -38 33 -65 80 -65 40 0 40 0 40 -40 0 -48 27 -80 68 -80 40 0
62 28 62 78 0 42 0 42 38 42 53 0 82 23 82 65 0 42 -29 65 -82 65 -37 0 -38 1
-38 38 0 53 -23 82 -64 82 -19 0 -39 -7 -46 -15z"/>
<path d="M681 1224 c-27 -34 -26 -50 4 -79 23 -24 29 -25 165 -25 138 0 141 1
166 26 20 19 24 31 19 52 -11 48 -27 52 -186 52 -147 0 -148 0 -168 -26z"/>
</g>
</svg>
