<?xml version="1.0" standalone="no"?>
<!DOCTYPE svg PUBLIC "-//W3C//DTD SVG 20010904//EN"
 "http://www.w3.org/TR/2001/REC-SVG-20010904/DTD/svg10.dtd">
<svg version="1.0" xmlns="http://www.w3.org/2000/svg"
 width="541.000000pt" height="433.000000pt" viewBox="0 0 541.000000 433.000000"
 preserveAspectRatio="xMidYMid meet">
<metadata>
Created by potrace 1.16, written by Peter Selinger 2001-2019
</metadata>
<g transform="translate(0.000000,433.000000) scale(0.100000,-0.100000)"
fill="#000000" stroke="none">
<path d="M1400 4260 c-178 -66 -290 -224 -290 -411 0 -124 51 -242 140 -322
222 -200 566 -130 692 140 26 54 33 84 36 151 10 193 -82 350 -254 429 -50 23
-74 28 -164 30 -86 3 -115 0 -160 -17z m291 -94 c73 -34 136 -98 173 -176 27
-56 31 -76 31 -145 0 -71 -4 -89 -33 -147 -122 -247 -456 -272 -607 -45 -133
202 -39 454 200 534 60 20 171 10 236 -21z"/>
<path d="M1510 4011 c-5 -11 -10 -42 -10 -70 l0 -51 -59 0 c-66 0 -87 -15 -77
-55 6 -23 10 -25 71 -25 l65 0 0 -59 c0 -60 15 -91 45 -91 30 0 45 31 45 90
l0 59 68 3 c61 3 67 5 70 26 6 39 -15 52 -79 52 l-59 0 0 58 c0 32 -5 63 -12
70 -18 18 -56 14 -68 -7z"/>
<path d="M3858 4264 c-67 -20 -167 -91 -210 -149 -65 -85 -82 -143 -83 -270 0
-103 2 -114 32 -178 158 -334 626 -341 789 -12 31 63 37 86 42 163 4 73 1 103
-17 160 -40 133 -155 249 -285 287 -62 19 -206 18 -268 -1z m278 -98 c77 -35
145 -103 180 -180 23 -50 28 -75 29 -141 0 -71 -4 -88 -33 -147 -74 -151 -241
-233 -393 -193 -117 29 -197 96 -247 204 -39 82 -37 191 2 279 82 179 287 258
462 178z"/>
<path d="M3820 3870 c-8 -14 -8 -26 0 -40 10 -19 19 -20 178 -18 l167 3 3 29
c2 16 -2 32 -10 37 -7 5 -84 9 -170 9 -147 0 -158 -1 -168 -20z"/>
<path d="M1355 3245 c-51 -18 -100 -73 -114 -130 -6 -24 -11 -78 -11 -119 l0
-76 -327 -2 -328 -3 -3 -259 c-2 -182 1 -263 9 -272 8 -10 40 -14 120 -14
l109 0 0 -865 0 -865 -96 0 c-52 0 -104 -5 -115 -10 -18 -10 -19 -24 -19 -254
0 -193 3 -246 14 -255 10 -8 568 -10 2107 -9 l2094 3 3 250 c2 226 1 251 -15
263 -11 7 -51 12 -110 12 l-93 0 0 865 0 865 110 0 c109 0 111 0 120 26 14 35
13 480 0 505 -10 18 -24 19 -255 19 l-245 0 0 118 c0 135 -13 173 -71 204 -30
16 -59 18 -245 18 -203 0 -212 -1 -245 -23 -56 -37 -69 -76 -69 -204 l0 -113
-910 0 -910 0 0 93 c-1 137 -43 210 -138 237 -56 15 -319 12 -367 -5z m386
-104 c28 -28 29 -33 29 -125 l0 -96 -225 0 -225 0 0 86 c0 154 13 163 228 164
l164 0 29 -29z m2467 17 c8 -8 12 -50 12 -125 l0 -113 -225 0 -225 0 0 113 c0
75 4 117 12 125 17 17 409 17 426 0z m522 -513 l0 -195 -2040 0 -2040 0 0 195
0 195 2040 0 2040 0 0 -195z m-240 -1140 l0 -865 -1800 0 -1800 0 0 865 0 865
1800 0 1800 0 0 -865z m230 -1135 l0 -180 -2030 0 -2030 0 0 180 0 180 2030 0
2030 0 0 -180z"/>
<path d="M1863 2139 c-103 -17 -233 -95 -233 -140 0 -11 23 -59 50 -108 l51
-88 -66 -66 c-68 -68 -100 -125 -120 -212 l-11 -50 -90 -5 -89 -5 -18 -37
c-10 -21 -23 -67 -29 -103 -30 -181 70 -374 237 -456 91 -44 100 -41 165 69
46 78 58 92 75 87 142 -40 204 -45 298 -20 32 8 61 15 65 15 4 0 25 -32 47
-71 l40 -71 61 5 c87 7 177 52 246 125 66 69 93 118 114 209 17 72 13 185 -8
210 -7 9 -43 13 -123 13 l-113 0 -11 61 c-15 88 -53 162 -116 228 l-56 58 41
71 c27 46 39 78 35 91 -10 32 -122 131 -177 156 -48 22 -160 47 -198 44 -8 -1
-38 -5 -67 -10z m228 -112 c30 -14 69 -42 88 -61 l33 -34 -74 -129 c-41 -70
-80 -128 -86 -127 -7 1 -43 2 -81 3 l-68 1 -87 150 c-47 82 -86 153 -86 158 0
11 56 43 104 58 67 22 192 13 257 -19z m-275 -372 c21 -35 44 -67 51 -69 8 -3
34 0 58 6 36 10 54 9 87 -1 82 -25 87 -23 132 51 l41 68 32 -32 c43 -41 92
-136 99 -192 l7 -46 -86 0 -85 0 -17 -51 c-12 -34 -32 -65 -64 -95 l-46 -45
38 -70 c21 -38 35 -73 33 -78 -9 -14 -124 -32 -163 -26 -21 4 -57 13 -81 21
l-42 16 35 62 c40 73 43 96 14 122 -29 26 -59 88 -59 122 0 44 -16 52 -103 52
l-79 0 6 33 c11 55 58 136 103 177 23 22 44 40 47 40 2 0 21 -29 42 -65z m-92
-299 c4 -18 19 -51 34 -72 l28 -38 -84 -146 c-46 -80 -88 -149 -93 -154 -25
-27 -155 89 -191 172 -26 57 -35 170 -19 230 l12 42 153 0 154 0 6 -34z m854
-64 c-11 -152 -108 -275 -251 -317 l-42 -12 -76 131 -76 131 28 32 c15 17 33
48 40 67 l13 36 184 0 185 0 -5 -68z"/>
<path d="M3512 1943 c-18 -9 -44 -30 -56 -47 -13 -17 -111 -182 -217 -366
l-194 -335 0 -62 c0 -67 16 -98 69 -137 27 -20 41 -21 465 -24 l437 -3 34 23
c78 53 102 145 61 226 -48 94 -385 670 -404 691 -46 50 -132 65 -195 34z m130
-91 c30 -31 408 -696 408 -719 0 -12 -11 -35 -24 -50 l-24 -28 -389 -3 c-436
-4 -456 -1 -479 53 -8 19 -11 42 -6 53 4 10 95 171 202 356 130 226 203 342
220 352 29 16 68 10 92 -14z"/>
<path d="M3523 1575 c-108 -120 -108 -139 5 -176 37 -12 71 -25 76 -30 5 -4
-23 -43 -63 -89 -39 -44 -71 -86 -71 -93 0 -24 26 -49 48 -45 12 2 61 49 116
113 118 136 122 154 41 184 -31 12 -58 21 -60 21 -2 0 -16 5 -30 10 l-27 10
46 54 c47 55 56 82 34 104 -24 24 -48 11 -115 -63z"/>
</g>
</svg>
