<?xml version="1.0" standalone="no"?>
<!DOCTYPE svg PUBLIC "-//W3C//DTD SVG 20010904//EN"
 "http://www.w3.org/TR/2001/REC-SVG-20010904/DTD/svg10.dtd">
<svg version="1.0" xmlns="http://www.w3.org/2000/svg"
 width="388.000000pt" height="388.000000pt" viewBox="0 0 388.000000 388.000000"
 preserveAspectRatio="xMidYMid meet">
<metadata>
Created by potrace 1.16, written by Peter Selinger 2001-2019
</metadata>
<g transform="translate(0.000000,388.000000) scale(0.100000,-0.100000)"
fill="#000000" stroke="none">
<path d="M1853 3808 c-6 -7 -99 -179 -208 -381 -158 -294 -197 -372 -188 -385
9 -15 36 -17 192 -20 l182 -2 -7 -23 c-4 -12 -47 -134 -95 -271 -49 -138 -89
-262 -89 -277 0 -26 15 -39 45 -39 7 0 172 170 367 378 464 495 431 457 424
487 l-6 25 -168 2 -167 3 218 227 c122 128 217 235 217 246 0 41 -10 42 -366
42 -261 0 -344 -3 -351 -12z m358 -298 c-122 -126 -221 -235 -221 -242 1 -39
16 -43 180 -48 l161 -5 -268 -287 c-147 -157 -269 -285 -270 -284 -1 1 29 91
67 199 73 206 80 241 54 251 -9 3 -90 6 -181 6 -90 0 -163 4 -161 8 2 5 79
149 172 320 l168 312 260 0 260 0 -221 -230z"/>
<path d="M902 2568 c-8 -8 -12 -57 -12 -155 l0 -143 -118 0 c-78 0 -122 -4
-130 -12 -9 -9 -12 -224 -12 -905 l0 -893 -84 0 c-120 0 -116 8 -116 -214 0
-142 3 -186 14 -195 10 -8 415 -10 1522 -9 l1509 3 3 194 c2 134 -1 198 -9
207 -8 10 -36 14 -95 14 l-84 0 0 889 c0 795 -2 891 -16 905 -12 13 -39 16
-130 16 l-114 0 0 143 c0 98 -4 147 -12 155 -17 17 -519 17 -536 0 -8 -8 -12
-57 -12 -155 l0 -143 -510 0 -510 0 0 129 c0 71 -4 141 -10 155 l-10 26 -258
0 c-187 0 -261 -3 -270 -12z m458 -183 l0 -115 -195 0 -195 0 0 115 0 115 195
0 195 0 0 -115z m1580 0 l0 -115 -190 0 -190 0 0 115 0 115 190 0 190 0 0
-115z m260 -1065 l0 -860 -1245 0 -1245 0 0 860 0 860 1245 0 1245 0 0 -860z
m200 -1075 l0 -125 -1440 0 -1440 0 0 125 0 125 1440 0 1440 0 0 -125z"/>
<path d="M1113 2080 c-92 -19 -181 -85 -225 -167 -78 -143 -52 -310 66 -421
73 -69 146 -95 251 -90 98 5 160 32 225 98 74 73 95 127 95 240 0 122 -23 178
-106 254 -83 77 -197 109 -306 86z m183 -104 c99 -46 164 -161 149 -265 -14
-101 -95 -193 -195 -221 -87 -24 -173 2 -244 73 -58 58 -76 104 -76 188 1 95
64 189 154 229 60 27 149 25 212 -4z"/>
<path d="M1157 1884 c-4 -4 -7 -29 -7 -56 l0 -48 -50 0 c-39 0 -52 -4 -60 -20
-20 -37 3 -60 60 -60 l49 0 3 -52 c3 -47 6 -53 26 -56 35 -5 52 15 52 64 l0
44 44 0 c49 0 69 17 64 52 -3 20 -9 23 -55 26 l-52 3 -3 52 c-3 50 -4 52 -33
55 -17 2 -34 0 -38 -4z"/>
<path d="M2645 2076 c-71 -18 -112 -41 -166 -97 -133 -136 -125 -359 18 -489
75 -69 144 -93 248 -88 93 5 149 27 219 89 126 111 142 330 35 466 -44 54
-115 100 -184 118 -69 18 -102 18 -170 1z m167 -88 c50 -15 122 -78 151 -132
32 -61 30 -164 -3 -230 -48 -95 -158 -156 -256 -142 -166 22 -270 180 -222
338 16 55 83 126 143 154 56 26 125 31 187 12z"/>
<path d="M2587 1774 c-13 -14 -7 -62 9 -68 9 -3 71 -6 139 -6 132 0 150 6 143
52 -3 23 -5 23 -144 26 -77 1 -143 -1 -147 -4z"/>
</g>
</svg>
