<?xml version="1.0" standalone="no"?>
<!DOCTYPE svg PUBLIC "-//W3C//DTD SVG 20010904//EN"
 "http://www.w3.org/TR/2001/REC-SVG-20010904/DTD/svg10.dtd">
<svg version="1.0" xmlns="http://www.w3.org/2000/svg"
 width="584.000000pt" height="438.000000pt" viewBox="0 0 584.000000 438.000000"
 preserveAspectRatio="xMidYMid meet">
<metadata>
Created by potrace 1.16, written by Peter Selinger 2001-2019
</metadata>
<g transform="translate(0.000000,438.000000) scale(0.100000,-0.100000)"
fill="#000000" stroke="none">
<path d="M4194 4285 c-14 -14 -33 -25 -43 -25 -10 0 -21 -9 -24 -20 -3 -11
-17 -24 -31 -30 -14 -5 -26 -16 -26 -23 0 -8 -11 -19 -25 -25 -14 -6 -25 -18
-25 -25 0 -8 -11 -19 -25 -25 -15 -7 -25 -20 -25 -32 0 -13 -7 -20 -20 -20
-12 0 -25 -10 -32 -25 -6 -14 -17 -25 -25 -25 -7 0 -18 -11 -23 -25 -6 -15
-17 -25 -29 -25 -12 0 -21 -9 -25 -24 -3 -14 -15 -28 -26 -31 -13 -4 -20 -15
-20 -31 0 -17 -6 -24 -19 -24 -25 0 -31 -19 -31 -91 l0 -59 -967 0 c-1137 0
-1311 -4 -1333 -29 -11 -13 -39 -20 -95 -25 -56 -5 -86 -13 -100 -26 -11 -10
-39 -21 -63 -25 -23 -4 -48 -15 -55 -24 -6 -10 -29 -21 -50 -25 -27 -5 -41
-14 -49 -32 -8 -17 -19 -24 -39 -24 -17 0 -35 -9 -47 -25 -11 -14 -29 -25 -40
-25 -14 0 -22 -8 -24 -22 -2 -17 -11 -24 -30 -26 -20 -2 -28 -9 -28 -23 0 -12
-10 -23 -25 -29 -14 -5 -25 -16 -25 -23 0 -8 -11 -19 -25 -25 -14 -7 -25 -20
-25 -31 0 -13 -8 -21 -22 -23 -12 -2 -28 -14 -35 -27 -6 -13 -19 -28 -27 -33
-9 -5 -16 -16 -16 -24 0 -8 -11 -24 -25 -36 -14 -12 -28 -36 -31 -55 -4 -23
-12 -33 -24 -33 -13 0 -19 -11 -24 -45 -5 -28 -14 -49 -25 -55 -11 -5 -21 -26
-25 -51 -4 -22 -18 -56 -31 -73 -17 -22 -25 -46 -25 -72 0 -75 -11 -114 -31
-114 -18 0 -19 -24 -19 -745 0 -730 0 -745 19 -745 16 0 21 -9 26 -43 6 -36
12 -45 36 -54 16 -6 29 -18 29 -27 0 -9 6 -16 13 -16 23 0 75 -29 81 -45 4
-12 26 -15 106 -15 l100 0 0 -147 c0 -136 2 -148 21 -169 12 -13 24 -37 28
-55 5 -24 13 -35 31 -39 16 -4 26 -14 28 -28 2 -16 10 -22 27 -22 13 0 37 -11
53 -25 28 -23 37 -25 135 -25 98 0 107 -2 121 -22 9 -12 16 -35 16 -50 0 -16
11 -38 25 -52 14 -14 25 -37 25 -51 0 -18 5 -25 20 -25 12 0 25 -10 31 -24 6
-13 22 -29 35 -35 13 -6 24 -17 24 -26 0 -8 8 -15 19 -15 10 0 32 -13 49 -30
19 -17 43 -30 58 -30 29 0 65 -17 77 -36 6 -11 41 -14 148 -14 129 0 142 2
157 20 10 12 35 23 57 27 22 3 45 11 50 17 17 19 63 46 80 46 8 0 15 9 15 20
0 12 9 22 24 26 13 3 28 16 35 30 6 13 17 24 25 24 8 0 16 14 20 33 3 18 15
39 26 47 12 8 22 31 26 58 5 34 12 46 31 53 29 11 1562 12 1579 1 7 -4 18 -27
25 -52 7 -25 16 -47 19 -50 14 -12 40 -61 40 -75 0 -8 7 -15 15 -15 9 0 20
-11 26 -24 6 -13 22 -29 35 -35 13 -6 24 -17 24 -26 0 -8 8 -15 18 -15 10 0
33 -13 52 -30 19 -16 45 -29 58 -30 25 0 59 -16 80 -37 10 -10 49 -13 151 -13
128 0 140 2 152 20 8 12 30 23 54 27 22 3 56 19 75 35 19 15 43 28 52 28 10 0
18 7 18 15 0 9 11 20 24 26 13 6 29 22 35 35 6 13 17 24 25 24 7 0 16 12 19
28 3 15 14 36 24 47 11 11 25 41 32 67 9 33 19 48 35 52 11 3 87 6 168 6 137
0 148 1 158 20 7 12 25 22 50 26 29 5 40 12 42 27 2 13 13 23 28 27 19 5 26
15 33 49 6 30 15 45 28 48 18 5 19 19 19 377 l0 371 -22 10 c-16 7 -24 20 -26
42 -2 20 -14 43 -33 60 -16 15 -29 35 -29 44 0 9 -9 19 -21 22 -11 3 -23 15
-26 26 -3 12 -11 21 -18 21 -18 0 -75 30 -75 40 0 4 -23 11 -50 15 -28 4 -56
12 -63 18 -30 28 -61 37 -126 37 -71 0 -120 12 -132 32 -4 7 -46 13 -96 16
-66 3 -100 10 -139 28 -40 19 -67 24 -128 24 -66 0 -82 4 -114 25 -20 14 -42
25 -50 25 -18 0 -82 66 -82 85 0 8 -11 20 -25 25 -14 6 -25 17 -25 28 0 11
-11 30 -24 43 -13 13 -26 35 -27 49 -3 17 -11 26 -26 28 -15 2 -23 10 -23 22
0 10 -8 25 -17 32 -22 16 -43 52 -43 72 0 8 -9 18 -20 21 -13 4 -23 18 -27 36
-4 20 -12 29 -24 29 -12 0 -19 7 -19 20 0 12 -10 25 -25 32 -14 6 -25 16 -25
22 0 16 -60 70 -85 76 -11 3 -21 16 -23 28 -3 18 -10 22 -42 22 -47 0 -70 8
-70 25 0 7 -14 15 -31 19 -17 3 -383 6 -812 6 l-780 0 -33 -25 c-18 -14 -42
-25 -54 -25 -11 0 -33 -12 -48 -26 -15 -14 -37 -30 -49 -35 -13 -4 -23 -15
-23 -22 0 -8 -10 -22 -21 -33 -12 -10 -28 -34 -36 -51 -7 -18 -20 -33 -28 -33
-8 0 -15 -9 -15 -19 0 -11 -14 -29 -30 -41 -17 -12 -30 -30 -30 -41 0 -11 -11
-31 -25 -45 -14 -14 -25 -33 -25 -44 0 -12 -8 -20 -22 -22 -15 -2 -24 -11 -26
-25 -2 -12 -17 -36 -33 -54 -16 -17 -29 -40 -29 -50 0 -11 -7 -19 -16 -19 -9
0 -21 -14 -27 -30 -6 -17 -19 -32 -28 -35 -9 -3 -19 -14 -22 -24 -2 -11 -17
-21 -36 -24 -18 -4 -44 -16 -58 -27 -21 -16 -41 -20 -107 -20 -72 0 -86 -3
-116 -25 -19 -14 -47 -25 -62 -25 -17 0 -40 -10 -56 -25 -15 -14 -37 -25 -49
-25 -15 0 -23 -7 -25 -22 -2 -13 -13 -27 -25 -33 -13 -5 -23 -17 -23 -26 0 -8
-13 -28 -30 -44 -17 -16 -30 -39 -30 -52 0 -13 -11 -41 -25 -61 -24 -35 -25
-44 -25 -179 l0 -143 -76 0 c-67 0 -76 2 -81 20 -3 11 -13 20 -23 20 -28 0
-30 81 -27 760 3 606 3 616 24 655 12 22 25 66 28 98 4 36 13 64 25 75 10 9
21 36 25 60 5 33 13 45 31 52 18 7 24 17 24 39 0 42 9 61 31 61 13 0 19 7 19
24 0 15 7 26 20 29 11 3 23 13 27 24 19 53 151 183 185 183 11 0 18 7 18 19 0
12 11 23 30 30 17 5 30 17 30 25 0 9 6 16 13 16 6 0 29 5 50 11 26 7 37 15 37
29 0 17 7 20 41 20 32 0 47 6 65 25 19 21 32 25 80 25 46 0 63 5 82 23 l24 22
1134 3 1134 2 0 -70 c0 -65 2 -71 25 -82 16 -7 25 -19 25 -35 0 -16 6 -23 20
-23 13 0 22 -9 26 -25 4 -16 13 -25 25 -25 10 0 19 -4 19 -10 0 -12 88 -100
100 -100 6 0 10 -9 10 -19 0 -12 9 -21 25 -25 16 -4 25 -13 25 -25 0 -12 9
-21 25 -25 16 -4 25 -13 25 -25 0 -13 8 -21 22 -23 13 -2 29 -15 36 -30 7 -16
20 -28 28 -28 8 0 28 -10 43 -21 28 -21 39 -21 327 -21 292 0 299 1 313 21 7
12 22 21 32 21 14 0 21 9 26 30 4 20 11 30 24 30 14 0 19 9 21 48 l3 47 258 3
257 2 0 105 0 105 -255 0 -255 0 0 305 0 305 255 0 255 0 0 105 0 105 -254 0
c-278 0 -266 -3 -266 60 0 19 -6 29 -19 33 -11 2 -21 15 -23 28 -2 16 -11 25
-25 27 -13 2 -23 7 -23 12 0 5 -7 16 -16 24 -13 14 -56 16 -315 16 l-300 0
-25 -25z m529 -181 c16 -5 17 -38 17 -515 l0 -509 -225 0 c-232 0 -269 5 -280
42 -4 10 -15 18 -25 18 -13 0 -22 9 -26 25 -4 16 -13 25 -25 25 -12 0 -21 9
-25 25 -4 16 -13 25 -25 25 -10 0 -19 5 -19 11 0 14 -85 99 -99 99 -6 0 -11 9
-11 19 0 12 -9 21 -25 25 -18 5 -25 14 -27 34 -6 97 -6 208 -1 280 5 76 7 83
29 88 15 4 24 14 24 25 0 11 9 21 25 25 13 3 27 14 30 24 3 11 15 22 25 25 10
3 22 15 25 25 3 10 15 22 25 25 10 3 22 15 25 25 3 10 15 22 26 25 10 4 19 13
19 20 0 8 13 21 29 30 16 8 32 24 36 34 5 16 17 21 63 23 105 6 397 7 415 2z
m-2033 -1994 l0 -250 -507 2 c-393 2 -507 6 -510 15 -3 7 7 17 21 23 14 5 28
20 32 34 3 13 14 26 24 29 12 3 21 18 26 42 4 25 13 39 26 43 11 3 21 17 25
33 4 20 12 29 24 29 11 0 19 7 19 16 0 9 14 33 30 54 17 21 30 45 30 54 0 9
11 21 25 26 15 6 25 17 25 30 0 13 9 22 25 26 13 3 27 15 30 25 6 18 21 19
331 19 l324 0 0 -250z m929 232 c5 -9 30 -23 55 -30 34 -9 46 -17 46 -31 0
-12 9 -21 25 -25 16 -4 25 -13 25 -26 0 -11 10 -31 23 -46 12 -14 24 -35 27
-47 4 -13 15 -23 28 -25 13 -2 22 -10 22 -21 0 -10 11 -30 25 -46 14 -15 29
-40 32 -56 3 -19 12 -29 23 -29 11 0 22 -12 29 -30 5 -16 17 -30 25 -30 9 0
16 -9 16 -20 0 -20 -7 -20 -560 -20 l-560 0 0 250 0 250 355 0 c329 0 355 -1
364 -18z m639 -701 c40 -4 76 -12 80 -18 8 -13 119 -32 186 -33 22 0 47 -7 58
-17 12 -11 50 -20 116 -27 53 -5 99 -13 102 -16 12 -15 51 -24 144 -35 69 -9
101 -17 107 -27 5 -9 30 -19 55 -23 31 -4 48 -12 51 -24 2 -9 14 -21 26 -26
12 -6 24 -19 26 -30 2 -11 12 -26 22 -33 18 -12 19 -31 19 -338 0 -317 0 -324
-20 -324 -13 0 -20 -7 -20 -20 0 -20 -5 -20 -132 -18 l-133 3 -3 40 c-2 22 -9
45 -16 50 -7 6 -19 34 -26 63 -8 28 -17 52 -21 52 -9 0 -39 58 -39 77 0 7 -9
13 -20 13 -13 0 -22 9 -26 25 -3 13 -15 27 -25 30 -10 4 -24 15 -29 26 -6 10
-17 19 -25 19 -7 0 -27 11 -43 25 -18 15 -49 28 -77 32 -35 4 -49 11 -53 25
-4 16 -17 18 -157 18 -141 0 -154 -2 -160 -19 -4 -13 -19 -20 -51 -25 -27 -3
-58 -16 -76 -31 -16 -14 -36 -25 -43 -25 -8 0 -19 -9 -25 -19 -5 -11 -19 -22
-29 -26 -10 -3 -22 -17 -25 -30 -4 -16 -13 -25 -26 -25 -13 0 -20 -7 -20 -20
0 -12 -6 -28 -12 -36 -7 -8 -18 -20 -23 -27 -6 -7 -17 -32 -24 -57 -7 -24 -22
-55 -32 -69 -10 -13 -19 -39 -19 -57 l0 -34 -767 2 -768 3 -3 40 c-2 23 -11
44 -21 52 -10 7 -21 30 -24 53 -3 22 -17 54 -31 71 -14 17 -26 40 -26 51 0 11
-8 22 -20 25 -11 3 -23 16 -26 28 -3 14 -16 26 -30 29 -13 4 -24 13 -24 20 0
8 -20 24 -45 36 -25 12 -45 26 -45 31 0 4 -23 11 -50 15 -35 5 -54 13 -61 25
-9 17 -23 19 -157 19 -133 0 -148 -2 -159 -19 -7 -10 -29 -21 -53 -25 -23 -4
-57 -18 -74 -31 -18 -14 -40 -25 -49 -25 -10 0 -17 -7 -17 -15 0 -9 -11 -20
-24 -26 -14 -7 -27 -22 -30 -35 -4 -13 -15 -24 -28 -26 -14 -2 -24 -13 -29
-32 -5 -16 -17 -38 -27 -50 -11 -11 -22 -38 -25 -59 -3 -20 -15 -49 -26 -64
-12 -14 -21 -41 -21 -59 l0 -34 -80 0 c-73 0 -80 2 -80 20 0 13 -7 20 -19 20
-16 0 -20 10 -25 73 -3 39 -4 209 -2 377 4 296 5 305 25 319 12 7 21 22 21 32
0 11 11 24 25 31 14 6 25 17 25 24 0 8 12 17 28 20 15 4 35 14 45 22 10 9 59
21 119 29 58 7 108 19 117 27 10 9 42 16 81 18 123 6 2745 4 2818 -1z m-2404
-736 c14 -14 34 -25 44 -25 11 0 27 -11 36 -25 9 -14 23 -25 31 -25 7 0 17 -9
20 -20 3 -11 15 -25 26 -30 11 -6 19 -21 19 -35 0 -14 3 -25 8 -25 4 0 15 -14
25 -31 13 -23 17 -53 17 -121 0 -82 -3 -94 -25 -124 -14 -18 -25 -42 -25 -54
0 -14 -8 -24 -20 -27 -11 -3 -23 -16 -26 -29 -4 -14 -14 -24 -24 -24 -10 0
-20 -7 -24 -15 -3 -8 -18 -21 -33 -27 -15 -7 -39 -20 -52 -30 -35 -27 -228
-26 -257 0 -11 10 -32 22 -48 26 -15 4 -30 15 -33 26 -3 10 -15 20 -27 22 -13
2 -22 11 -24 26 -2 14 -10 22 -22 22 -14 0 -21 10 -26 34 -3 19 -15 42 -25 52
-33 30 -23 274 11 274 4 0 10 13 13 29 4 18 14 32 27 36 11 3 20 15 20 26 0
12 7 19 20 19 13 0 24 10 30 25 6 16 17 25 31 25 12 0 34 11 51 25 27 23 37
25 133 25 98 0 106 -2 129 -25z m2664 0 c17 -14 39 -25 50 -25 11 0 22 -9 25
-21 3 -11 15 -23 26 -26 11 -3 23 -13 26 -23 3 -10 17 -25 30 -34 14 -9 25
-24 25 -34 0 -9 9 -30 20 -47 28 -43 29 -210 2 -246 -11 -13 -22 -37 -26 -53
-4 -16 -15 -30 -27 -33 -10 -3 -22 -16 -25 -29 -4 -14 -14 -24 -24 -24 -10 0
-22 -9 -25 -20 -4 -12 -18 -23 -35 -27 -16 -3 -37 -14 -46 -24 -15 -16 -32
-19 -129 -19 -97 0 -114 3 -129 19 -9 10 -30 21 -46 24 -17 4 -31 15 -35 27
-3 11 -15 20 -26 20 -12 0 -19 7 -19 20 0 13 -10 24 -25 30 -15 6 -27 20 -31
37 -4 15 -15 39 -26 52 -25 33 -27 221 -2 245 9 9 20 31 25 50 6 21 17 36 30
39 11 3 23 14 26 25 3 11 14 22 25 25 11 3 22 15 25 26 3 12 14 21 25 21 11 0
33 11 50 25 27 23 37 25 133 25 96 0 106 -2 133 -25z"/>
</g>
</svg>
