<?xml version="1.0" standalone="no"?>
<!DOCTYPE svg PUBLIC "-//W3C//DTD SVG 20010904//EN"
 "http://www.w3.org/TR/2001/REC-SVG-20010904/DTD/svg10.dtd">
<svg version="1.0" xmlns="http://www.w3.org/2000/svg"
 width="396.000000pt" height="396.000000pt" viewBox="0 0 396.000000 396.000000"
 preserveAspectRatio="xMidYMid meet">
<metadata>
Created by potrace 1.16, written by Peter Selinger 2001-2019
</metadata>
<g transform="translate(0.000000,396.000000) scale(0.100000,-0.100000)"
fill="#000000" stroke="none">
<path d="M880 3852 c-19 -9 -45 -32 -57 -51 l-23 -34 0 -1517 0 -1517 -35 -6
c-87 -14 -125 -74 -125 -196 0 -80 0 -81 -25 -81 -43 0 -94 -27 -115 -62 -16
-27 -20 -50 -20 -130 0 -90 2 -99 27 -129 53 -63 -37 -59 1473 -59 1497 0
1417 -3 1470 54 23 25 25 37 28 127 3 86 1 103 -17 133 -23 37 -74 66 -115 66
-26 0 -26 0 -26 81 0 122 -38 182 -125 196 l-35 6 0 943 0 944 70 0 c82 0 118
15 152 62 23 33 23 36 23 308 0 246 -2 278 -18 308 -29 52 -70 72 -154 72
l-73 0 0 199 c0 189 -1 200 -23 232 -49 74 31 69 -1157 69 -994 0 -1067 -1
-1100 -18z m2170 -111 c7 -13 10 -503 10 -1515 l0 -1496 -1080 0 -1080 0 0
1496 c0 1012 3 1502 10 1515 10 19 33 19 1070 19 1037 0 1060 0 1070 -19z
m234 -487 c14 -13 16 -51 16 -264 0 -279 2 -270 -74 -270 -65 0 -66 4 -66 272
0 211 2 244 17 260 20 23 85 24 107 2z m-86 -2646 c7 -7 12 -42 12 -85 l0 -73
-1230 0 -1230 0 0 73 c0 43 5 78 12 85 17 17 2419 17 2436 0z m164 -275 c13
-12 18 -31 18 -74 0 -48 -4 -60 -22 -73 -20 -14 -167 -16 -1378 -16 -1542 0
-1400 -9 -1400 87 0 104 -159 93 1398 93 1257 0 1367 -1 1384 -17z"/>
<path d="M1068 3609 c-17 -9 -18 -42 -18 -467 0 -343 3 -461 12 -470 17 -17
1819 -17 1836 0 9 9 12 127 12 470 0 442 -1 458 -19 468 -27 14 -1799 13
-1823 -1z m1742 -474 l0 -375 -830 0 -830 0 0 375 0 375 830 0 830 0 0 -375z"/>
<path d="M1844 2360 c-308 -56 -557 -301 -620 -610 -20 -99 -15 -259 11 -355
70 -256 284 -470 545 -541 91 -25 309 -25 400 0 261 71 475 285 545 541 26 96
31 256 11 355 -56 275 -248 491 -516 580 -79 27 -112 33 -210 36 -63 1 -138
-1 -166 -6z m301 -117 c226 -56 420 -251 481 -483 22 -85 22 -235 0 -320 -61
-236 -251 -426 -486 -487 -85 -22 -235 -22 -320 0 -237 62 -424 249 -486 487
-22 85 -22 235 0 320 53 199 205 375 392 453 134 56 275 66 419 30z"/>
<path d="M1976 2160 c-109 -21 -204 -44 -211 -51 -12 -13 -135 -590 -135 -631
0 -10 10 -24 23 -32 19 -13 31 -13 96 -1 41 8 76 13 78 11 2 -2 -19 -90 -46
-196 -28 -106 -51 -202 -51 -215 0 -30 22 -47 57 -43 24 3 57 48 285 393 141
215 257 400 258 412 0 28 -25 53 -53 53 -12 -1 -51 -7 -87 -15 -36 -8 -71 -14
-78 -15 -7 0 20 64 63 150 41 82 75 158 75 168 0 24 -31 52 -56 51 -10 -1
-108 -18 -218 -39z m49 -240 c-41 -82 -75 -159 -75 -170 0 -11 10 -26 23 -35
21 -13 32 -13 102 0 43 8 79 14 81 12 1 -1 -49 -82 -113 -180 -64 -98 -117
-176 -119 -175 -1 2 7 41 18 87 l21 83 -21 20 c-21 21 -23 21 -107 6 l-86 -15
7 31 c4 17 26 123 49 236 l41 205 105 21 c168 35 161 47 74 -126z"/>
</g>
</svg>
