<?xml version="1.0" standalone="no"?>
<!DOCTYPE svg PUBLIC "-//W3C//DTD SVG 20010904//EN"
 "http://www.w3.org/TR/2001/REC-SVG-20010904/DTD/svg10.dtd">
<svg version="1.0" xmlns="http://www.w3.org/2000/svg"
 width="350.000000pt" height="350.000000pt" viewBox="0 0 350.000000 350.000000"
 preserveAspectRatio="xMidYMid meet">
<metadata>
Created by potrace 1.16, written by Peter Selinger 2001-2019
</metadata>
<g transform="translate(0.000000,350.000000) scale(0.100000,-0.100000)"
fill="#000000" stroke="none">
<path d="M355 3359 c-17 -4 -41 -18 -54 -30 -53 -50 -51 20 -51 -1492 l0
-1404 -65 -5 c-36 -3 -76 -13 -90 -22 -39 -26 -65 -75 -65 -124 0 -54 20 -94
62 -124 l33 -23 1137 0 c1132 0 1137 0 1164 21 50 37 68 70 68 124 0 88 -55
139 -158 147 l-66 6 0 277 0 278 188 4 c222 6 279 20 397 99 156 105 253 284
255 474 l1 50 68 32 c117 56 222 184 270 330 27 80 27 145 0 200 -24 49 -61
73 -114 73 l-35 0 0 99 c0 84 -3 102 -20 124 -41 52 -136 44 -165 -14 -10 -18
-15 -59 -15 -119 l0 -90 -89 0 -89 0 -4 101 c-3 100 -3 101 -37 131 -29 26
-39 30 -75 25 -27 -4 -49 -15 -63 -32 -21 -23 -23 -37 -23 -126 l0 -99 -37 0
c-88 0 -138 -69 -131 -179 12 -172 163 -385 311 -439 47 -17 47 -17 47 -63 0
-116 -69 -242 -170 -311 -79 -54 -146 -68 -322 -68 l-148 0 0 1038 c0 1010 -1
1038 -20 1069 -10 18 -31 40 -47 50 -26 17 -78 18 -923 20 -501 1 -908 -3
-925 -8z m1625 -1609 l0 -1320 -715 0 -715 0 0 1320 0 1320 715 0 715 0 0
-1320z"/>
<path d="M785 2796 c-14 -21 -15 -65 -13 -326 3 -285 4 -302 22 -316 16 -12
97 -14 466 -14 387 0 448 2 468 16 22 15 22 16 22 320 0 191 -4 313 -10 325
-10 18 -26 19 -475 19 l-465 0 -15 -24z"/>
<path d="M1270 1718 c-35 -19 -288 -356 -296 -394 -6 -32 14 -85 38 -101 7 -4
65 -10 129 -13 l117 -5 -65 -90 c-85 -117 -97 -146 -83 -191 6 -19 21 -41 33
-49 30 -21 89 -19 120 5 14 11 84 103 156 204 116 163 131 188 131 224 0 29
-7 49 -24 69 -23 27 -29 28 -135 33 l-112 5 66 89 c53 72 65 95 65 126 0 72
-77 120 -140 88z"/>
</g>
</svg>
