<?xml version="1.0" standalone="no"?>
<!DOCTYPE svg PUBLIC "-//W3C//DTD SVG 20010904//EN"
 "http://www.w3.org/TR/2001/REC-SVG-20010904/DTD/svg10.dtd">
<svg version="1.0" xmlns="http://www.w3.org/2000/svg"
 width="486.000000pt" height="486.000000pt" viewBox="0 0 486.000000 486.000000"
 preserveAspectRatio="xMidYMid meet">
<metadata>
Created by potrace 1.16, written by Peter Selinger 2001-2019
</metadata>
<g transform="translate(0.000000,486.000000) scale(0.100000,-0.100000)"
fill="#000000" stroke="none">
<path d="M607 4799 c-25 -14 -47 -63 -47 -102 0 -82 -52 -190 -195 -401 -229
-340 -293 -554 -235 -780 27 -105 63 -169 141 -247 223 -224 616 -224 838 0
214 216 245 494 90 804 -66 131 -89 157 -145 157 -34 0 -47 -5 -67 -29 l-25
-30 -7 92 c-15 192 -86 371 -192 485 -53 56 -62 62 -98 62 -22 0 -48 -5 -58
-11z m131 -306 c42 -91 53 -145 61 -293 8 -143 24 -190 80 -227 43 -29 104
-30 149 -3 18 11 34 20 36 20 9 0 55 -131 66 -188 22 -109 -2 -238 -62 -332
l-22 -35 -8 60 c-19 142 -91 275 -150 275 -12 0 -19 14 -28 53 -15 73 -60 165
-102 210 -30 31 -42 37 -77 37 -50 0 -77 -24 -86 -77 -12 -69 -26 -102 -76
-179 -107 -164 -137 -234 -148 -349 l-6 -70 -28 40 c-38 55 -67 155 -67 229 0
150 64 299 243 564 70 103 128 202 148 251 18 45 36 81 39 81 4 0 21 -30 38
-67z m-26 -780 c7 -119 44 -168 123 -166 38 1 45 -12 45 -87 -1 -157 -168
-255 -285 -166 -101 77 -90 201 35 396 33 52 60 98 60 102 0 5 4 7 9 4 4 -3
10 -41 13 -83z"/>
<path d="M2236 4800 c-64 -12 -90 -58 -65 -113 16 -34 51 -48 104 -40 53 7 85
39 85 84 0 28 -30 69 -49 69 -5 0 -15 2 -23 4 -7 2 -31 0 -52 -4z"/>
<path d="M2480 4790 c-24 -24 -26 -77 -4 -108 13 -19 24 -22 79 -22 55 0 66 3
79 22 22 31 20 84 -4 108 -15 15 -33 20 -75 20 -42 0 -60 -5 -75 -20z"/>
<path d="M3835 4797 c-186 -62 -279 -210 -215 -341 11 -23 61 -88 111 -145
l91 -104 -21 -20 -20 -20 -78 35 c-142 65 -252 73 -357 25 -183 -84 -241 -325
-124 -510 84 -132 214 -172 322 -98 22 16 81 65 130 109 l90 80 19 -25 20 -24
-36 -77 c-48 -102 -61 -160 -54 -238 11 -138 101 -254 225 -290 202 -59 442
79 442 254 0 73 -14 99 -125 227 l-94 110 21 22 21 22 70 -35 c87 -44 193 -68
264 -59 125 15 236 107 269 223 36 124 -3 285 -90 374 -47 48 -85 68 -145 75
-67 8 -121 -19 -228 -113 -48 -42 -96 -84 -106 -93 -16 -13 -20 -13 -38 5 -19
20 -19 20 15 95 47 102 59 157 54 242 -8 123 -70 222 -172 275 -61 31 -195 41
-261 19z m203 -172 c16 -10 40 -36 52 -58 30 -53 25 -149 -14 -224 -26 -52
-27 -53 -70 -53 -42 0 -44 1 -144 117 -56 64 -102 124 -102 132 0 43 70 97
142 109 50 9 93 2 136 -23z m551 -431 c13 -9 34 -40 47 -68 48 -104 22 -207
-66 -254 -56 -29 -118 -26 -202 11 l-58 26 0 53 0 53 71 60 c177 151 169 146
208 119z m-974 -128 l55 -25 0 -54 c0 -46 -4 -57 -22 -70 -13 -8 -63 -51 -112
-96 -50 -45 -97 -81 -107 -81 -20 0 -65 44 -86 84 -8 16 -17 54 -20 85 -4 46
0 64 19 100 49 92 151 113 273 57z m420 20 c63 -27 92 -104 61 -165 -44 -84
-169 -84 -214 0 -17 32 -9 104 14 131 19 21 69 47 92 48 7 0 28 -6 47 -14z
m38 -484 c26 -31 71 -85 101 -120 60 -71 62 -87 12 -129 -45 -38 -88 -53 -149
-53 -60 0 -104 23 -141 73 -32 44 -29 153 6 230 l27 57 48 0 c46 0 50 -2 96
-58z"/>
<path d="M2770 4762 c-29 -24 -30 -86 -2 -115 31 -30 119 -36 152 -9 35 28 34
86 -4 118 -34 30 -112 33 -146 6z"/>
<path d="M1930 4753 c-53 -20 -69 -94 -29 -134 18 -18 30 -21 71 -17 63 6 92
33 92 84 0 47 -31 74 -83 73 -20 0 -43 -3 -51 -6z"/>
<path d="M3056 4697 c-50 -50 -27 -116 48 -137 54 -15 95 1 110 41 20 59 -17
106 -93 116 -33 5 -44 1 -65 -20z"/>
<path d="M1644 4666 c-61 -27 -66 -105 -9 -142 22 -14 31 -15 70 -4 56 16 79
41 79 87 0 64 -65 91 -140 59z"/>
<path d="M3339 4610 c-28 -17 -43 -66 -30 -98 19 -45 111 -79 147 -54 6 4 10
35 9 72 -2 61 -4 65 -31 77 -35 15 -73 16 -95 3z"/>
<path d="M1395 4555 c-62 -32 -82 -86 -50 -132 23 -33 66 -38 114 -14 22 12
45 30 51 40 39 74 -39 146 -115 106z"/>
<path d="M4395 3625 c-75 -74 46 -217 123 -145 26 25 29 77 7 120 -28 55 -89
67 -130 25z"/>
<path d="M2315 3573 c-72 -38 -97 -80 -104 -181 l-6 -73 -88 -35 -88 -35 -50
45 c-105 94 -194 88 -309 -20 -81 -77 -110 -130 -110 -203 0 -61 23 -111 74
-160 l35 -34 -18 -36 c-10 -20 -26 -60 -35 -88 l-18 -53 -61 0 c-105 -1 -183
-53 -207 -138 -13 -49 -13 -197 1 -247 14 -51 73 -110 124 -124 22 -6 63 -11
91 -11 l51 0 13 -42 c7 -24 23 -64 36 -89 l23 -46 -41 -39 c-50 -48 -68 -89
-68 -154 0 -69 24 -111 112 -197 81 -78 131 -100 197 -88 50 9 80 27 124 73
l39 40 73 -34 c41 -19 81 -34 89 -34 13 0 16 -12 16 -63 0 -79 33 -151 87
-187 32 -22 49 -25 147 -28 118 -4 167 5 210 39 40 32 59 77 65 157 l6 73 88
35 88 35 50 -45 c103 -93 194 -87 307 18 140 132 157 238 54 348 l-44 47 35
88 36 88 68 6 c75 6 114 23 155 66 40 42 48 74 48 193 0 119 -8 151 -48 193
-41 43 -80 60 -155 66 l-68 6 -35 88 -36 88 45 48 c102 109 85 216 -55 347
-113 105 -204 111 -307 18 l-50 -45 -88 35 -88 35 -5 73 c-7 101 -33 144 -107
182 -45 23 -255 22 -298 -1z m245 -251 c5 -97 7 -105 32 -127 15 -13 45 -26
67 -30 23 -4 85 -29 138 -56 54 -27 109 -49 122 -49 15 0 47 23 95 70 40 39
76 70 80 70 15 0 126 -114 126 -129 0 -9 -29 -46 -65 -81 -80 -79 -81 -93 -22
-210 23 -47 49 -111 56 -143 20 -83 34 -91 154 -97 l102 -5 0 -95 0 -95 -101
-3 c-122 -3 -126 -6 -164 -127 -15 -46 -42 -109 -59 -139 -48 -85 -43 -109 34
-186 36 -35 65 -71 65 -79 0 -17 -108 -131 -124 -131 -5 0 -42 32 -82 70 -44
43 -80 70 -93 70 -12 0 -54 -18 -94 -39 -40 -22 -106 -49 -147 -61 -103 -30
-110 -41 -110 -155 0 -67 -4 -96 -14 -104 -9 -8 -45 -11 -98 -9 l-83 3 -5 100
c-3 55 -9 107 -14 117 -8 17 -28 26 -116 53 -30 10 -88 35 -128 56 -41 21 -85
39 -99 39 -18 0 -47 -21 -100 -72 l-74 -73 -66 68 -66 68 66 67 c36 37 69 79
72 94 5 21 -3 47 -32 105 -45 88 -57 119 -73 181 -19 72 -36 82 -143 82 -59 0
-97 4 -105 12 -16 16 -16 160 0 176 8 8 46 12 105 12 107 0 124 10 143 82 16
62 28 93 73 181 29 58 37 84 32 104 -3 14 -36 57 -71 94 -55 56 -64 70 -56 86
14 26 108 113 123 113 6 0 41 -29 77 -64 37 -35 77 -67 89 -70 15 -5 44 5 98
33 42 23 109 50 148 62 105 31 117 47 117 163 0 51 3 96 7 100 4 4 46 5 93 4
l85 -3 5 -103z"/>
<path d="M2353 2875 c-177 -48 -305 -189 -333 -367 -46 -297 213 -557 510
-511 149 23 269 113 338 252 36 73 37 77 37 191 0 114 -1 117 -38 193 -97 197
-310 297 -514 242z m249 -182 c91 -51 151 -151 151 -253 0 -184 -185 -328
-360 -281 -145 39 -243 193 -213 336 20 98 108 195 204 225 59 18 159 6 218
-27z"/>
<path d="M4533 3375 c-45 -31 -34 -148 16 -175 55 -29 121 4 121 60 0 93 -76
157 -137 115z"/>
<path d="M4616 3099 c-29 -23 -35 -71 -15 -128 13 -37 35 -51 82 -51 35 0 60
19 71 56 8 28 -18 112 -41 130 -26 20 -66 17 -97 -7z"/>
<path d="M203 2990 c-28 -11 -39 -33 -48 -90 -5 -38 -3 -50 15 -73 29 -37 90
-38 118 -2 43 55 36 141 -14 164 -29 13 -41 13 -71 1z"/>
<path d="M4700 2823 c-38 -14 -50 -36 -50 -88 0 -71 26 -105 80 -105 30 0 43
6 60 28 18 23 21 35 15 77 -3 28 -14 58 -23 67 -19 19 -60 30 -82 21z"/>
<path d="M143 2681 c-39 -37 -38 -128 2 -161 26 -21 86 -16 107 10 26 32 25
123 -2 150 -26 26 -80 26 -107 1z"/>
<path d="M4715 2521 c-36 -15 -49 -41 -49 -97 0 -68 25 -98 80 -98 51 0 74 30
74 99 0 77 -47 120 -105 96z"/>
<path d="M154 2398 c-42 -20 -57 -94 -29 -147 24 -46 74 -55 119 -20 22 17 26
28 26 69 0 63 -6 78 -41 95 -32 17 -46 18 -75 3z"/>
<path d="M4672 2212 c-25 -25 -36 -106 -19 -140 23 -50 102 -55 132 -8 24 36
24 119 1 145 -25 27 -88 29 -114 3z"/>
<path d="M177 2108 c-40 -31 -39 -136 3 -170 49 -40 130 -3 130 59 0 47 -20
102 -40 113 -26 14 -73 13 -93 -2z"/>
<path d="M4628 1930 c-27 -21 -48 -73 -48 -121 0 -65 101 -93 142 -39 28 39
35 120 12 148 -28 33 -73 38 -106 12z"/>
<path d="M231 1804 c-27 -34 -26 -59 2 -114 20 -42 25 -45 66 -48 56 -4 81 17
81 68 0 49 -18 98 -40 110 -36 20 -87 12 -109 -16z"/>
<path d="M805 1755 c-23 -22 -25 -32 -25 -110 l0 -86 -50 60 c-46 56 -54 61
-90 61 -50 0 -80 -27 -80 -73 0 -26 20 -57 110 -167 l109 -135 1 -112 0 -112
-102 61 c-57 33 -111 68 -120 77 -9 9 -38 70 -63 136 -27 69 -58 130 -72 143
-42 39 -101 26 -123 -27 -10 -26 -10 -37 4 -71 17 -43 12 -49 -20 -25 -10 8
-36 15 -56 15 -47 0 -78 -30 -78 -77 0 -38 21 -63 82 -95 l43 -22 -79 -8 c-96
-9 -116 -24 -116 -83 0 -70 19 -79 142 -72 57 4 146 9 198 13 l95 5 108 -64
109 -64 -114 -66 -113 -66 -150 14 c-196 19 -192 19 -220 -10 -56 -55 -15
-135 69 -135 25 0 47 -4 50 -8 3 -5 -13 -19 -36 -32 -60 -33 -78 -55 -78 -93
0 -41 35 -77 75 -77 16 0 53 14 83 31 30 17 56 28 58 26 2 -2 -3 -20 -11 -40
-21 -50 -19 -93 5 -117 26 -26 83 -27 108 -2 11 11 45 84 76 163 l58 145 86
49 c47 28 89 52 94 53 4 2 8 -49 8 -113 l0 -116 -110 -136 c-89 -110 -110
-141 -110 -167 0 -42 35 -76 79 -76 34 0 60 20 114 90 l27 35 0 -81 c0 -71 3
-83 23 -102 34 -32 89 -30 116 4 17 22 21 41 21 101 l0 75 45 -56 c26 -31 57
-59 72 -62 57 -15 113 35 100 88 -4 14 -54 84 -112 156 l-106 130 3 135 3 135
118 -71 119 -72 60 -150 c33 -82 69 -158 80 -167 29 -26 74 -23 103 7 30 29
31 59 5 121 -11 26 -19 48 -18 50 2 1 28 -13 58 -31 93 -58 160 -41 160 40 0
47 -12 61 -83 100 -20 11 -37 23 -37 27 0 5 23 8 50 8 41 0 56 5 76 25 34 34
30 90 -7 117 -25 19 -31 19 -195 4 l-169 -15 -103 61 c-56 33 -104 64 -107 68
-3 4 43 36 102 70 l107 62 172 -12 c156 -12 175 -12 197 3 36 23 44 72 20 105
-22 30 -49 40 -113 41 l-45 1 55 33 c61 37 83 69 74 107 -16 67 -75 78 -160
29 l-54 -31 20 53 c33 82 7 139 -61 139 -45 0 -67 -30 -128 -180 l-59 -145
-117 -72 c-64 -40 -119 -73 -121 -73 -2 0 -4 58 -4 128 l0 128 77 94 c158 195
162 203 122 254 -15 20 -29 26 -57 26 -45 0 -47 -2 -97 -64 l-40 -49 -5 87
c-5 77 -9 91 -29 107 -32 27 -77 24 -106 -6z"/>
<path d="M4196 1757 c-12 -13 -33 -55 -45 -95 -32 -106 -74 -194 -196 -407
-169 -295 -227 -443 -241 -614 -23 -277 144 -499 419 -558 85 -18 245 -13 319
11 137 43 260 140 311 247 60 124 74 288 37 435 -26 101 -124 299 -240 484
-104 164 -169 289 -194 370 -10 30 -24 71 -33 91 -25 60 -95 78 -137 36z m226
-582 c60 -92 154 -256 174 -303 80 -187 89 -323 28 -449 -85 -176 -347 -249
-550 -154 -131 61 -195 154 -202 296 -8 150 43 294 200 569 50 89 112 200 136
249 l45 87 62 -112 c34 -62 82 -144 107 -183z"/>
<path d="M4303 920 c-25 -10 -43 -39 -43 -68 0 -11 15 -51 32 -88 29 -61 33
-79 33 -154 -1 -47 -4 -102 -9 -122 -7 -32 -5 -40 17 -62 52 -52 117 -26 142
56 31 105 14 238 -45 366 -35 75 -70 95 -127 72z"/>
<path d="M4538 1644 c-16 -8 -28 -17 -28 -20 0 -12 71 -143 80 -149 17 -10 45
21 60 65 16 48 1 92 -36 109 -32 14 -43 14 -76 -5z"/>
<path d="M3333 405 c-56 -24 -72 -94 -30 -133 28 -26 64 -28 111 -6 58 28 73
88 31 129 -27 28 -64 31 -112 10z"/>
<path d="M1651 334 c-24 -13 -52 -24 -63 -24 -20 0 -23 -21 -7 -52 13 -23 67
-48 107 -48 61 0 96 86 52 130 -25 25 -34 24 -89 -6z"/>
<path d="M3063 309 c-44 -13 -67 -49 -59 -94 12 -61 61 -79 135 -49 51 20 71
67 47 112 -22 43 -54 51 -123 31z"/>
<path d="M1876 267 c-34 -34 -34 -79 -1 -112 20 -21 34 -25 79 -25 47 0 57 4
75 26 46 58 10 119 -76 130 -47 6 -54 4 -77 -19z"/>
<path d="M2735 225 c-52 -51 -15 -135 59 -135 98 0 147 68 95 134 -18 22 -28
26 -75 26 -45 0 -59 -4 -79 -25z"/>
<path d="M2159 221 c-18 -14 -24 -29 -24 -61 0 -57 29 -80 99 -80 42 0 57 5
74 23 23 25 28 66 12 97 -21 39 -122 53 -161 21z"/>
<path d="M2440 193 c-16 -20 -20 -36 -16 -57 10 -50 33 -66 91 -66 68 0 99 23
99 73 0 56 -26 77 -95 77 -51 0 -60 -3 -79 -27z"/>
</g>
</svg>
