<?xml version="1.0" standalone="no"?>
<!DOCTYPE svg PUBLIC "-//W3C//DTD SVG 20010904//EN"
 "http://www.w3.org/TR/2001/REC-SVG-20010904/DTD/svg10.dtd">
<svg version="1.0" xmlns="http://www.w3.org/2000/svg"
 width="340.000000pt" height="255.000000pt" viewBox="0 0 340.000000 255.000000"
 preserveAspectRatio="xMidYMid meet">
<metadata>
Created by potrace 1.16, written by Peter Selinger 2001-2019
</metadata>
<g transform="translate(0.000000,255.000000) scale(0.100000,-0.100000)"
fill="#000000" stroke="none">
<path d="M160 1635 l0 -905 50 0 50 0 0 855 0 855 75 0 75 0 0 -990 c0 -545
-3 -990 -6 -990 -4 0 -38 23 -76 52 -56 41 -79 52 -119 56 l-49 5 0 -50 c0
-47 2 -51 28 -56 16 -3 55 -26 89 -51 75 -57 100 -66 174 -66 67 0 111 18 178
74 48 41 100 54 139 36 15 -6 50 -29 77 -50 64 -50 93 -60 166 -60 67 0 111
18 178 74 48 41 100 54 139 36 15 -6 50 -29 77 -50 64 -50 93 -60 166 -60 67
0 111 18 178 74 45 37 94 53 133 41 12 -4 48 -27 78 -51 69 -54 96 -64 171
-64 68 0 98 13 178 74 46 34 62 41 101 41 36 0 55 -6 81 -28 89 -72 109 -82
184 -85 82 -5 106 5 194 72 46 34 62 41 101 41 36 0 55 -6 81 -28 70 -57 106
-77 152 -86 l47 -8 0 52 c0 50 -2 54 -27 60 -16 3 -57 28 -93 55 -36 28 -80
53 -97 56 l-33 6 0 934 0 934 75 0 75 0 0 -905 0 -905 50 0 50 0 0 955 0 955
-180 0 -180 0 0 -988 0 -988 -67 -46 c-38 -25 -78 -51 -90 -57 -29 -15 -73
-14 -78 2 -3 6 -36 196 -75 422 -39 226 -73 422 -76 438 l-6 27 121 0 121 0 0
50 0 50 -129 0 -129 0 -7 37 c-10 52 -28 85 -69 121 -109 96 -268 46 -316
-100 -15 -48 -20 -53 -48 -56 l-32 -3 0 175 0 176 270 0 270 0 0 -135 0 -135
50 0 50 0 0 185 0 185 -370 0 -370 0 0 -225 0 -225 -45 0 -45 0 0 -55 0 -55
121 0 c110 0 120 -2 115 -17 -2 -10 -33 -183 -67 -385 l-63 -366 -81 -4 c-86
-3 -76 1 -204 -87 -65 -46 -144 -37 -158 18 -4 14 -39 210 -78 436 l-71 410
123 3 123 3 0 49 0 50 -45 0 -45 0 0 225 0 225 -370 0 -370 0 0 -185 0 -185
50 0 50 0 0 135 0 135 265 0 265 0 0 -175 0 -175 -24 0 c-28 0 -41 14 -50 55
-32 135 -202 194 -314 108 -33 -25 -66 -83 -77 -135 l-5 -28 -125 0 -125 0 0
-55 0 -55 115 0 c63 0 115 -3 115 -7 0 -8 -117 -693 -126 -736 -5 -24 -10 -27
-49 -27 -57 0 -88 -13 -152 -61 l-53 -40 0 1036 0 1035 -175 0 -175 0 0 -905z
m1000 -100 c17 -9 33 -28 39 -47 6 -18 42 -220 81 -448 39 -228 73 -427 76
-443 l6 -27 -74 0 c-64 0 -79 -4 -115 -27 -22 -16 -62 -43 -89 -60 -72 -49
-113 -44 -188 25 -27 24 -35 38 -31 55 3 12 39 220 80 462 42 242 80 453 87
468 21 54 72 71 128 42z m1168 -1 c12 -8 27 -24 33 -35 11 -22 171 -940 164
-947 -2 -2 -18 1 -36 7 -18 6 -59 11 -93 11 -66 0 -95 -13 -172 -76 -49 -40
-89 -50 -138 -34 -72 24 -73 3 19 531 46 263 86 486 90 498 16 52 88 76 133
45z"/>
<path d="M590 2215 l0 -45 1110 0 1110 0 0 45 0 45 -1110 0 -1110 0 0 -45z"/>
<path d="M789 217 c-20 -8 -63 -35 -96 -60 -33 -26 -66 -47 -74 -47 -26 0 -39
-23 -39 -67 0 -38 3 -43 23 -43 45 0 91 20 149 65 32 26 71 50 86 55 38 10 92
-9 139 -50 73 -64 163 -86 244 -59 19 7 63 34 98 60 89 69 138 68 220 -4 77
-66 176 -85 258 -48 23 11 65 38 93 60 77 61 126 58 216 -15 110 -90 217 -86
344 15 77 61 126 58 216 -15 47 -39 102 -64 139 -64 25 0 26 2 23 52 -3 47 -5
52 -31 59 -16 4 -48 24 -72 44 -85 69 -167 90 -246 64 -19 -7 -63 -33 -99 -60
-93 -68 -133 -69 -210 -8 -131 103 -217 105 -350 9 -36 -26 -75 -50 -88 -53
-35 -8 -85 10 -129 48 -113 97 -218 99 -339 9 -101 -76 -144 -77 -225 -7 -19
17 -49 38 -68 48 -45 23 -136 29 -182 12z"/>
</g>
</svg>
