<?xml version="1.0" standalone="no"?>
<!DOCTYPE svg PUBLIC "-//W3C//DTD SVG 20010904//EN"
 "http://www.w3.org/TR/2001/REC-SVG-20010904/DTD/svg10.dtd">
<svg version="1.0" xmlns="http://www.w3.org/2000/svg"
 width="227.000000pt" height="227.000000pt" viewBox="0 0 227.000000 227.000000"
 preserveAspectRatio="xMidYMid meet">
<metadata>
Created by potrace 1.16, written by Peter Selinger 2001-2019
</metadata>
<g transform="translate(0.000000,227.000000) scale(0.100000,-0.100000)"
fill="#000000" stroke="none">
<path d="M1005 2190 c-380 -50 -668 -400 -642 -779 18 -260 154 -476 385 -613
l57 -33 6 -58 c4 -36 15 -70 28 -87 18 -25 21 -43 21 -130 0 -115 13 -157 58
-190 19 -14 33 -35 37 -56 18 -97 141 -154 224 -103 47 29 56 39 72 84 7 22
31 59 53 83 l41 43 5 123 c4 101 8 128 23 144 10 11 22 46 26 78 9 63 11 66
116 134 176 114 299 306 329 515 7 50 -6 75 -31 59 -11 -7 -22 -35 -29 -76
-14 -75 -63 -199 -103 -258 -46 -68 -131 -149 -218 -206 -95 -63 -113 -86
-121 -152 -3 -26 -10 -50 -16 -54 -6 -4 -50 -8 -98 -8 l-88 0 -1 223 c-1 122
-1 229 0 237 1 8 12 23 24 34 18 15 30 17 67 11 25 -4 83 -8 129 -9 70 -1 86
2 95 17 17 27 -9 37 -79 30 -48 -4 -63 -2 -74 10 -11 14 -6 19 36 41 128 68
178 102 178 121 0 35 -32 27 -141 -35 -59 -33 -109 -58 -111 -56 -14 13 14 70
53 109 48 49 130 87 186 87 44 0 106 -20 112 -37 8 -19 -26 -104 -59 -147 -45
-60 -10 -93 42 -39 62 66 94 202 56 235 -36 30 -81 40 -160 36 -90 -4 -149
-29 -212 -89 -42 -41 -91 -133 -91 -171 0 -26 -17 -48 -37 -48 -10 0 -13 24
-13 98 l0 98 36 40 c106 114 106 281 0 387 -47 47 -82 49 -131 5 -61 -53 -80
-100 -80 -198 0 -96 12 -127 76 -197 l39 -43 0 -95 c0 -94 -1 -96 -22 -93 -18
2 -26 16 -41 68 -33 110 -106 192 -204 227 -51 17 -162 16 -207 -2 -51 -22
-70 -54 -61 -107 19 -111 108 -211 220 -247 39 -12 115 -11 225 4 37 5 49 3
68 -15 22 -20 22 -25 22 -249 0 -199 -2 -230 -16 -235 -9 -3 -51 -6 -94 -6
-90 0 -93 2 -104 84 -7 58 -24 80 -86 111 -149 77 -278 237 -336 415 -26 79
-26 290 0 380 48 166 145 300 276 382 122 77 223 109 363 116 127 5 216 -12
317 -63 199 -100 327 -258 375 -465 10 -41 19 -81 21 -88 2 -7 11 -15 20 -19
72 -28 -3 249 -105 387 -102 137 -259 244 -418 284 -74 19 -211 26 -288 16z
m158 -427 c47 -71 46 -186 -3 -245 l-19 -23 -1 85 c0 93 -7 114 -36 108 -17
-3 -19 -14 -22 -91 -3 -90 -14 -108 -39 -67 -44 69 -35 179 19 244 39 47 63
44 101 -11z m-383 -306 c55 -20 93 -43 122 -74 28 -29 63 -101 54 -110 -3 -3
-49 20 -103 51 -105 62 -146 76 -158 55 -11 -16 34 -54 118 -98 120 -63 136
-91 53 -91 -98 0 -203 67 -245 156 -31 64 -25 96 19 111 46 16 97 16 140 0z
m510 -917 l0 -50 -182 2 -183 3 -3 48 -3 47 185 0 186 0 0 -50z m0 -139 c0
-20 -9 -36 -26 -50 -24 -19 -40 -21 -159 -21 -149 0 -170 8 -181 68 l-6 32
186 0 186 0 0 -29z"/>
</g>
</svg>
