<?xml version="1.0" standalone="no"?>
<!DOCTYPE svg PUBLIC "-//W3C//DTD SVG 20010904//EN"
 "http://www.w3.org/TR/2001/REC-SVG-20010904/DTD/svg10.dtd">
<svg version="1.0" xmlns="http://www.w3.org/2000/svg"
 width="269.000000pt" height="215.000000pt" viewBox="0 0 269.000000 215.000000"
 preserveAspectRatio="xMidYMid meet">
<metadata>
Created by potrace 1.16, written by Peter Selinger 2001-2019
</metadata>
<g transform="translate(0.000000,215.000000) scale(0.100000,-0.100000)"
fill="#000000" stroke="none">
<path d="M636 2119 l-26 -20 0 -254 c0 -223 2 -256 17 -270 22 -23 57 -35 99
-35 l34 0 0 -81 c0 -76 10 -119 29 -119 5 0 54 45 110 100 l100 100 79 0 c80
0 102 -9 102 -40 0 -9 9 -25 20 -35 16 -14 43 -19 142 -23 l123 -4 96 -94 c53
-52 103 -94 112 -94 20 0 26 24 29 115 l3 69 57 11 c95 17 93 9 96 288 2 180
-1 248 -10 266 -23 43 -65 49 -315 50 l-233 1 -14 34 c-8 19 -23 39 -34 45
-14 7 -120 11 -305 11 -272 0 -285 -1 -311 -21z m601 -45 c4 -10 -4 -25 -21
-41 -15 -14 -31 -36 -37 -50 -5 -13 -9 -105 -9 -203 0 -205 6 -193 -98 -190
-31 1 -65 2 -76 1 -10 0 -51 -32 -90 -71 -40 -38 -78 -70 -84 -70 -7 0 -12 26
-14 68 l-3 67 -61 6 c-33 3 -66 9 -72 13 -13 8 -18 467 -5 479 3 4 132 7 285
7 246 0 279 -2 285 -16z m561 -96 c13 -13 18 -431 6 -462 -5 -12 -20 -16 -61
-16 -83 0 -93 -9 -93 -85 0 -36 -3 -65 -6 -65 -3 0 -34 25 -67 56 -97 88 -96
87 -226 92 -70 3 -119 9 -123 16 -13 20 -9 451 4 464 17 17 549 17 566 0z"/>
<path d="M805 1935 c-19 -18 -25 -35 -25 -66 0 -38 6 -47 77 -120 42 -44 84
-79 93 -79 9 0 51 35 93 79 71 73 77 82 77 120 0 32 -6 48 -26 66 -32 29 -88
33 -122 9 -20 -14 -24 -14 -44 0 -35 25 -94 20 -123 -9z m116 -51 l28 -27 31
27 c47 39 90 30 90 -18 0 -24 -97 -126 -119 -126 -27 0 -121 101 -121 130 0
15 3 30 7 33 15 15 59 5 84 -19z"/>
<path d="M1435 1913 c-100 -52 -135 -166 -80 -259 36 -61 86 -89 161 -89 50 0
68 5 103 28 115 76 103 257 -20 319 -43 21 -125 22 -164 1z m156 -56 c67 -45
77 -148 18 -206 -57 -57 -144 -50 -199 17 -95 116 56 273 181 189z"/>
<path d="M523 1264 c-89 -43 -143 -132 -143 -233 0 -51 35 -135 69 -165 29
-26 26 -40 -13 -58 -105 -51 -152 -134 -156 -278 -6 -201 -2 -254 23 -291 42
-63 66 -68 313 -69 l221 0 7 -49 c5 -38 13 -55 36 -74 55 -47 142 -47 214 0
l39 25 63 -21 c56 -18 89 -21 240 -21 130 0 184 4 209 15 39 16 58 51 53 98
l-3 30 260 -1 c291 -2 308 1 352 67 22 32 23 43 23 206 0 185 -6 216 -56 282
-13 18 -51 48 -84 69 l-59 36 35 41 c34 40 64 117 64 164 0 214 -257 329 -418
188 -60 -52 -82 -103 -82 -188 0 -73 17 -118 65 -175 l25 -30 -47 -28 c-75
-44 -120 -100 -147 -186 -4 -14 -16 -18 -49 -18 -24 0 -46 3 -49 6 -4 3 0 21
8 39 19 45 18 115 -2 143 -32 46 -127 70 -153 38 -7 -8 -16 -42 -22 -77 -16
-101 -49 -137 -145 -155 l-65 -12 -19 37 c-26 53 -44 64 -111 72 -52 6 -65 12
-104 50 -25 24 -57 51 -73 59 -55 30 -54 29 -27 62 65 77 85 188 50 271 -55
132 -214 193 -342 131z m185 -39 c76 -32 122 -102 122 -185 0 -118 -81 -200
-197 -200 -88 0 -154 44 -189 129 -65 155 106 321 264 256z m1350 -4 c148 -76
162 -258 28 -348 -101 -68 -235 -31 -293 81 -11 20 -14 50 -11 97 3 57 8 74
34 106 61 76 165 104 242 64z m-1253 -459 c34 -16 85 -61 85 -74 0 -5 -10 -22
-22 -39 -22 -29 -23 -43 -28 -227 l-5 -197 -210 -3 c-304 -4 -295 -10 -295
225 0 172 4 192 52 254 52 69 135 91 303 81 50 -2 104 -11 120 -20z m676 7
c17 -17 20 -29 15 -61 -4 -21 -10 -47 -15 -56 -51 -100 -48 -102 92 -102 74 0
117 -4 125 -12 18 -18 14 -52 -8 -66 -25 -16 -25 -33 1 -66 l20 -26 -36 -33
-36 -33 21 -26 c27 -35 26 -43 -12 -69 -18 -12 -35 -24 -37 -26 -3 -2 5 -17
18 -33 45 -62 1 -80 -188 -80 -145 1 -234 14 -270 39 l-31 22 0 194 c0 218 -8
197 85 210 27 4 62 13 76 20 56 30 109 114 109 177 0 50 35 63 71 27z m700
-24 c27 -19 54 -50 71 -84 27 -52 28 -57 28 -215 -1 -233 9 -226 -303 -226
-168 0 -227 3 -234 12 -23 29 -23 67 -1 103 19 33 20 41 9 72 -8 22 -9 38 -3
46 5 7 13 27 17 44 5 28 2 37 -22 61 -15 16 -36 33 -46 38 -26 15 -14 54 35
109 61 69 79 74 255 72 151 -2 152 -2 194 -32z m-1107 -127 c13 -19 16 -62 16
-265 0 -289 2 -283 -104 -283 -47 0 -67 4 -77 17 -11 13 -14 69 -14 268 0 199
3 255 14 268 10 13 30 17 82 17 59 0 70 -3 83 -22z"/>
<path d="M946 265 c-40 -37 -34 -85 15 -111 26 -13 32 -13 58 0 49 26 55 74
15 111 -34 31 -54 31 -88 0z"/>
</g>
</svg>
