<?xml version="1.0" standalone="no"?>
<!DOCTYPE svg PUBLIC "-//W3C//DTD SVG 20010904//EN"
 "http://www.w3.org/TR/2001/REC-SVG-20010904/DTD/svg10.dtd">
<svg version="1.0" xmlns="http://www.w3.org/2000/svg"
 width="478.000000pt" height="478.000000pt" viewBox="0 0 478.000000 478.000000"
 preserveAspectRatio="xMidYMid meet">
<metadata>
Created by potrace 1.16, written by Peter Selinger 2001-2019
</metadata>
<g transform="translate(0.000000,478.000000) scale(0.100000,-0.100000)"
fill="#000000" stroke="none">
<path d="M2150 4369 c-615 -71 -1181 -439 -1486 -964 -35 -61 -55 -85 -69 -85
-69 -2 -225 -100 -317 -199 -291 -314 -295 -755 -9 -1125 43 -55 209 -224 236
-239 30 -16 63 2 148 86 268 262 327 523 247 1082 -65 458 -42 599 128 777
278 291 670 492 1080 553 219 33 512 17 735 -39 533 -136 989 -509 1230 -1009
39 -80 58 -109 74 -113 31 -8 51 1 64 30 10 21 5 38 -38 128 -295 617 -897
1044 -1575 1117 -112 13 -339 12 -448 0z m-1355 -1469 c73 -493 28 -717 -187
-945 l-73 -77 -47 42 c-59 51 -168 186 -212 260 -138 237 -150 473 -35 701 55
110 170 232 271 289 38 21 41 22 33 4 -65 -157 -115 -343 -140 -514 -18 -129
-20 -291 -3 -308 16 -16 63 -15 76 1 5 6 13 62 17 122 18 287 82 522 208 773
l52 104 7 -139 c4 -76 18 -217 33 -313z"/>
<path d="M2097 3142 c-14 -15 -17 -40 -17 -120 l0 -102 -74 0 c-103 0 -106 -3
-106 -143 l0 -112 -36 -20 c-44 -24 -84 -89 -84 -139 0 -34 228 -933 250 -983
8 -19 17 -23 58 -23 l49 0 6 -69 c9 -108 58 -181 145 -218 l32 -13 0 -384 c0
-448 -8 -416 109 -416 259 0 584 81 839 209 342 172 612 421 816 753 l61 99
68 23 c163 55 342 229 424 414 45 102 64 197 65 317 0 254 -99 469 -321 699
-113 115 -137 131 -175 116 -40 -15 -181 -161 -234 -243 -152 -232 -179 -456
-112 -922 52 -363 45 -513 -32 -657 -33 -62 -154 -190 -265 -281 -290 -236
-681 -392 -1035 -414 l-98 -6 0 346 0 347 38 15 c88 37 141 121 142 223 l0 62
49 0 c27 0 53 6 59 13 12 14 262 965 262 994 -1 41 -40 103 -84 135 l-46 32 0
111 c0 73 -4 115 -12 123 -7 7 -43 12 -90 12 l-78 0 0 108 c0 116 -6 132 -50
132 -44 0 -50 -16 -50 -132 l0 -108 -190 0 -190 0 0 104 c0 82 -3 108 -16 120
-21 21 -57 20 -77 -2z m2208 -306 c188 -192 295 -416 295 -618 0 -229 -161
-502 -353 -600 -38 -19 -39 -19 -32 -1 72 167 129 409 147 620 14 171 9 196
-42 201 -48 5 -60 -16 -60 -104 0 -245 -92 -593 -218 -827 l-37 -69 -7 139
c-4 76 -18 217 -33 313 -61 415 -38 630 89 821 54 81 153 189 173 189 9 0 44
-29 78 -64z m-1555 -91 l0 -65 -370 0 -370 0 0 65 0 65 370 0 370 0 0 -65z
m80 -190 c16 -8 31 -24 35 -35 4 -12 -41 -201 -109 -464 -64 -245 -116 -447
-116 -451 0 -3 -118 -4 -261 -3 l-262 3 -67 260 c-37 143 -90 347 -118 454
l-51 194 29 28 28 29 432 0 c362 0 436 -2 460 -15z m-320 -1087 c0 -124 -88
-195 -184 -148 -52 25 -76 67 -76 134 l0 46 130 0 130 0 0 -32z"/>
<path d="M2096 2424 c-22 -21 -20 -50 4 -74 19 -19 33 -20 269 -20 138 0 261
4 275 10 21 8 26 16 26 43 0 18 -5 38 -12 45 -9 9 -85 12 -279 12 -230 0 -270
-2 -283 -16z"/>
<path d="M2097 2182 c-22 -25 -21 -48 3 -72 19 -19 33 -20 273 -20 279 0 297
4 297 59 0 50 -4 51 -290 51 -246 0 -268 -1 -283 -18z"/>
<path d="M556 1675 c-26 -26 -19 -57 39 -173 238 -476 649 -833 1153 -1001
153 -52 254 -70 276 -52 19 16 21 64 4 79 -7 5 -60 22 -118 37 -329 86 -621
254 -861 494 -160 161 -261 302 -367 514 -49 96 -61 112 -83 115 -15 2 -34 -4
-43 -13z"/>
</g>
</svg>
