<?xml version="1.0" standalone="no"?>
<!DOCTYPE svg PUBLIC "-//W3C//DTD SVG 20010904//EN"
 "http://www.w3.org/TR/2001/REC-SVG-20010904/DTD/svg10.dtd">
<svg version="1.0" xmlns="http://www.w3.org/2000/svg"
 width="438.000000pt" height="438.000000pt" viewBox="0 0 438.000000 438.000000"
 preserveAspectRatio="xMidYMid meet">
<metadata>
Created by potrace 1.16, written by Peter Selinger 2001-2019
</metadata>
<g transform="translate(0.000000,438.000000) scale(0.100000,-0.100000)"
fill="#000000" stroke="none">
<path d="M2156 4333 c-17 -5 -1993 -1777 -2026 -1818 -13 -15 -15 -65 -15
-307 l0 -290 33 -29 c35 -31 77 -38 115 -17 12 6 49 36 82 65 l60 54 5 -874 5
-875 24 -26 c31 -33 70 -41 115 -22 69 29 66 -22 66 1038 l0 953 777 700 c428
384 785 699 793 699 8 0 365 -315 793 -699 l777 -700 0 -953 c0 -1060 -3
-1009 66 -1038 45 -19 84 -11 115 22 l24 26 5 875 5 874 60 -54 c33 -29 70
-59 82 -65 38 -21 80 -14 115 17 l33 29 0 290 c0 242 -2 292 -15 307 -40 49
-2009 1813 -2031 1818 -26 7 -34 7 -63 0z m973 -1086 l931 -838 0 -106 0 -106
-42 39 c-212 194 -1749 1574 -1768 1587 -35 24 -91 22 -126 -5 -29 -23 -1698
-1521 -1766 -1586 l-38 -36 0 106 0 107 932 840 c513 462 936 839 940 838 3
-1 425 -379 937 -840z"/>
<path d="M2063 2953 c-12 -2 -34 -18 -48 -34 -34 -41 -34 -97 0 -138 l26 -30
-38 -6 c-520 -90 -911 -486 -987 -998 -32 -213 -12 -277 89 -277 78 0 99 34
109 170 15 237 113 448 285 621 119 119 241 193 399 243 102 32 116 33 102 7
-29 -56 8 -143 66 -154 55 -10 88 10 207 131 116 118 117 119 117 166 0 47 -1
49 -116 167 -64 65 -126 121 -138 125 -36 10 -50 11 -73 7z"/>
<path d="M2020 2245 c-222 -56 -411 -228 -485 -442 -67 -192 -45 -418 57 -591
42 -73 167 -198 240 -240 217 -128 499 -128 716 0 73 42 198 167 240 240 126
214 126 502 0 716 -75 127 -231 253 -378 303 -83 28 -303 37 -390 14z m324
-215 c222 -76 364 -307 327 -532 -17 -105 -62 -191 -140 -269 -196 -196 -486
-196 -682 0 -187 187 -195 471 -19 665 135 147 331 199 514 136z"/>
<path d="M3214 1655 c-30 -21 -42 -58 -48 -156 -14 -229 -115 -450 -285 -620
-158 -158 -360 -257 -580 -285 l-54 -6 21 27 c32 41 30 104 -4 139 -22 21 -36
26 -76 26 -48 0 -50 -1 -145 -92 -148 -143 -174 -189 -142 -251 21 -42 223
-237 256 -248 42 -14 95 3 117 36 23 35 20 97 -5 129 -11 14 -17 26 -14 26 4
0 54 7 112 16 554 82 970 533 1009 1096 7 101 -5 146 -45 168 -28 15 -93 12
-117 -5z"/>
</g>
</svg>
