<?xml version="1.0" standalone="no"?>
<!DOCTYPE svg PUBLIC "-//W3C//DTD SVG 20010904//EN"
 "http://www.w3.org/TR/2001/REC-SVG-20010904/DTD/svg10.dtd">
<svg version="1.0" xmlns="http://www.w3.org/2000/svg"
 width="307.000000pt" height="307.000000pt" viewBox="0 0 307.000000 307.000000"
 preserveAspectRatio="xMidYMid meet">
<metadata>
Created by potrace 1.16, written by Peter Selinger 2001-2019
</metadata>
<g transform="translate(0.000000,307.000000) scale(0.100000,-0.100000)"
fill="#000000" stroke="none">
<path d="M1425 2821 c-119 -54 -167 -187 -111 -307 39 -84 109 -126 208 -125
166 0 272 173 199 324 -53 109 -188 158 -296 108z m166 -108 c40 -34 61 -82
52 -124 -7 -39 -61 -94 -98 -101 -69 -14 -143 40 -152 109 -15 110 115 185
198 116z"/>
<path d="M534 1962 c-17 -10 -20 -26 -145 -612 -103 -484 -111 -534 -113 -641
-1 -85 3 -120 13 -132 12 -16 62 -17 552 -17 l539 0 0 -120 0 -120 -173 0
c-217 0 -217 0 -217 -106 l0 -74 -218 0 c-181 0 -221 -3 -240 -16 -27 -18 -28
-45 -4 -67 17 -16 100 -17 993 -17 745 0 978 3 987 12 19 19 15 66 -7 78 -12
6 -107 10 -240 10 l-221 0 0 80 c0 77 -1 81 -26 90 -14 6 -99 10 -190 10
l-164 0 0 120 0 120 538 0 c405 0 541 3 550 12 8 8 12 48 12 116 0 85 -9 147
-50 345 -117 571 -191 911 -201 924 -9 11 -188 13 -988 13 -537 0 -981 -4
-987 -8z m606 -125 c0 -19 -3 -82 -7 -140 l-6 -107 -292 0 -292 0 28 130 c15
72 31 135 34 140 4 6 107 10 271 10 l264 0 0 -33z m654 -49 c4 -46 9 -109 12
-140 l6 -58 -291 0 -291 0 0 33 c0 19 3 82 7 140 l6 107 272 0 273 0 6 -82z
m640 65 c6 -19 56 -251 56 -259 0 -2 -130 -4 -289 -4 l-289 0 -6 58 c-3 31 -8
94 -12 140 l-6 82 270 0 c249 0 271 -1 276 -17z m-1318 -410 c-3 -27 -8 -87
-12 -135 l-6 -88 -314 0 c-206 0 -314 3 -314 10 0 17 50 241 56 251 3 5 137 9
300 9 l295 0 -5 -47z m707 -50 c4 -54 7 -115 7 -135 l0 -38 -316 0 -316 0 7
88 c3 48 8 108 11 135 l6 47 297 0 298 0 6 -97z m691 80 c3 -10 15 -63 26
-118 12 -55 24 -108 26 -117 5 -17 -15 -18 -315 -18 l-321 0 0 38 c0 20 -3 81
-7 135 l-6 97 296 0 c273 0 296 -1 301 -17z m-1429 -470 c-3 -60 -8 -120 -11
-135 l-5 -27 -160 -3 c-146 -3 -162 -5 -175 -22 -15 -21 -10 -55 10 -68 6 -4
440 -8 964 -8 l952 0 0 -40 0 -40 -1145 0 -1145 0 0 40 0 40 118 0 c125 0 142
6 142 46 0 41 -35 54 -142 54 -111 0 -106 -6 -84 92 8 35 20 89 26 121 l11 57
326 0 325 0 -7 -107z m759 75 c3 -18 8 -79 11 -135 l7 -103 -347 0 -347 0 6
28 c2 15 8 75 11 135 l7 107 324 0 323 0 5 -32z m750 15 c3 -10 15 -63 26
-118 12 -55 24 -108 26 -117 5 -17 -16 -18 -339 -18 l-345 0 -6 98 c-4 53 -9
114 -11 135 l-5 37 324 0 c301 0 325 -1 330 -17z m-1044 -653 l0 -120 -35 0
-35 0 0 120 0 120 35 0 35 0 0 -120z m390 -260 l0 -40 -425 0 -425 0 0 40 0
40 425 0 425 0 0 -40z"/>
</g>
</svg>
