<?xml version="1.0" standalone="no"?>
<!DOCTYPE svg PUBLIC "-//W3C//DTD SVG 20010904//EN"
 "http://www.w3.org/TR/2001/REC-SVG-20010904/DTD/svg10.dtd">
<svg version="1.0" xmlns="http://www.w3.org/2000/svg"
 width="312.000000pt" height="312.000000pt" viewBox="0 0 312.000000 312.000000"
 preserveAspectRatio="xMidYMid meet">
<metadata>
Created by potrace 1.16, written by Peter Selinger 2001-2019
</metadata>
<g transform="translate(0.000000,312.000000) scale(0.100000,-0.100000)"
fill="#000000" stroke="none">
<path d="M919 3061 c-32 -33 -36 -58 -14 -101 8 -16 88 -134 178 -262 90 -128
167 -239 171 -245 5 -10 -16 -13 -93 -13 l-101 0 0 59 c0 63 -15 91 -49 91
-36 0 -51 -32 -51 -109 0 -75 16 -124 45 -135 9 -3 82 -6 161 -6 l144 0 0 -76
c0 -68 -2 -76 -17 -71 -114 37 -166 47 -248 47 -103 0 -152 -11 -285 -65 -80
-33 -110 -39 -186 -43 -102 -5 -138 3 -273 63 -67 30 -99 38 -167 43 -91 5
-114 -3 -114 -43 0 -32 16 -41 95 -53 39 -5 124 -31 190 -57 107 -43 131 -49
218 -53 117 -6 174 5 302 59 166 69 289 71 423 9 l62 -29 0 -750 0 -750 -22
-21 c-13 -12 -79 -60 -147 -108 -69 -48 -138 -100 -153 -115 -63 -65 -60 -214
5 -258 33 -21 1020 -27 1071 -5 51 21 69 63 64 152 -4 90 -6 93 -188 221 -196
139 -180 118 -180 239 0 108 -10 134 -50 134 -36 0 -50 -38 -50 -132 l0 -88
-125 0 -125 0 0 720 0 720 125 0 125 0 0 -551 c0 -360 4 -557 10 -570 12 -22
59 -26 78 -7 9 9 12 152 12 582 0 314 4 577 8 583 12 19 121 61 193 73 79 14
161 2 251 -35 139 -58 173 -67 271 -72 117 -7 172 4 300 57 51 21 124 44 162
51 91 15 105 23 105 59 0 23 -5 31 -26 36 -49 12 -157 -2 -224 -30 -153 -65
-193 -76 -275 -76 -91 0 -142 12 -266 64 -141 59 -313 64 -439 12 l-60 -24 0
79 0 79 150 0 c147 0 152 1 175 25 23 22 25 32 25 109 0 90 -11 116 -50 116
-30 0 -50 -39 -50 -97 l0 -53 -101 0 -101 0 35 48 c70 96 316 451 326 470 21
39 13 78 -20 106 l-31 26 -585 0 -585 0 -29 -29z m1094 -154 c-32 -45 -119
-169 -193 -275 l-134 -192 -150 2 -150 3 -188 268 c-103 147 -188 270 -188
273 0 2 239 4 530 4 l530 0 -57 -83z m-353 -666 c0 -115 5 -111 -125 -111
-130 0 -125 -4 -125 111 l0 99 125 0 125 0 0 -99z m41 -1762 c42 -22 314 -221
322 -235 5 -8 7 -31 5 -52 l-3 -37 -479 -3 c-345 -1 -483 1 -492 9 -8 6 -14
25 -14 42 0 38 31 67 209 192 l134 95 149 0 c87 0 158 -4 169 -11z"/>
<path d="M1538 2908 c-8 -7 -34 -37 -57 -66 -62 -81 -57 -119 24 -167 16 -9
14 -15 -16 -63 -28 -46 -31 -55 -20 -78 9 -21 17 -25 43 -22 27 2 40 14 75 63
55 78 63 118 33 150 -13 14 -31 27 -42 31 -24 7 -23 15 12 59 35 44 37 65 12
88 -22 20 -43 22 -64 5z"/>
<path d="M38 1879 c-11 -6 -18 -22 -18 -39 0 -36 17 -46 95 -53 38 -3 103 -22
177 -51 64 -26 140 -51 169 -56 114 -22 223 -5 358 54 102 45 174 58 288 54
105 -3 122 5 110 54 -8 31 -26 37 -137 45 -98 7 -201 -15 -318 -66 -152 -67
-270 -64 -433 9 -118 53 -247 75 -291 49z"/>
<path d="M1911 1879 c-24 -4 -49 -14 -57 -20 -17 -14 -18 -55 -1 -66 6 -4 73
-8 147 -8 127 0 139 -2 200 -29 238 -105 366 -109 580 -21 64 26 132 47 167
51 79 8 103 21 103 56 0 21 -7 32 -26 40 -41 19 -169 -5 -280 -52 -179 -76
-281 -77 -459 0 -53 22 -120 45 -147 50 -60 12 -166 11 -227 -1z"/>
<path d="M544 1546 c-42 -19 -70 -68 -96 -168 -18 -73 -20 -100 -14 -224 7
-163 6 -165 -94 -204 -168 -66 -320 -213 -320 -309 0 -17 10 -42 24 -58 23
-26 29 -28 103 -27 124 2 258 61 380 167 l54 47 67 -56 c124 -103 319 -178
416 -160 47 9 86 46 86 82 0 91 -124 217 -294 299 -138 67 -139 69 -124 195 9
69 8 113 0 178 -16 119 -30 157 -71 203 -42 45 -73 54 -117 35z m71 -171 c20
-58 31 -186 21 -239 -7 -37 -7 -37 -54 -34 l-47 3 -3 90 c-3 90 6 147 34 213
17 42 26 36 49 -33z m-164 -537 l23 -31 -29 -23 c-88 -70 -253 -141 -307 -132
-21 4 -17 11 47 74 65 65 191 144 231 144 7 0 23 -14 35 -32z m413 -20 c72
-42 176 -135 176 -156 0 -36 -155 13 -259 82 -39 26 -73 51 -76 57 -4 5 2 23
12 40 15 26 22 30 48 25 16 -4 61 -25 99 -48z"/>
<path d="M2453 1550 c-27 -11 -67 -70 -87 -128 -27 -75 -37 -196 -25 -299 9
-82 8 -98 -6 -119 -9 -14 -24 -28 -33 -31 -9 -3 -58 -25 -107 -49 -203 -98
-321 -268 -240 -344 74 -70 302 -5 465 131 l71 60 46 -40 c116 -103 256 -169
378 -178 66 -5 73 -4 103 22 26 22 32 34 32 67 0 98 -132 228 -310 305 -107
46 -113 57 -101 174 10 103 1 218 -23 303 -28 95 -102 152 -163 126z m61 -142
c22 -53 38 -178 30 -245 l-6 -63 -48 0 -47 0 -7 58 c-11 102 23 282 54 282 6
0 17 -15 24 -32z m-155 -569 c13 -17 21 -32 19 -33 -56 -44 -122 -88 -153
-104 -54 -27 -150 -54 -176 -50 -19 3 -19 4 8 40 50 66 213 176 264 178 8 0
25 -14 38 -31z m385 -6 c68 -36 216 -166 203 -179 -8 -9 -114 15 -164 37 -40
17 -116 64 -166 103 -18 14 -18 16 4 45 13 17 29 31 37 31 8 0 46 -17 86 -37z"/>
<path d="M257 1329 c-10 -6 -38 -38 -63 -71 -51 -70 -87 -174 -82 -239 3 -42
5 -44 37 -47 40 -4 47 4 62 78 14 66 29 99 80 167 43 57 50 97 20 113 -24 12
-31 12 -54 -1z"/>
<path d="M845 1316 c-15 -22 -15 -28 -1 -53 8 -16 22 -36 31 -43 27 -23 73
-122 84 -185 14 -74 30 -93 68 -79 22 7 29 17 31 44 9 85 -45 221 -118 300
-42 46 -72 51 -95 16z"/>
<path d="M2128 1292 c-51 -58 -81 -115 -103 -197 -25 -99 -15 -130 41 -123 31
3 37 13 53 83 16 67 44 123 86 172 39 46 44 72 17 96 -29 27 -47 20 -94 -31z"/>
<path d="M2757 1322 c-25 -28 -21 -49 18 -95 46 -53 73 -111 88 -186 15 -72
34 -96 71 -87 34 8 42 42 27 114 -16 79 -62 172 -111 226 -46 50 -68 56 -93
28z"/>
<path d="M330 500 c-25 -47 21 -85 143 -116 112 -29 302 1 351 55 21 23 18 60
-6 75 -13 8 -37 4 -97 -17 -102 -34 -172 -35 -266 -2 -85 30 -111 31 -125 5z"/>
<path d="M2242 508 c-18 -18 -15 -53 6 -71 28 -26 130 -58 204 -64 109 -9 264
32 288 77 13 25 1 59 -24 66 -12 3 -56 -6 -98 -20 -96 -33 -159 -33 -254 -1
-84 28 -105 30 -122 13z"/>
</g>
</svg>
