<?xml version="1.0" standalone="no"?>
<!DOCTYPE svg PUBLIC "-//W3C//DTD SVG 20010904//EN"
 "http://www.w3.org/TR/2001/REC-SVG-20010904/DTD/svg10.dtd">
<svg version="1.0" xmlns="http://www.w3.org/2000/svg"
 width="777.000000pt" height="323.000000pt" viewBox="0 0 777.000000 323.000000"
 preserveAspectRatio="xMidYMid meet">

<g transform="translate(0.000000,323.000000) scale(0.100000,-0.100000)"
fill="#000000" stroke="none">
<path d="M6260 3085 c-15 -18 -7 -43 16 -52 24 -9 46 24 33 48 -12 23 -32 24
-49 4z"/>
<path d="M4957 3084 c-3 -3 -3 -12 -1 -18 3 -7 -2 -18 -10 -25 -7 -6 -12 -20
-9 -31 11 -42 -5 -69 -50 -81 -114 -31 -127 -66 -38 -111 67 -34 65 -32 49
-58 -18 -29 -69 -55 -171 -84 -142 -41 -152 -48 -309 -204 -81 -81 -150 -152
-152 -159 -3 -6 -1 -54 5 -105 5 -51 16 -154 23 -230 8 -80 21 -151 31 -172
17 -34 89 -109 114 -117 19 -7 17 -68 -10 -374 -6 -66 -12 -129 -14 -140 -2
-11 -4 -32 -4 -47 l-1 -28 -225 0 -225 0 0 315 c0 268 2 315 14 308 8 -4 55
-47 105 -95 95 -91 145 -126 156 -108 8 13 -44 78 -142 180 -59 61 -73 81 -73
107 0 19 -8 40 -19 50 -12 11 -22 39 -26 73 -4 30 -17 109 -31 175 -13 66 -24
121 -24 122 0 2 -6 3 -13 3 -11 0 -13 -31 -12 -152 1 -84 5 -167 9 -184 5 -23
2 -34 -14 -49 -11 -10 -20 -26 -20 -35 0 -24 -11 -27 -121 -36 -125 -9 -124
-9 -124 -24 0 -19 99 -42 187 -44 l78 -1 0 -302 0 -303 -210 0 -210 0 0 53 c0
28 -3 148 -7 265 -3 116 -2 212 2 212 4 0 51 -29 104 -63 53 -35 108 -71 123
-80 30 -18 68 -23 68 -8 0 14 -154 155 -211 193 -27 18 -49 39 -49 46 0 7 -10
23 -22 35 -18 17 -22 32 -20 62 4 41 -32 288 -50 343 -7 22 -14 30 -20 24 -15
-15 -22 -277 -9 -346 10 -56 10 -59 -14 -78 -14 -11 -25 -30 -25 -43 0 -15
-16 -35 -47 -61 -27 -22 -76 -68 -111 -104 -53 -55 -60 -65 -43 -68 23 -4 130
51 203 104 27 19 50 34 53 34 7 0 6 -321 -1 -428 -7 -91 -7 -92 -33 -92 -36 0
-53 -18 -40 -42 9 -17 37 -18 642 -18 682 0 679 0 772 -54 64 -38 375 -361
375 -391 0 -8 -12 -22 -26 -32 l-26 -17 -51 55 c-27 29 -86 95 -131 145 -121
135 -182 184 -256 204 -57 16 -1036 15 -1078 -1 -15 -6 -50 -8 -79 -4 -44 5
-53 4 -53 -9 0 -19 -36 -18 665 -21 l520 -2 51 -26 c28 -14 75 -50 105 -79 57
-55 230 -244 263 -285 l19 -24 -38 -39 c-24 -25 -36 -44 -32 -54 12 -31 -2
-44 286 259 52 55 139 146 193 202 54 56 98 106 98 111 0 6 -7 13 -16 16 -11
4 -32 -10 -66 -44 l-50 -50 -90 95 c-62 65 -94 93 -101 86 -15 -15 1 -43 63
-108 101 -106 97 -99 70 -128 -13 -14 -27 -25 -31 -25 -4 0 -21 15 -37 32 -17
18 -59 64 -93 103 -35 38 -79 84 -97 101 -29 28 -34 39 -37 90 -4 56 -7 465
-4 549 l1 40 14 -52 c17 -62 49 -120 75 -134 22 -11 83 -126 76 -143 -3 -6
-30 -24 -60 -40 l-56 -29 29 -51 c49 -85 103 -155 142 -182 42 -29 117 -54
164 -54 30 0 36 5 61 53 23 44 28 64 28 132 0 75 -3 86 -47 178 -26 53 -49 97
-53 97 -3 0 -32 -14 -65 -30 -33 -16 -62 -30 -64 -30 -3 0 -17 24 -31 54 -26
54 -26 55 -10 111 19 64 17 88 -25 305 -20 106 -30 192 -35 320 -6 146 -11
186 -30 244 -26 74 -25 86 5 86 18 0 37 30 93 147 16 33 27 43 54 48 63 11 84
26 81 54 -2 20 -15 32 -55 51 l-53 25 0 58 c0 31 -4 57 -10 57 -5 0 -10 6 -10
14 0 22 -28 28 -155 33 -89 3 -123 8 -131 19 -12 15 -18 17 -27 8z m234 -109
c24 -6 29 -12 29 -36 0 -17 -3 -28 -7 -26 -5 3 -51 10 -103 16 -52 7 -96 14
-98 16 -2 2 1 12 7 23 9 18 19 20 77 17 36 -2 79 -7 95 -10z m-29 -144 c32 -4
61 -10 65 -14 4 -4 -14 -50 -39 -101 l-46 -93 -55 5 -55 4 -38 -65 -39 -64
-42 77 -42 77 30 22 c32 24 89 116 89 144 0 14 9 17 58 16 31 0 83 -4 114 -8z
m-342 -245 c12 -25 25 -71 29 -103 l6 -58 82 1 c45 1 86 4 91 7 4 4 17 34 27
67 14 47 21 57 28 45 18 -32 8 -101 -25 -185 l-33 -85 -93 -5 -94 -5 -21 -50
c-47 -109 -103 -180 -183 -231 -68 -43 -104 -53 -104 -28 0 12 17 28 47 44
129 69 213 230 213 410 0 75 -14 140 -37 175 -17 26 -16 33 5 38 34 9 39 6 62
-37z m-313 -213 c15 -21 31 -39 36 -41 16 -8 5 -28 -47 -82 l-55 -57 4 -59 c7
-115 8 -344 2 -351 -9 -9 -36 16 -53 49 -8 16 -19 68 -25 116 -5 48 -11 103
-13 122 -2 19 -7 67 -11 105 -4 39 -9 77 -10 85 -3 14 121 150 137 150 4 0 20
-17 35 -37z m626 -268 c4 -55 20 -162 37 -238 31 -141 37 -211 20 -237 -18
-29 -38 12 -86 175 -35 121 -46 176 -45 224 1 77 16 167 39 236 l16 50 7 -55
c4 -30 9 -100 12 -155z m-127 97 c-3 -10 -13 -107 -21 -217 -12 -152 -15 -272
-10 -505 3 -168 8 -315 11 -328 9 -44 142 -209 278 -345 l28 -29 -28 -29 -28
-29 -86 92 c-47 51 -135 144 -197 208 l-112 115 -5 60 c-4 33 -15 159 -27 280
-11 121 -25 224 -30 229 -6 6 -9 6 -9 0 0 -11 -67 -334 -100 -478 -11 -50 -20
-100 -20 -113 0 -22 -2 -22 -82 -16 -46 3 -85 7 -86 9 -2 1 1 42 7 91 19 149
40 422 41 533 2 141 5 148 54 170 104 45 205 146 258 260 l30 65 70 -3 c59 -3
68 -6 64 -20z m427 -850 c21 -53 22 -141 2 -189 -14 -33 -18 -35 -47 -29 -51
10 -112 55 -151 111 -20 30 -37 57 -37 62 0 4 14 16 30 25 l30 17 25 -39 c30
-47 63 -69 76 -49 12 20 11 35 -6 76 -21 49 -19 60 12 77 32 16 38 11 66 -62z
m-664 -160 c1 -25 13 -46 50 -85 26 -29 104 -113 171 -187 68 -74 144 -156
169 -183 l45 -47 -27 -28 -28 -27 -57 61 c-31 33 -110 118 -176 188 -65 70
-136 137 -158 149 l-39 22 6 50 c3 28 11 77 18 109 9 48 13 54 18 35 4 -13 7
-39 8 -57z"/>
<path d="M5935 2976 c-90 -29 -215 -121 -215 -159 0 -12 9 -40 19 -62 l18 -40
-28 -33 c-36 -41 -46 -79 -27 -99 12 -12 25 -13 69 -4 l54 10 53 -55 52 -55
-21 -41 c-23 -45 -36 -164 -38 -330 -1 -77 -6 -101 -42 -195 -56 -148 -99
-282 -99 -311 0 -12 7 -36 15 -53 13 -25 14 -35 3 -64 -14 -41 -16 -41 -69
-15 -22 12 -44 18 -48 15 -14 -8 -60 -131 -76 -200 -11 -46 -12 -76 -6 -112
13 -66 40 -133 55 -133 30 0 116 52 153 93 36 39 133 212 133 237 0 4 -19 15
-42 25 -24 11 -44 20 -46 21 -9 6 40 81 60 92 32 17 68 73 68 104 0 14 24 65
53 114 29 49 68 117 87 152 18 34 40 62 48 62 13 0 14 -51 10 -432 -5 -398 -7
-433 -23 -443 -75 -43 -162 -127 -345 -331 -180 -201 -209 -238 -198 -251 14
-17 -3 -33 247 237 206 221 246 259 308 288 l58 27 691 3 c595 2 694 5 704 17
10 12 10 18 0 30 -9 11 -44 15 -159 17 l-146 3 -16 93 c-8 51 -13 95 -10 97 2
3 116 5 253 5 136 0 248 3 248 6 0 9 -412 727 -436 761 l-24 31 -257 -2 c-142
-1 -264 0 -270 2 -7 2 -13 13 -13 23 0 15 -37 90 -196 399 -25 48 -84 109
-117 118 -17 6 -75 20 -129 32 -94 21 -124 36 -145 74 -8 15 -3 26 29 59 28
30 38 48 36 67 -3 24 -5 25 -76 25 -72 0 -74 1 -89 30 -35 67 -48 73 -118 51z
m2 -149 c-40 -22 -83 -48 -96 -58 -28 -22 -36 -19 -45 18 -9 32 20 60 109 104
l60 29 22 -27 22 -27 -72 -39z m150 -89 c15 -24 30 -45 33 -48 3 -3 15 -17 28
-31 l23 -26 -27 -73 -27 -73 -26 32 c-26 32 -27 32 -72 20 l-46 -12 -35 39
c-60 67 -91 105 -87 108 5 4 203 106 206 106 2 0 15 -19 30 -42z m231 -133 c1
-1 -5 -15 -13 -32 -31 -62 -33 -114 -10 -229 33 -161 109 -314 156 -314 25 0
49 -11 49 -21 0 -6 -75 -8 -177 -7 l-178 3 -40 80 c-58 116 -105 221 -121 274
-13 44 -19 101 -10 101 2 0 11 3 19 6 11 4 17 -5 22 -35 l7 -41 99 0 99 0 0
70 c0 38 5 90 12 114 11 43 12 44 47 39 20 -3 37 -7 39 -8z m109 -50 c22 -15
143 -231 207 -367 l36 -77 0 -186 c0 -109 -4 -194 -10 -206 -14 -25 -42 -24
-66 2 -17 18 -20 42 -24 183 l-5 161 -106 160 c-134 201 -132 198 -127 257 8
76 47 107 95 73z m-393 -482 l25 -52 -41 -83 c-22 -46 -64 -126 -94 -179 -30
-52 -55 -107 -56 -122 -1 -14 -10 -36 -20 -49 -18 -23 -19 -23 -33 -4 -8 11
-15 27 -15 35 0 8 32 102 70 208 72 197 74 208 79 383 1 35 2 35 31 -25 17
-33 41 -83 54 -112z m1249 -85 c59 -103 197 -348 225 -398 17 -30 51 -91 76
-135 25 -44 46 -83 46 -87 0 -5 -155 -8 -344 -8 l-344 0 -45 83 c-121 223
-158 305 -155 339 l3 33 24 -47 25 -48 108 0 108 0 -25 57 c-14 31 -28 59 -31
62 -2 3 -52 5 -109 5 -93 1 -105 3 -105 19 0 15 11 17 95 17 63 0 95 4 95 11
0 6 -12 33 -27 60 l-26 49 -69 0 c-54 0 -68 3 -68 15 0 13 36 15 260 15 l259
0 24 -42z m-783 -141 c0 -68 5 -97 21 -132 24 -50 71 -95 100 -95 18 0 19 -10
19 -260 l0 -260 -79 0 c-55 0 -80 4 -84 13 -3 7 -5 63 -6 125 -1 62 -4 118 -6
125 -2 6 -6 44 -9 83 -4 39 -10 104 -16 145 -5 41 -10 82 -10 92 0 9 -4 17 -8
17 -10 0 -36 -150 -57 -330 -19 -162 -33 -262 -37 -265 -2 -1 -34 -5 -72 -8
l-69 -7 7 68 c3 37 6 225 6 419 l0 352 73 3 c39 2 107 3 149 3 l78 0 0 -88z
m277 -312 c35 -69 81 -154 111 -207 15 -26 21 -28 76 -28 l59 0 -7 -57 c-4
-31 -11 -76 -17 -100 l-11 -43 -139 0 -139 0 0 273 c1 305 -2 298 67 162z
m-1083 -131 c9 -3 16 -16 16 -29 0 -27 24 -39 40 -20 17 20 61 -1 52 -24 -35
-84 -132 -201 -167 -201 -26 0 -23 128 6 218 21 63 25 67 53 56z m1452 -131
c-3 -16 -11 -61 -17 -100 -11 -72 -12 -73 -41 -73 -26 0 -29 3 -25 23 3 12 11
51 17 87 15 88 16 90 46 90 24 0 26 -3 20 -27z"/>
<path d="M6040 2332 c0 -5 11 -35 24 -68 l24 -59 89 -3 90 -3 -22 68 -22 68
-92 3 c-50 1 -91 -1 -91 -6z"/>
<path d="M6110 2153 c0 -2 14 -30 30 -63 l30 -60 90 0 90 0 -30 60 c-29 57
-32 60 -68 61 -102 4 -142 4 -142 2z"/>
<path d="M6930 1988 c0 -5 11 -31 25 -58 l25 -50 160 0 c88 0 160 3 160 8 0 4
-13 30 -28 57 l-27 50 -158 1 c-86 1 -157 -3 -157 -8z"/>
<path d="M7000 1843 c0 -3 12 -32 26 -64 l26 -58 174 -3 c96 -2 173 -1 172 2
-2 3 -18 32 -36 65 l-34 60 -164 2 c-90 0 -164 -1 -164 -4z"/>
<path d="M6844 1618 l34 -63 106 -3 c58 -1 106 1 105 5 0 4 -12 33 -27 63
l-27 55 -113 3 -112 3 34 -63z"/>
<path d="M7080 1675 c0 -3 14 -32 30 -65 l30 -60 176 0 c97 0 174 4 172 8 -1
5 -16 34 -33 65 l-30 57 -172 0 c-95 0 -173 -2 -173 -5z"/>
<path d="M6900 1513 c0 -3 15 -32 32 -64 l33 -59 102 0 103 0 -10 25 c-10 27
-40 87 -47 94 -6 7 -213 11 -213 4z"/>
<path d="M7166 1497 c3 -12 16 -40 28 -62 l21 -40 183 -2 183 -3 -12 23 c-6
12 -23 40 -37 63 l-25 41 -174 1 -174 1 7 -22z"/>
<path d="M3253 2403 c-4 -10 -12 -22 -20 -26 -18 -11 -17 -37 2 -37 8 0 17
-11 21 -25 7 -27 24 -34 24 -10 0 8 9 20 20 27 23 15 26 36 5 44 -8 3 -17 14
-20 25 -8 24 -24 25 -32 2z"/>
<path d="M4103 2376 c-26 -27 -30 -46 -9 -46 8 0 18 -9 21 -20 6 -20 25 -28
25 -10 0 5 10 18 21 29 l22 20 -24 25 c-29 31 -29 31 -56 2z"/>
<path d="M3621 2227 c-17 -17 -13 -35 9 -47 26 -14 40 -5 40 24 0 26 -31 41
-49 23z"/>
<path d="M3717 1988 c-22 -12 -22 -35 1 -46 25 -13 42 -4 42 23 0 27 -19 37
-43 23z"/>
<path d="M5778 938 c-80 -84 -167 -178 -194 -208 -27 -30 -83 -90 -125 -135
-208 -219 -243 -261 -235 -280 3 -8 9 -15 14 -15 5 0 63 57 128 127 66 70 151
162 190 203 166 176 376 406 385 421 6 11 4 21 -5 28 -11 9 -44 -20 -158 -141z"/>
<path d="M6345 959 c-117 -5 -148 -9 -190 -29 -55 -25 -125 -84 -181 -151 -43
-52 -128 -143 -277 -297 -103 -106 -120 -133 -86 -140 15 -3 178 159 329 328
131 147 178 190 234 216 l52 24 592 3 c594 3 650 6 594 36 -14 7 -23 8 -27 1
-8 -13 -81 -13 -105 0 -21 11 -719 18 -935 9z"/>
<path d="M5589 907 c-20 -19 -144 -153 -243 -262 -15 -16 -50 -54 -77 -83 -47
-50 -59 -75 -40 -86 5 -3 40 27 78 67 155 161 309 329 317 348 15 33 -7 43
-35 16z"/>
<path d="M3453 825 c-3 -9 -2 -19 2 -23 3 -4 253 -9 553 -12 547 -5 547 -5
594 -28 55 -27 152 -128 210 -218 29 -44 44 -60 50 -52 25 40 -89 211 -188
281 -95 67 -82 66 -677 67 -476 0 -538 -2 -544 -15z"/>
<path d="M6274 831 c-90 -22 -192 -103 -268 -215 -38 -54 -60 -112 -46 -121 5
-3 31 27 60 65 101 140 167 197 250 218 31 8 225 13 610 14 557 3 565 3 565
23 0 12 -6 19 -15 17 -76 -17 -100 -18 -130 -6 -26 11 -130 14 -514 13 -264
-1 -495 -4 -512 -8z"/>
<path d="M3740 722 c-68 -1 -129 -7 -134 -12 -14 -14 -73 -12 -96 2 -16 10
-23 10 -37 -4 -9 -10 -14 -20 -11 -24 4 -3 233 -7 510 -8 494 -2 504 -3 545
-24 58 -30 151 -119 231 -220 56 -70 68 -81 70 -62 4 25 -21 65 -107 172 -63
79 -130 134 -191 158 -36 15 -514 28 -780 22z"/>
<path d="M6485 720 c-138 -5 -154 -7 -205 -32 -30 -15 -74 -44 -97 -64 -70
-59 -213 -263 -213 -301 0 -25 16 -11 63 56 101 143 223 258 300 283 20 7 223
11 557 13 448 1 525 4 525 16 0 17 -1 17 -450 27 -181 4 -397 5 -480 2z"/>
<path d="M3490 586 c0 -8 8 -20 18 -25 10 -5 189 -9 435 -10 479 0 488 -1 581
-77 31 -25 56 -48 56 -52 1 -17 63 -73 75 -68 44 17 -83 163 -185 214 l-55 27
-462 3 c-408 3 -463 1 -463 -12z"/>
<path d="M6430 591 c-91 -19 -191 -93 -234 -173 -30 -56 -6 -94 26 -40 44 74
139 149 212 166 15 4 220 7 454 7 363 0 430 2 450 15 12 8 20 19 17 24 -7 12
-871 12 -925 1z"/>
<path d="M3604 468 c-4 -6 1 -17 11 -25 15 -10 88 -13 344 -14 179 0 344 -3
366 -5 63 -8 132 -53 206 -133 46 -51 72 -72 79 -65 6 6 -8 31 -43 74 -87 109
-145 150 -234 169 -74 15 -720 15 -729 -1z"/>
<path d="M6500 471 c-69 -14 -129 -52 -194 -123 -35 -38 -69 -80 -76 -94 -28
-52 4 -34 80 43 127 132 109 127 532 131 289 3 359 6 368 17 7 8 9 18 6 24 -7
11 -661 13 -716 2z"/>
<path d="M5820 431 c-15 -29 -12 -41 9 -41 24 0 45 25 37 45 -8 21 -33 19 -46
-4z"/>
<path d="M5446 405 c-21 -16 -15 -45 8 -45 8 0 22 10 30 22 25 36 0 51 -38 23z"/>
<path d="M5076 374 c-12 -31 -7 -45 16 -42 29 4 35 34 10 47 -16 8 -21 7 -26
-5z"/>
<path d="M3975 357 c-55 -4 -127 -9 -159 -10 -37 -1 -61 -7 -63 -14 -6 -16
-29 -15 267 -13 278 1 322 -6 386 -65 44 -39 54 -42 54 -17 0 27 -69 87 -120
106 -53 19 -217 25 -365 13z"/>
<path d="M6475 336 c-62 -29 -110 -78 -101 -102 6 -16 8 -15 29 3 12 11 42 33
66 49 l44 29 254 3 c189 3 253 7 250 15 -2 7 -21 11 -45 9 -22 -1 -43 2 -47 8
-4 6 -81 10 -203 10 -186 0 -200 -1 -247 -24z"/>
<path d="M4694 306 c-8 -21 13 -46 32 -39 20 8 13 47 -9 51 -9 2 -20 -4 -23
-12z"/>
<path d="M5356 304 c-20 -20 -20 -33 -1 -41 20 -7 55 24 48 43 -7 19 -28 18
-47 -2z"/>
<path d="M6064 305 c-7 -18 2 -45 15 -45 5 0 17 7 26 16 12 12 13 19 4 30 -15
18 -38 18 -45 -1z"/>
<path d="M5457 232 c-20 -21 -22 -38 -6 -47 14 -9 49 24 49 47 0 23 -22 23
-43 0z"/>
</g>
</svg>
