<?xml version="1.0" standalone="no"?>
<!DOCTYPE svg PUBLIC "-//W3C//DTD SVG 20010904//EN"
 "http://www.w3.org/TR/2001/REC-SVG-20010904/DTD/svg10.dtd">
<svg version="1.0" xmlns="http://www.w3.org/2000/svg"
 width="765.000000pt" height="358.000000pt" viewBox="0 0 765.000000 358.000000"
 preserveAspectRatio="xMidYMid meet">

<g transform="translate(0.000000,358.000000) scale(0.100000,-0.100000)"
fill="currentColor" stroke="currentColor">
<path fill="currentColor" stroke="currentColor" d="M5578 3505 c-397 -62 -712 -219 -983 -490 -431 -431 -597 -983 -474
-1575 31 -147 94 -318 155 -423 19 -32 34 -60 34 -63 0 -14 120 -183 188 -264
169 -203 418 -387 661 -487 222 -92 370 -118 656 -117 177 0 226 4 315 22 161
34 282 77 425 148 399 198 726 567 875 984 196 547 92 1160 -273 1617 -291
364 -668 582 -1118 648 -128 18 -341 18 -461 0z m182 -132 c0 -10 -11 -85 -24
-168 -14 -82 -27 -171 -31 -197 -6 -44 -25 -69 -25 -32 0 24 -55 74 -82 74
-13 0 -76 -18 -141 -40 -123 -42 -227 -54 -227 -26 0 32 184 189 347 297 92
60 171 109 175 109 4 0 8 -8 8 -17z m198 -10 c109 -62 243 -163 322 -243 78
-79 120 -134 109 -144 -8 -7 -142 -15 -356 -22 -202 -7 -213 -6 -213 11 0 20
59 392 65 413 6 18 21 15 73 -15z m-528 -27 c0 -2 -42 -39 -92 -82 -85 -72
-120 -106 -219 -216 l-34 -38 -63 15 -64 15 -36 -29 c-51 -40 -75 -68 -64 -74
4 -3 40 -13 79 -22 67 -15 71 -18 70 -42 -2 -22 4 -27 43 -39 44 -14 45 -13
67 14 13 15 23 30 23 33 0 13 32 19 50 9 11 -6 35 -31 55 -57 42 -55 43 -73
15 -227 -25 -137 -25 -161 0 -186 32 -32 60 -25 109 28 58 61 78 72 135 72 60
0 86 24 86 81 0 33 6 47 35 76 42 42 61 39 58 -8 -5 -69 -23 -487 -25 -582 -2
-88 0 -101 17 -113 28 -20 53 -17 80 11 17 16 25 35 25 58 0 57 19 548 25 622
2 39 5 93 5 121 l0 51 243 6 c133 3 253 8 267 11 14 2 53 7 86 10 l61 7 23
-55 c12 -30 20 -63 18 -73 -5 -28 -49 -44 -88 -33 -20 6 -39 6 -50 0 -10 -5
-59 -61 -109 -124 -50 -63 -96 -118 -101 -121 -14 -9 -12 -48 3 -69 8 -10 31
-21 52 -25 33 -5 40 -11 50 -41 15 -45 35 -48 77 -11 33 29 33 30 33 121 0 84
2 93 24 111 13 10 27 19 32 19 12 0 26 -35 34 -82 5 -35 9 -38 38 -38 26 0 37
6 50 30 34 57 90 28 85 -44 l-3 -41 -56 -3 c-50 -3 -57 -6 -69 -30 -6 -15 -17
-38 -24 -52 -9 -19 -30 -31 -86 -51 -41 -14 -107 -39 -147 -57 -116 -52 -129
-46 -153 74 -13 64 -33 104 -53 104 -6 -1 -46 -32 -87 -70 -84 -77 -84 -86 -7
-105 36 -9 44 -16 52 -45 6 -21 24 -43 47 -59 49 -34 62 -61 54 -106 -9 -46
-36 -58 -90 -39 -71 25 -82 21 -106 -43 -29 -79 -34 -107 -21 -132 12 -21 14
-21 444 -21 l432 0 97 -148 c53 -81 110 -170 127 -198 20 -33 40 -53 55 -56
13 -3 64 11 113 31 l91 35 19 119 20 118 -37 -6 c-25 -4 -54 0 -93 15 -56 21
-117 63 -117 81 0 5 76 9 175 9 l175 0 0 -57 c0 -184 -84 -463 -197 -658 -199
-343 -505 -608 -859 -745 -148 -57 -150 -53 -44 47 52 50 124 129 160 177 36
47 69 86 75 86 5 0 20 -18 33 -41 13 -22 27 -39 32 -37 19 7 198 160 259 222
51 51 64 72 66 98 4 58 14 74 71 119 73 59 111 107 162 209 38 76 50 110 38
110 -3 0 -33 -13 -68 -29 -35 -16 -72 -31 -83 -33 -44 -10 -70 20 -190 212
-65 105 -130 200 -143 211 -19 15 -41 19 -97 19 l-72 0 -24 -37 c-13 -21 -32
-39 -43 -41 -10 -2 -50 18 -91 47 -71 49 -76 51 -143 51 -38 0 -89 -7 -113
-16 -32 -11 -62 -14 -106 -10 l-63 7 -31 -56 c-29 -52 -126 -151 -137 -141 -3
3 -6 39 -7 80 -1 44 -7 81 -15 90 -17 21 -74 20 -91 -1 -16 -18 -15 -159 1
-326 l10 -97 62 -60 c35 -34 93 -81 130 -107 86 -59 129 -64 260 -33 101 25
135 23 168 -10 14 -14 20 -34 20 -67 0 -46 3 -50 66 -110 56 -53 65 -66 60
-87 -8 -31 -26 -35 -101 -20 -55 11 -315 24 -476 24 l-66 0 -17 122 c-10 68
-18 123 -19 123 -1 0 -23 17 -49 38 -25 20 -51 37 -57 37 -15 0 -14 -73 4
-204 8 -61 13 -111 12 -112 -1 -1 -121 -5 -267 -9 -146 -4 -268 -9 -272 -11
-28 -17 -162 244 -213 414 l-6 22 305 0 c293 0 307 1 326 20 24 24 25 49 6 76
-14 18 -31 19 -340 22 -296 3 -325 4 -330 20 -23 80 -56 316 -56 407 l0 45
240 0 c227 0 241 1 260 20 26 26 25 54 -2 80 -21 19 -34 20 -260 20 l-238 0 0
28 c1 78 27 234 41 243 35 22 64 4 78 -48 10 -37 51 -43 81 -13 18 18 21 29
16 62 -9 54 -25 82 -85 151 -55 62 -55 63 -25 135 13 32 15 33 56 27 40 -6 44
-4 61 25 28 51 31 100 8 136 -24 40 -154 152 -184 159 -22 6 -244 -72 -272
-95 -22 -18 -101 -142 -138 -215 -53 -108 -103 -250 -126 -362 -32 -157 -42
-143 104 -143 l125 0 46 35 c27 21 57 35 74 35 l28 0 -5 -67 c-2 -38 -6 -74
-8 -80 -3 -10 -62 -13 -250 -13 l-246 0 6 68 c10 106 44 269 76 366 135 404
464 770 848 942 128 58 291 108 291 90z m954 -52 c284 -112 557 -331 740 -592
129 -185 241 -481 260 -688 4 -38 9 -84 12 -101 l5 -33 -181 0 c-99 0 -180 1
-181 3 0 1 -2 22 -5 47 -4 30 -17 60 -40 89 -40 52 -42 64 -12 85 44 31 81 12
149 -80 l40 -54 59 0 c71 0 70 -4 40 133 -61 272 -184 515 -355 694 l-73 78
-32 -30 c-18 -16 -50 -56 -71 -87 -44 -65 -56 -75 -72 -59 -15 15 -77 190 -69
195 4 2 41 9 82 16 108 18 110 20 53 67 -64 53 -83 62 -107 53 -12 -4 -37 -10
-57 -14 -36 -6 -38 -5 -89 64 -28 38 -100 115 -158 171 -121 114 -120 115 62
43z m-1506 -693 c4 -25 -90 -207 -146 -284 -21 -28 -51 -71 -66 -94 -14 -24
-33 -43 -41 -43 -24 0 -46 43 -39 78 6 27 2 36 -30 64 -54 48 -48 85 27 166
32 33 57 39 101 22 18 -7 34 -6 52 2 23 11 25 17 21 50 -6 41 4 55 50 67 37
11 67 -1 71 -28z m1924 -575 c57 -49 64 -65 44 -104 -20 -38 -32 -42 -126 -42
-58 0 -83 4 -94 16 -33 32 -10 87 39 96 14 2 21 13 23 33 8 67 38 67 114 1z
m-445 -61 c76 -35 113 -60 113 -77 0 -4 -70 -8 -155 -8 -85 0 -155 3 -155 7 0
18 85 113 101 113 10 0 53 -16 96 -35z m-1653 -247 c3 -24 8 -77 11 -118 6
-73 30 -242 41 -287 6 -22 3 -23 -47 -23 -61 0 -89 -19 -89 -61 0 -41 32 -59
108 -59 42 0 64 -4 66 -12 16 -58 78 -213 122 -307 30 -63 52 -116 49 -119 -2
-3 -41 -7 -87 -11 l-82 -6 60 -53 59 -53 66 2 66 2 71 -81 c68 -76 172 -173
256 -237 21 -16 34 -31 29 -32 -17 -6 -185 58 -285 108 -240 120 -447 297
-602 512 -178 249 -270 498 -301 810 l-7 67 246 0 245 0 5 -42z m986 -1090 c0
-1 16 -79 35 -173 38 -185 43 -235 21 -235 -7 0 -49 21 -92 47 -44 25 -106 62
-139 81 -86 51 -168 115 -249 196 l-71 71 90 5 c120 7 405 13 405 8z m633 -15
c20 -3 37 -10 37 -15 0 -26 -215 -220 -334 -302 -136 -92 -146 -95 -146 -32 0
15 -13 93 -30 173 -16 79 -30 156 -30 170 l0 26 233 -7 c127 -4 249 -10 270
-13z"/>
<path fill="currentColor" d="M6023 2684 c-15 -39 38 -67 60 -32 8 12 7 21 -2 32 -17 21 -50 20
-58 0z"/>
<path fill="currentColor" d="M5902 2568 c-21 -21 -14 -58 14 -68 14 -6 29 -10 34 -10 13 0 40 30
40 45 0 36 -62 59 -88 33z"/>
<path fill="currentColor" d="M5152 2271 c-8 -4 -12 -19 -10 -32 4 -29 45 -34 61 -7 19 30 -19 60
-51 39z"/>
<path fill="currentColor" d="M5339 2264 c-17 -21 0 -49 32 -49 30 0 38 33 13 52 -23 17 -29 16
-45 -3z"/>
<path fill="currentColor" d="M5241 2146 c-15 -17 1 -56 23 -56 23 0 41 30 29 48 -14 23 -37 26
-52 8z"/>
<path fill="currentColor" d="M5435 2139 c-10 -30 18 -58 43 -43 9 6 17 22 17 35 0 34 -50 41 -60
8z"/>
<path fill="currentColor" d="M5333 2034 c-15 -39 38 -67 60 -32 8 12 7 21 -2 32 -17 21 -50 20
-58 0z"/>
<path fill="currentColor" d="M5480 1850 c-11 -11 -20 -29 -20 -40 0 -11 9 -29 20 -40 17 -17 33
-20 119 -20 92 0 101 2 115 22 21 30 20 54 -4 78 -17 17 -33 20 -115 20 -82 0
-98 -3 -115 -20z"/>
<path fill="currentColor" d="M5056 1574 c-9 -22 12 -46 38 -42 15 2 21 10 21 28 0 20 -6 26 -26
28 -18 2 -29 -3 -33 -14z"/>
<path fill="currentColor" d="M5234 1576 c-10 -26 4 -48 28 -44 17 2 23 10 23 28 0 18 -6 26 -23
28 -13 2 -25 -3 -28 -12z"/>
<path fill="currentColor" d="M5146 1464 c-22 -21 -3 -56 27 -52 37 5 33 67 -5 68 -4 0 -14 -7 -22
-16z"/>
<path fill="currentColor" d="M5343 1473 c-19 -7 -16 -53 3 -60 18 -7 45 6 51 24 4 11 -23 44 -35
42 -4 0 -13 -3 -19 -6z"/>
<path fill="currentColor" d="M5144 1035 c-10 -25 4 -45 30 -45 27 0 42 26 25 46 -15 19 -48 18
-55 -1z"/>
<path fill="currentColor" d="M5334 1036 c-11 -28 4 -48 33 -44 22 2 28 8 28 28 0 20 -6 26 -28 28
-18 2 -29 -2 -33 -12z"/>
<path fill="currentColor" d="M5240 936 c-27 -33 18 -72 48 -42 13 13 14 20 6 34 -15 23 -38 26
-54 8z"/>
<path fill="currentColor" d="M5440 936 c-27 -33 18 -72 48 -42 13 13 14 20 6 34 -15 23 -38 26
-54 8z"/>
<path fill="currentColor" d="M4420 1273 c0 -4 6 -28 14 -53 16 -55 49 -67 68 -25 10 22 8 30 -9
53 -18 25 -73 44 -73 25z"/>
</g>
</svg>
