<?xml version="1.0" standalone="no"?>
<!DOCTYPE svg PUBLIC "-//W3C//DTD SVG 20010904//EN"
 "http://www.w3.org/TR/2001/REC-SVG-20010904/DTD/svg10.dtd">
<svg version="1.0" xmlns="http://www.w3.org/2000/svg"
 width="573.000000pt" height="573.000000pt" viewBox="0 0 573.000000 573.000000"
 preserveAspectRatio="xMidYMid meet">

	<defs> 
		<linearGradient id="GFGGradient"> 
			<stop stop-color="#7DCA7A" offset="0"/>
			<stop stop-color="#7DCA7A" offset="100%"/>
		</linearGradient> 
	</defs>

<g transform="translate(0.000000,573.000000) scale(0.100000,-0.100000)"
fill="url(#GFGGradient)" stroke="none">
<path d="M3489 5297 c-46 -31 -64 -71 -53 -116 12 -47 56 -76 141 -90 449 -78
780 -254 983 -523 146 -194 183 -342 145 -592 -14 -94 -14 -99 5 -126 34 -48
142 -142 152 -132 5 5 18 54 30 110 12 57 25 99 31 95 15 -9 74 -145 112 -258
74 -220 100 -424 92 -700 -7 -207 -26 -337 -77 -518 -105 -373 -281 -676 -550
-948 -356 -359 -776 -545 -1365 -604 -368 -37 -605 -89 -795 -175 -63 -28
-121 -54 -129 -57 -18 -8 -11 58 25 237 45 230 133 459 258 674 89 153 172
264 301 402 168 180 326 300 530 401 243 122 404 165 1075 289 47 9 111 23
144 31 32 8 60 12 62 10 4 -4 -88 -284 -104 -312 -6 -11 -34 -68 -62 -128 -86
-178 -177 -305 -324 -453 -250 -250 -474 -358 -870 -419 -104 -16 -147 -11
-166 18 -12 20 -4 30 116 147 209 204 409 360 641 501 67 40 120 75 119 77 -2
1 -59 -16 -127 -38 -208 -68 -446 -192 -627 -327 -98 -73 -498 -467 -562 -553
-47 -65 -80 -121 -80 -138 0 -5 30 -1 68 8 93 25 268 48 452 60 348 23 547 68
773 173 266 124 508 344 697 632 126 193 239 474 285 710 22 118 57 356 52
361 -1 1 -36 -9 -77 -22 -102 -33 -306 -78 -323 -71 -11 4 -16 44 -21 174 -4
92 -5 175 -1 184 12 33 53 39 258 40 111 0 210 4 220 8 15 5 -29 48 -220 218
-131 116 -276 244 -323 284 -94 80 -628 556 -864 769 -221 200 -609 540 -616
540 -8 0 -306 -256 -430 -369 -52 -48 -149 -134 -215 -191 -66 -58 -205 -182
-310 -275 -104 -94 -291 -259 -415 -367 -124 -107 -288 -252 -364 -322 -76
-69 -147 -126 -156 -126 -10 0 -29 9 -43 20 -14 11 -30 20 -35 20 -28 0 -25
-299 4 -487 57 -369 280 -669 612 -820 121 -55 602 -243 622 -243 25 0 30 29
40 199 15 274 -14 426 -125 639 -70 136 -212 285 -365 383 -41 26 -87 58 -102
69 l-28 22 0 134 c0 74 5 156 12 182 15 59 43 87 487 481 190 168 419 373 511
455 228 206 278 246 303 246 14 0 61 -37 128 -98 122 -112 486 -440 768 -691
272 -241 347 -314 373 -364 23 -41 23 -47 23 -404 0 -199 -3 -364 -7 -368 -3
-3 -105 -26 -227 -50 -399 -79 -674 -178 -939 -337 -325 -195 -600 -502 -797
-888 -124 -245 -179 -406 -225 -655 -34 -192 -50 -378 -49 -574 1 -214 -5
-209 114 -100 116 105 242 193 358 248 156 74 260 97 607 136 265 29 372 46
535 85 585 139 1057 471 1386 974 134 203 215 380 283 615 80 273 100 445 94
790 -4 213 -7 248 -32 356 -67 292 -170 545 -351 870 -136 244 -229 369 -386
521 -211 202 -578 381 -874 427 -185 29 -179 29 -216 4z m-2203 -2102 c148
-58 319 -145 393 -201 109 -82 216 -205 266 -307 59 -120 74 -177 82 -319 5
-103 4 -118 -10 -118 -32 0 -49 14 -74 64 -76 150 -198 307 -310 398 -69 57
-178 128 -196 128 -5 0 22 -33 61 -74 131 -138 268 -344 244 -368 -14 -14 -50
-4 -96 27 -20 14 -41 25 -45 25 -5 0 -12 7 -15 16 -3 8 -10 12 -16 9 -6 -3
-13 1 -16 9 -3 9 -14 16 -24 16 -11 0 -22 5 -26 12 -5 7 -2 9 7 4 8 -4 5 0 -5
8 -15 12 -23 13 -35 4 -13 -10 -14 -10 -4 2 10 11 -3 28 -70 92 -45 43 -86 78
-90 78 -5 0 -6 4 -2 9 3 5 -4 16 -15 24 -26 18 -83 142 -114 249 -26 92 -50
234 -40 249 9 16 33 10 150 -36z"/>
<path d="M2085 5285 c-17 -7 -87 -27 -155 -44 -517 -133 -858 -415 -994 -821
-47 -141 -60 -278 -48 -508 5 -94 12 -175 15 -178 4 -4 32 15 63 42 176 153
280 224 534 370 200 114 249 148 338 236 192 191 274 407 297 789 8 121 1 136
-50 114z m-130 -242 c-3 -10 -8 -40 -11 -67 -18 -213 -126 -423 -285 -554 -77
-63 -222 -147 -238 -138 -13 8 1 53 39 124 32 60 115 166 230 294 70 78 70 78
-36 7 -171 -114 -280 -235 -369 -409 -27 -50 -61 -102 -80 -117 -61 -51 -126
-95 -132 -89 -3 3 0 40 7 83 56 352 239 601 560 763 63 32 278 113 319 119 2
1 0 -7 -4 -16z"/>
<path d="M3935 4738 c8 -178 22 -239 72 -322 61 -100 143 -173 273 -243 163
-87 228 -118 236 -110 4 3 7 33 8 65 1 51 -5 71 -46 153 -64 128 -138 212
-292 329 -26 20 -19 7 45 -80 54 -74 134 -218 126 -227 -7 -7 -77 36 -77 47 0
8 -97 72 -104 67 -7 -5 -35 26 -31 34 3 4 -3 17 -15 29 -11 11 -17 20 -13 20
4 0 2 5 -5 12 -7 7 -12 20 -12 29 0 10 -6 24 -14 31 -17 17 -26 46 -31 95 -18
179 -20 188 -70 209 -59 24 -58 28 -50 -138z"/>
<path d="M2543 3793 c-12 -2 -27 -11 -34 -20 -15 -18 -25 -180 -14 -249 6 -41
10 -47 43 -61 46 -19 264 -15 285 6 9 9 11 50 9 149 -3 159 -5 168 -35 176
-24 6 -219 6 -254 -1z"/>
<path d="M3063 3793 c-42 -8 -48 -28 -48 -169 0 -171 -3 -167 143 -172 139 -5
176 8 185 64 10 59 8 185 -3 226 -8 27 -18 39 -42 47 -29 10 -188 13 -235 4z"/>
<path d="M658 3455 c-107 -145 -171 -302 -189 -461 -23 -213 40 -443 165 -596
25 -31 50 -67 55 -80 5 -13 12 -90 16 -173 8 -174 27 -259 84 -380 112 -239
317 -434 538 -510 96 -34 174 -44 367 -52 l168 -6 -15 29 c-43 83 -220 263
-337 343 -74 51 -330 188 -330 177 0 -2 35 -30 78 -62 81 -60 288 -261 280
-270 -9 -8 -101 16 -143 39 -22 12 -42 21 -45 20 -8 -1 -52 17 -126 52 -97 47
-174 130 -242 262 -52 101 -118 280 -108 291 3 3 54 -11 113 -31 60 -20 160
-50 223 -67 321 -86 571 -245 718 -457 20 -29 40 -53 43 -53 13 0 110 242 104
261 -9 27 -185 172 -290 237 -111 69 -267 143 -450 215 -77 31 -160 65 -185
78 -82 40 -194 122 -265 193 -205 207 -262 435 -164 659 l31 69 -22 121 c-11
67 -24 140 -28 162 l-8 40 -36 -50z"/>
<path d="M2543 3274 c-12 -3 -27 -12 -34 -21 -15 -18 -25 -180 -14 -249 9 -66
41 -77 198 -72 156 4 151 -2 143 178 -5 100 -11 139 -22 150 -11 11 -43 15
-132 17 -64 1 -127 -1 -139 -3z"/>
<path d="M3063 3273 c-42 -8 -48 -28 -48 -169 0 -171 -3 -167 143 -172 139 -5
176 8 185 64 10 59 8 185 -3 226 -8 27 -18 39 -42 47 -29 10 -188 13 -235 4z"/>
</g>
</svg>
