<svg height="16" viewBox="0 0 16 16" width="16" xmlns="http://www.w3.org/2000/svg"><path d="m14 12c-.372.011-.716.121-1.008.305l-2.212-2.155c.434-.547.708-1.239.74-1.993l1.57-.157c.225.556.76.941 1.385.941.823 0 1.49-.667 1.49-1.49s-.667-1.49-1.49-1.49c-.749 0-1.368.552-1.474 1.271l-1.591.128c-.224-1.136-.973-2.06-1.978-2.521l.308-.839h.26c1.099-.008 1.986-.9 1.986-2 0-1.105-.895-2-2-2s-2 .895-2 2c0 .742.404 1.39 1.004 1.735l-.27.855c-.227-.054-.487-.084-.754-.084-.83 0-1.59.296-2.181.789l-2.994-3.004c.141-.224.225-.497.225-.79 0-.828-.672-1.5-1.5-1.5s-1.5.672-1.5 1.5c0 .823.663 1.492 1.484 1.5.281-.001.544-.079.767-.214l2.993 3.004c-.474.588-.76 1.344-.76 2.168v.045.158l-.66.11c-.313-.72-1.019-1.214-1.839-1.214-1.105 0-2 .895-2 2s.895 2 2 2 2-.895 2-2c0-.02 0-.039-.001-.059l.63-.097c.242.843.768 1.538 1.466 1.992l-.556 1.188c-.161-.049-.347-.078-.539-.08-.006 0-.012 0-.017 0-1.105 0-2 .895-2 2s.895 2 2 2 2-.895 2-2c0-.64-.301-1.211-.769-1.577l.566-1.153c.364.146.787.231 1.229.231.847 0 1.621-.311 2.216-.824l2.176 2.124c-.25.33-.4.748-.4 1.2 0 1.105.895 2 2 2s2-.895 2-2-.895-2-2-2zm-9 3c-.552 0-1-.448-1-1s.448-1 1-1 1 .448 1 1-.448 1-1 1zm3-4.5c-1.381 0-2.5-1.119-2.5-2.5s1.119-2.5 2.5-2.5 2.5 1.119 2.5 2.5-1.119 2.5-2.5 2.5z" fill="#444"/></svg>