<?xml version="1.0" standalone="no"?>
<!DOCTYPE svg PUBLIC "-//W3C//DTD SVG 20010904//EN"
 "http://www.w3.org/TR/2001/REC-SVG-20010904/DTD/svg10.dtd">
<svg version="1.0" xmlns="http://www.w3.org/2000/svg"
 width="400.000000pt" height="400.000000pt" viewBox="0 0 400.000000 400.000000"
 preserveAspectRatio="xMidYMid meet">

<defs>
    <linearGradient id="gradSquare" x1="0%" y1="0%" x2="100%" y2="100%">
        <stop offset="0%" style="stop-color:red;stop-opacity:1" />
        <stop offset="100%" style="stop-color:yellow;stop-opacity:1" />
    </linearGradient>
</defs>
<g transform="translate(0.000000,400.000000) scale(0.100000,-0.100000)"
fill="url(#gradSquare)" stroke="none">
<path d="M150 3628 c-26 -14 -57 -41 -75 -66 l-30 -44 -3 -1316 c-3 -1470 -8
-1367 68 -1436 21 -19 56 -39 77 -45 22 -6 137 -11 271 -11 l232 0 0 -120 c0
-164 24 -219 115 -261 38 -18 85 -19 905 -19 829 0 867 1 907 19 55 26 101 89
109 152 4 27 10 49 14 49 5 0 111 -27 236 -61 147 -39 240 -59 263 -57 25 3
40 -1 51 -13 16 -18 256 -89 303 -89 37 0 51 18 128 171 117 235 195 453 243
679 32 154 39 240 26 330 -14 95 -46 166 -105 229 -59 63 -131 99 -268 136
-91 24 -106 31 -102 45 15 46 275 1023 280 1053 15 76 -34 164 -110 198 -111
51 -232 -8 -268 -129 -8 -26 -74 -270 -147 -542 l-132 -496 -107 29 c-91 24
-120 28 -203 24 l-98 -4 0 326 c0 297 -2 330 -19 366 -12 26 -103 124 -252
272 -263 260 -252 253 -404 253 l-89 0 -186 185 c-115 115 -199 190 -222 200
-32 13 -124 15 -701 15 l-663 0 -44 -22z m1477 -240 l134 -133 -464 -5 -464
-5 -48 -30 c-32 -20 -56 -45 -72 -74 l-23 -44 0 -1124 0 -1123 -238 0 c-230 0
-240 1 -258 21 -18 20 -19 58 -22 1283 -1 693 0 1276 3 1294 3 17 16 41 27 52
21 20 36 20 657 20 l634 0 134 -132z m2013 -368 c11 -11 20 -30 20 -42 -1 -24
-273 -1044 -281 -1052 -6 -6 -91 14 -102 23 -4 4 56 243 133 532 111 416 144
528 161 542 28 22 44 22 69 -3z m-1260 -135 l125 -125 -128 0 -127 0 0 125 c0
69 1 125 3 125 1 0 58 -56 127 -125z m-511 -11 c26 -33 26 -36 2 -65 l-19 -24
-387 0 c-371 0 -387 1 -401 19 -21 29 -17 63 8 80 19 14 74 16 399 16 l378 0
20 -26z m481 -634 c35 -35 19 -83 -33 -95 -12 -3 -296 -4 -630 -3 -589 3 -609
4 -623 22 -21 29 -17 63 8 80 20 14 97 16 640 16 605 0 618 0 638 -20z m950
-439 c206 -56 394 -111 417 -122 83 -40 143 -142 143 -241 0 -21 -2 -38 -4
-38 -10 0 -1242 331 -1259 338 -17 7 -14 14 28 60 71 79 152 115 245 108 30
-2 224 -50 430 -105z m-1125 -206 c30 -29 31 -36 6 -66 l-19 -24 -529 -2
c-580 -3 -575 -4 -581 54 -6 64 -18 63 571 63 l528 0 24 -25z m1019 -158 c355
-96 648 -176 651 -178 7 -7 -50 -234 -85 -339 -65 -195 -191 -460 -218 -460
-9 0 -41 7 -72 16 l-57 16 -7 76 c-3 43 -10 90 -14 106 -11 41 -51 69 -86 60
-23 -6 -35 -21 -68 -93 -21 -47 -40 -87 -42 -88 -1 -2 -117 28 -257 65 l-254
69 -1 124 c-2 187 -20 239 -84 239 -33 0 -52 -21 -80 -85 -12 -27 -41 -84 -66
-126 l-45 -77 -97 30 c-53 17 -99 32 -100 33 -2 2 8 23 21 47 66 113 228 504
283 681 10 31 21 57 24 57 4 0 298 -78 654 -173z m-1304 -477 c32 -32 25 -66
-17 -89 -32 -17 -759 -15 -793 2 -35 17 -40 69 -8 91 20 14 71 16 410 16 375
0 389 -1 408 -20z"/>
</g>
</svg>
