<?xml version="1.0" standalone="no"?>
<!DOCTYPE svg PUBLIC "-//W3C//DTD SVG 20010904//EN"
 "http://www.w3.org/TR/2001/REC-SVG-20010904/DTD/svg10.dtd">
<svg version="1.0" xmlns="http://www.w3.org/2000/svg"
 width="443.000000pt" height="443.000000pt" viewBox="0 0 443.000000 443.000000"
 preserveAspectRatio="xMidYMid meet">
<defs>
    <linearGradient id="gradSquare" x1="0%" y1="0%" x2="100%" y2="100%">
        <stop offset="0%" style="stop-color:red;stop-opacity:1" />
        <stop offset="100%" style="stop-color:yellow;stop-opacity:1" />
    </linearGradient>
</defs>
<g transform="translate(0.000000,443.000000) scale(0.100000,-0.100000)"
fill="url(#gradSquare)" stroke="none">
<path d="M1056 4250 c-16 -5 -40 -19 -54 -32 -53 -50 -52 -27 -52 -859 l0
-771 38 5 c20 3 90 11 155 18 l117 13 0 663 0 663 811 0 812 0 -6 55 c-10 95
-76 183 -172 227 l-50 23 -785 2 c-432 1 -798 -2 -814 -7z"/>
<path d="M1484 3800 c-11 -4 -34 -24 -52 -44 l-32 -37 0 -554 0 -554 38 -6
c42 -7 218 -50 245 -60 16 -7 17 20 17 479 l0 486 816 0 816 0 -7 47 c-10 68
-47 134 -100 181 -86 75 -44 72 -929 71 -435 0 -800 -4 -812 -9z"/>
<path d="M1920 3348 c-81 -42 -80 -38 -80 -480 l0 -387 68 -40 c93 -54 178
-118 259 -195 l70 -65 742 -3 743 -3 19 -24 c23 -28 24 -60 5 -87 -14 -18 -36
-19 -705 -24 l-690 -5 44 -75 c25 -41 59 -110 76 -152 l31 -78 609 0 c596 0
609 0 629 -20 29 -29 26 -74 -6 -99 -26 -21 -35 -21 -609 -21 l-582 0 13 -67
c7 -38 16 -105 19 -150 l7 -83 563 0 c554 0 563 0 589 -21 33 -26 35 -70 4
-99 -21 -20 -32 -20 -594 -20 l-572 0 -11 -67 c-11 -60 -44 -193 -58 -230 -4
-11 109 -13 606 -13 598 0 611 0 631 -20 25 -25 26 -61 1 -91 l-19 -24 -646
-3 c-641 -3 -645 -3 -651 -23 -18 -55 -156 -240 -248 -331 l-98 -98 1020 2
c1012 3 1020 3 1047 24 15 11 37 33 48 48 21 27 21 34 24 1167 l2 1139 -317 0
c-300 0 -320 1 -351 20 -18 11 -41 34 -52 52 -19 31 -20 51 -20 351 l0 317
-758 0 -758 0 -44 -22z"/>
<path d="M3617 3363 c-4 -3 -7 -138 -7 -300 l0 -293 307 0 308 0 -300 300
c-165 165 -300 300 -301 300 0 0 -4 -3 -7 -7z"/>
<path d="M1172 2459 c-93 -47 -192 -204 -261 -417 -21 -64 -41 -132 -45 -151
l-6 -34 72 7 c177 15 392 18 541 7 88 -7 161 -10 164 -7 9 8 -35 169 -69 256
-91 230 -205 359 -318 360 -19 0 -54 -10 -78 -21z"/>
<path d="M851 2410 c-260 -91 -488 -281 -628 -525 -43 -75 -113 -241 -113
-270 0 -15 3 -15 32 4 113 74 279 142 466 190 l104 26 33 130 c38 152 87 279
151 388 25 44 44 81 42 82 -2 2 -41 -9 -87 -25z"/>
<path d="M1560 2435 c0 -2 16 -30 36 -61 71 -111 141 -292 179 -466 l17 -76
76 -17 c175 -39 355 -108 467 -179 31 -21 59 -35 61 -33 7 7 -44 144 -81 218
-61 122 -124 209 -225 309 -133 134 -282 228 -453 286 -77 26 -77 26 -77 19z"/>
<path d="M998 1731 c-172 -19 -165 -16 -172 -69 -28 -219 -30 -453 -4 -688
l10 -102 112 -13 c139 -16 477 -16 616 0 58 7 106 14 107 15 2 1 8 38 15 82
23 149 12 724 -15 751 -22 21 -523 39 -669 24z"/>
<path d="M530 1644 c-141 -43 -276 -108 -353 -169 -191 -152 -138 -315 148
-455 88 -44 349 -129 360 -118 2 2 -1 51 -7 108 -10 108 -5 591 8 643 6 24 4
27 -17 27 -13 -1 -76 -17 -139 -36z"/>
<path d="M1827 1563 c10 -153 10 -397 0 -545 l-8 -118 33 6 c75 15 273 86 355
128 150 78 233 170 233 257 -1 138 -206 284 -520 369 -41 11 -80 20 -88 20
-10 0 -11 -23 -5 -117z"/>
<path d="M110 970 c0 -24 46 -143 88 -223 110 -216 292 -399 507 -509 89 -45
222 -94 231 -85 2 2 -13 33 -34 68 -69 113 -142 307 -172 454 -7 33 -16 65
-21 71 -5 6 -37 17 -72 24 -148 28 -397 126 -487 190 -32 22 -40 25 -40 10z"/>
<path d="M2311 935 c-102 -61 -232 -111 -386 -150 l-130 -33 -26 -104 c-48
-187 -116 -353 -190 -465 -19 -30 -19 -33 -4 -33 29 0 195 70 270 113 259 149
450 388 541 675 7 23 10 42 6 41 -4 0 -40 -20 -81 -44z"/>
<path d="M865 699 c46 -215 137 -415 235 -515 56 -58 94 -77 150 -78 133 0
265 174 354 467 48 156 47 161 -6 152 -120 -21 -579 -20 -701 0 l-39 7 7 -33z"/>
</g>
</svg>
