<?xml version="1.0" standalone="no"?>
<!DOCTYPE svg PUBLIC "-//W3C//DTD SVG 20010904//EN"
 "http://www.w3.org/TR/2001/REC-SVG-20010904/DTD/svg10.dtd">
<svg version="1.0" xmlns="http://www.w3.org/2000/svg"
 width="475.000000pt" height="475.000000pt" viewBox="0 0 475.000000 475.000000"
 preserveAspectRatio="xMidYMid meet">
<defs>
    <linearGradient id="gradSquare" x1="0%" y1="0%" x2="100%" y2="100%">
        <stop offset="0%" style="stop-color:red;stop-opacity:1" />
        <stop offset="100%" style="stop-color:yellow;stop-opacity:1" />
    </linearGradient>
</defs>
<g transform="translate(0.000000,475.000000) scale(0.100000,-0.100000)"
fill="url(#gradSquare)" stroke="none">
<path d="M276 4218 c-14 -19 -16 -70 -16 -355 l0 -333 2140 0 2140 0 0 333 c0
285 -2 336 -16 355 l-15 22 -2109 0 -2109 0 -15 -22z m3844 -323 c18 -21 4
-64 -23 -70 -12 -3 -550 -4 -1196 -3 -1170 3 -1174 3 -1187 23 -12 18 -11 24
2 43 l15 22 1188 0 c1040 0 1190 -2 1201 -15z"/>
<path d="M260 1947 c0 -1326 2 -1485 16 -1505 l15 -22 2109 0 2109 0 15 22
c14 20 16 179 16 1505 l0 1483 -2140 0 -2140 0 0 -1483z m3684 1274 c19 -18
26 -35 26 -62 0 -49 24 -59 60 -24 48 46 81 36 172 -52 78 -76 108 -117 108
-147 0 -8 -11 -28 -25 -44 -36 -43 -33 -62 11 -62 26 0 43 -8 65 -29 29 -29
29 -31 29 -146 0 -154 -15 -185 -91 -185 -41 0 -46 -23 -15 -61 45 -53 37 -72
-72 -181 -61 -60 -106 -98 -119 -98 -11 0 -37 11 -57 25 -51 35 -66 33 -66 -9
0 -81 -29 -96 -185 -96 -115 0 -117 0 -146 29 -21 22 -29 39 -29 65 0 44 -19
47 -62 11 -16 -14 -36 -25 -44 -25 -30 0 -71 30 -146 108 -89 91 -99 124 -53
172 35 36 25 60 -24 60 -27 0 -44 7 -61 25 -21 22 -25 38 -28 120 -2 52 -1
111 2 131 10 50 46 84 90 84 47 0 53 14 22 51 -47 56 -38 81 66 186 104 104
131 114 185 69 33 -27 53 -24 53 9 0 40 18 73 47 89 22 13 54 16 145 14 108
-3 118 -5 142 -27z m-903 -867 c36 -18 66 -58 81 -105 33 -113 -86 -230 -202
-199 -42 11 -110 70 -110 95 0 12 -22 15 -127 15 l-128 0 -50 -121 c-27 -66
-57 -125 -66 -130 -10 -5 -96 -9 -192 -9 -161 0 -175 1 -192 20 -15 17 -16 24
-7 45 l12 25 163 0 164 0 53 125 c29 70 60 130 70 135 10 6 82 10 159 10 117
0 141 2 141 15 0 22 66 83 103 94 37 11 90 5 128 -15z m-1523 -9 c206 -36 354
-107 399 -194 l23 -44 0 -602 0 -602 -23 -44 c-68 -130 -329 -212 -672 -212
-294 0 -516 55 -630 154 -68 60 -65 24 -65 704 0 680 -3 644 65 704 93 81 231
123 515 155 65 8 300 -4 388 -19z m1523 -641 c36 -18 66 -58 81 -105 33 -113
-86 -230 -202 -199 -42 11 -110 70 -110 95 0 13 -51 15 -363 15 -312 0 -366 2
-385 16 -28 19 -28 49 0 68 19 14 73 16 385 16 312 0 363 2 363 15 0 22 66 83
103 94 37 11 90 5 128 -15z m-588 -506 c8 -13 34 -71 58 -130 l44 -108 128 0
c105 0 127 3 127 15 0 25 68 84 110 95 84 23 176 -32 199 -118 33 -119 -81
-234 -199 -202 -42 11 -110 70 -110 95 0 13 -24 15 -141 15 -77 0 -149 4 -159
10 -10 5 -41 65 -70 135 l-53 125 -164 0 -163 0 -12 25 c-9 21 -8 28 7 45 17
19 31 20 201 20 180 0 184 0 197 -22z"/>
<path d="M3698 3108 c-3 -41 -5 -44 -58 -70 -30 -15 -60 -28 -67 -28 -7 0 -27
13 -46 30 l-34 29 -56 -57 c-31 -32 -57 -62 -57 -67 0 -5 12 -21 27 -37 l26
-28 -19 -57 c-24 -71 -36 -83 -85 -83 l-39 0 0 -89 0 -90 43 -3 c40 -3 43 -5
69 -58 34 -69 34 -81 3 -110 -14 -13 -25 -28 -25 -35 0 -6 27 -37 60 -70 l60
-59 34 33 35 34 53 -23 c73 -31 78 -36 78 -86 l0 -44 90 0 90 0 0 38 c0 48 13
65 70 87 25 9 50 19 56 22 7 2 28 -10 49 -28 l36 -32 61 61 61 61 -31 36 c-18
19 -32 37 -32 38 0 15 51 122 61 128 8 5 31 9 52 9 l37 0 0 90 0 90 -44 0
c-49 0 -54 5 -84 78 l-21 52 31 36 31 35 -64 65 -63 64 -31 -30 c-37 -36 -45
-36 -115 -2 -53 26 -55 29 -58 70 l-3 42 -89 0 -89 0 -3 -42z m182 -213 c145
-51 217 -225 148 -360 -33 -63 -70 -98 -133 -126 -166 -74 -349 40 -363 224
-14 183 172 324 348 262z"/>
<path d="M3710 2798 c-31 -16 -51 -36 -67 -67 -29 -56 -29 -105 0 -161 31 -62
65 -83 140 -88 53 -3 67 0 97 20 56 38 80 82 80 148 0 96 -59 160 -152 167
-41 3 -63 -1 -98 -19z"/>
<path d="M2907 2262 c-23 -25 -22 -85 1 -105 26 -24 85 -22 107 3 43 48 10
120 -55 120 -23 0 -43 -7 -53 -18z"/>
<path d="M975 2251 c-114 -20 -188 -43 -257 -77 -225 -113 79 -267 527 -267
88 0 189 5 225 12 211 38 346 91 364 142 27 79 -55 132 -289 185 -111 25 -443
28 -570 5z"/>
<path d="M640 1811 c0 -150 5 -161 92 -203 254 -125 801 -119 1041 10 69 37
77 59 77 202 0 66 -2 120 -5 120 -3 0 -27 -11 -54 -24 -267 -136 -819 -139
-1083 -6 -34 16 -63 30 -65 30 -1 0 -3 -58 -3 -129z"/>
<path d="M640 1422 c0 -100 3 -132 16 -150 25 -35 127 -81 243 -109 147 -35
426 -43 587 -18 190 30 327 85 353 142 10 22 16 263 7 263 -2 0 -33 -14 -68
-30 -277 -130 -811 -129 -1070 1 -32 16 -60 29 -63 29 -3 0 -5 -57 -5 -128z"/>
<path d="M640 1032 c0 -145 5 -159 73 -193 216 -111 636 -133 936 -49 94 26
142 51 175 90 25 30 26 36 26 156 0 74 -4 124 -10 124 -5 0 -24 -9 -42 -20
-80 -49 -275 -93 -473 -106 -201 -13 -470 29 -613 96 -35 16 -66 30 -68 30 -2
0 -4 -57 -4 -128z"/>
<path d="M2907 1612 c-23 -25 -22 -85 1 -105 26 -24 85 -22 107 3 43 48 10
120 -55 120 -23 0 -43 -7 -53 -18z"/>
<path d="M2907 962 c-23 -25 -22 -85 1 -105 26 -24 85 -22 107 3 43 48 10 120
-55 120 -23 0 -43 -7 -53 -18z"/>
</g>
</svg>
