<?xml version="1.0" standalone="no"?>
<!DOCTYPE svg PUBLIC "-//W3C//DTD SVG 20010904//EN"
 "http://www.w3.org/TR/2001/REC-SVG-20010904/DTD/svg10.dtd">
<svg version="1.0" xmlns="http://www.w3.org/2000/svg"
 width="474.000000pt" height="474.000000pt" viewBox="0 0 474.000000 474.000000"
 preserveAspectRatio="xMidYMid meet">
<defs>
    <linearGradient id="gradSquare" x1="0%" y1="0%" x2="100%" y2="100%">
        <stop offset="0%" style="stop-color:red;stop-opacity:1" />
        <stop offset="100%" style="stop-color:yellow;stop-opacity:1" />
    </linearGradient>
</defs>
<g transform="translate(0.000000,474.000000) scale(0.100000,-0.100000)"
fill="url(#gradSquare)" stroke="none">
<path d="M1915 4589 c-933 -127 -1658 -857 -1775 -1789 -16 -127 -13 -408 5
-540 82 -587 413 -1107 911 -1434 868 -568 2040 -395 2702 399 520 623 627
1479 276 2213 -286 600 -828 1011 -1501 1138 -104 19 -508 28 -618 13z m430
-159 c378 -36 742 -184 1030 -420 105 -86 271 -263 347 -370 80 -113 182 -307
232 -442 142 -383 153 -830 29 -1212 -98 -305 -249 -553 -467 -772 -509 -509
-1253 -683 -1937 -454 -470 157 -857 493 -1082 940 -201 399 -256 822 -161
1249 116 520 435 959 894 1229 159 94 405 192 481 192 62 0 92 -76 47 -116
-13 -11 -70 -35 -127 -54 -289 -93 -581 -289 -776 -521 -275 -327 -414 -709
-415 -1133 -1 -544 245 -1045 675 -1378 792 -614 1950 -429 2510 402 104 155
195 358 244 545 58 221 67 543 21 770 -108 540 -459 994 -950 1229 -212 101
-390 149 -625 167 -77 6 -150 15 -163 20 -52 20 -53 100 -2 126 31 16 55 16
195 3z m-38 -330 c42 -25 55 -53 89 -193 l28 -117 41 -11 c22 -5 58 -16 80
-23 l40 -13 105 102 c134 131 146 135 257 75 151 -81 157 -98 104 -285 l-38
-134 62 -61 62 -61 120 35 c137 41 166 43 210 17 41 -26 123 -164 123 -209 0
-49 -12 -67 -116 -173 l-95 -95 22 -81 22 -81 131 -33 c161 -40 189 -61 200
-152 12 -93 -1 -165 -38 -204 -27 -30 -46 -38 -161 -67 l-130 -32 -24 -85 -24
-84 89 -84 c105 -98 124 -124 124 -170 0 -38 -56 -149 -98 -193 -47 -51 -73
-52 -212 -13 -69 19 -132 35 -140 35 -9 0 -41 -26 -72 -58 l-56 -57 39 -135
c43 -150 42 -174 -9 -222 -42 -40 -155 -98 -191 -98 -49 0 -68 14 -166 117
l-90 96 -84 -24 -84 -24 -33 -130 c-30 -114 -38 -134 -68 -161 -39 -38 -103
-50 -198 -39 -96 11 -116 37 -157 201 l-33 131 -82 22 -83 22 -89 -91 c-136
-140 -162 -147 -287 -74 -83 48 -117 88 -117 137 0 16 16 83 35 150 l35 121
-61 62 -60 61 -134 -38 c-186 -53 -204 -46 -284 101 -63 116 -61 122 77 262
l96 97 -19 76 c-11 41 -22 79 -25 84 -3 4 -57 20 -120 36 -138 33 -165 46
-190 88 -26 42 -28 192 -4 242 23 48 47 61 189 96 70 18 128 37 130 43 1 6 12
43 23 83 l19 72 -103 99 c-137 132 -139 146 -55 290 42 71 81 102 128 102 16
0 84 -16 153 -36 l123 -35 60 59 59 59 -36 126 c-20 69 -36 138 -36 153 0 45
32 84 102 125 144 84 160 82 289 -54 l96 -100 83 19 c95 22 88 13 125 163 32
128 45 153 87 174 50 25 203 23 245 -3z"/>
<path d="M2106 3853 c-44 -182 -50 -189 -187 -222 -46 -11 -97 -25 -113 -31
-54 -20 -85 -4 -193 103 -101 99 -102 100 -132 87 -53 -21 -53 -27 -16 -158
36 -124 42 -166 25 -192 -12 -20 -170 -179 -195 -196 -29 -21 -65 -17 -197 21
-131 37 -137 37 -158 -16 -13 -30 -12 -31 87 -132 107 -108 123 -139 103 -193
-6 -16 -20 -67 -31 -113 -33 -137 -40 -143 -221 -187 l-118 -28 0 -48 c0 -54
-18 -44 163 -89 104 -26 142 -52 158 -112 6 -23 22 -80 36 -127 35 -118 29
-135 -92 -247 -52 -48 -95 -93 -95 -100 0 -20 35 -73 48 -73 7 0 69 16 138 36
105 30 129 34 157 25 33 -11 195 -167 216 -208 17 -34 14 -59 -25 -192 -38
-133 -39 -126 19 -157 l27 -15 90 95 c126 131 126 131 314 83 138 -36 146 -45
187 -213 l33 -134 47 0 47 0 32 130 c18 72 41 141 51 154 21 27 41 35 167 70
151 42 148 43 272 -80 l107 -105 37 21 c20 12 36 27 36 34 0 6 -16 67 -36 135
-23 81 -33 133 -29 152 9 39 195 225 234 234 19 4 71 -6 152 -29 68 -20 129
-36 135 -36 7 0 22 16 34 36 l21 37 -105 107 c-123 124 -122 121 -80 272 35
126 43 146 70 167 13 10 82 33 154 51 l131 33 -3 45 -3 45 -130 34 c-166 44
-176 53 -212 189 -48 188 -48 188 83 314 l95 90 -15 27 c-31 58 -24 57 -157
19 -133 -39 -158 -42 -192 -25 -41 21 -197 183 -208 216 -9 28 -5 52 25 157
20 69 36 131 36 138 0 13 -53 48 -73 48 -7 0 -52 -43 -100 -95 -112 -121 -129
-127 -247 -92 -47 14 -104 30 -127 36 -60 16 -86 54 -112 158 -45 181 -35 163
-89 163 l-48 0 -28 -117z m309 -393 c333 -89 589 -347 681 -686 29 -107 27
-361 -4 -468 -95 -331 -337 -573 -668 -668 -107 -31 -361 -33 -468 -4 -107 29
-201 71 -290 130 -500 333 -570 1024 -147 1447 139 138 308 228 500 264 105
20 291 13 396 -15z"/>
<path d="M2020 3326 c-291 -65 -510 -266 -600 -551 -28 -88 -38 -263 -21 -361
55 -311 278 -553 586 -635 110 -29 288 -29 397 0 245 65 447 245 541 481 38
97 51 173 50 295 -3 379 -260 694 -628 770 -87 18 -247 18 -325 1z m398 -252
c148 -26 250 -78 292 -147 19 -30 20 -52 20 -375 0 -387 0 -388 -73 -442 -48
-35 -123 -65 -221 -87 -105 -24 -394 -24 -506 0 -174 37 -282 110 -295 199 -3
24 -5 185 -3 358 3 361 2 356 91 415 137 90 438 124 695 79z"/>
<path d="M2010 2940 c-338 -36 -267 -142 105 -157 154 -6 318 8 400 35 41 14
51 22 53 43 3 23 -3 29 -37 42 -88 35 -356 54 -521 37z"/>
<path d="M1782 2618 l3 -73 45 -22 c76 -37 191 -55 350 -55 157 0 264 16 349
53 l51 21 0 74 c0 41 -3 74 -8 74 -4 0 -52 -11 -107 -25 -182 -46 -409 -44
-593 5 -40 11 -77 20 -83 20 -6 0 -9 -27 -7 -72z"/>
<path d="M1780 2306 l0 -77 43 -19 c85 -38 161 -51 312 -57 172 -6 304 11 393
52 l52 24 0 77 c0 68 -2 75 -17 69 -10 -4 -52 -16 -93 -28 -65 -18 -102 -21
-285 -21 -187 -1 -219 2 -292 22 -45 12 -89 25 -97 28 -14 5 -16 -5 -16 -70z"/>
<path d="M3692 950 c-68 -66 -122 -123 -120 -127 1 -5 141 -144 309 -310 197
-195 318 -308 342 -318 95 -40 233 -2 289 80 54 78 54 193 0 269 -17 25 -143
125 -357 283 -181 133 -332 243 -335 243 -3 -1 -61 -55 -128 -120z"/>
</g>
</svg>
